<svg xmlns="http://www.w3.org/2000/svg" xmlns:xlink="http://www.w3.org/1999/xlink" width="500" zoomAndPan="magnify" viewBox="0 0 375 374.999991" height="500" preserveAspectRatio="xMidYMid meet" version="1.0"><defs><clipPath id="3d1a282c5c"><path d="M 146.289062 93.683594 L 228.789062 93.683594 L 228.789062 209.933594 L 146.289062 209.933594 Z M 146.289062 93.683594 " clip-rule="nonzero"/></clipPath></defs><g clip-path="url(#3d1a282c5c)"><path fill="#000000" d="M 199.824219 123.292969 C 196.898438 126.308594 194.464844 130.0625 192.589844 134.617188 C 190.648438 139.328125 189.324219 144.714844 188.496094 150.960938 C 187.109375 162.164062 183.261719 172.074219 177.257812 180.601562 C 171.164062 189.15625 162.757812 196.328125 152.109375 202.144531 L 151.921875 202.207031 L 151.707031 202.296875 C 151.246094 202.421875 150.90625 202.699219 150.660156 203.097656 C 150.445312 203.5 150.382812 203.960938 150.507812 204.421875 C 150.570312 204.882812 150.847656 205.222656 151.246094 205.5 C 151.585938 205.714844 152.046875 205.835938 152.507812 205.777344 L 152.785156 205.777344 C 162.175781 205.5 171.226562 203.375 179.535156 199.527344 C 187.816406 195.742188 195.421875 190.234375 201.699219 183.339844 C 208.011719 176.414062 212.78125 168.441406 215.859375 159.824219 C 218.878906 151.175781 220.203125 141.914062 219.585938 132.617188 L 219.585938 132.464844 C 219.585938 131.664062 219.523438 130.925781 219.402344 130.125 C 219.246094 129.386719 219.0625 128.648438 218.753906 127.910156 C 218.199219 126.492188 217.398438 125.230469 216.324219 124.09375 C 215.308594 123.015625 214.042969 122.089844 212.628906 121.476562 C 210.503906 120.492188 208.164062 120.214844 205.949219 120.550781 C 203.703125 120.890625 201.578125 121.8125 199.824219 123.292969 Z M 196.46875 120.828125 C 197.019531 118.613281 198.097656 116.582031 199.484375 114.921875 C 201.085938 113.105469 203.269531 111.78125 205.609375 111.011719 C 207.332031 110.519531 209.089844 110.304688 210.84375 110.425781 C 213.460938 101.253906 218.539062 95.683594 226.171875 93.746094 C 227.3125 93.46875 228.453125 94.144531 228.726562 95.222656 C 229.003906 96.359375 228.328125 97.5 227.25 97.777344 C 221.15625 99.316406 217.0625 103.871094 214.84375 111.441406 C 216.445312 112.089844 217.921875 113.042969 219.1875 114.242188 C 220.941406 116.058594 222.203125 118.214844 222.816406 120.550781 C 223.371094 122.613281 223.433594 124.890625 222.878906 127.109375 C 223.15625 127.847656 223.371094 128.585938 223.496094 129.386719 C 223.617188 130.402344 223.773438 131.355469 223.773438 132.339844 C 224.355469 142.25 222.941406 152.039062 219.738281 161.148438 C 216.507812 170.351562 211.488281 178.84375 204.777344 186.140625 C 198.160156 193.464844 190.125 199.25 181.261719 203.285156 C 172.488281 207.316406 162.914062 209.59375 153.0625 209.839844 C 151.585938 210.117188 150.105469 209.714844 148.90625 209.007812 C 147.707031 208.117188 146.75 206.914062 146.445312 205.375 C 146.105469 203.835938 146.382812 202.296875 147.089844 201.035156 C 147.769531 199.804688 148.90625 198.851562 150.230469 198.421875 C 160.296875 192.910156 168.144531 186.140625 173.839844 178.167969 C 179.535156 170.195312 183.078125 160.933594 184.429688 150.4375 C 185.230469 143.789062 186.707031 138.035156 188.769531 133.078125 C 190.710938 128.183594 193.328125 124.09375 196.46875 120.828125 Z M 206.871094 114.980469 C 205.671875 115.382812 204.53125 115.996094 203.578125 116.734375 C 204.195312 116.582031 204.71875 116.460938 205.332031 116.398438 C 208.289062 115.996094 211.429688 116.398438 214.382812 117.660156 C 215.859375 118.398438 217.183594 119.261719 218.324219 120.277344 C 217.863281 119.136719 217.183594 118.152344 216.261719 117.257812 C 215.03125 116.058594 213.582031 115.257812 212.011719 114.859375 C 211.953125 114.859375 211.953125 114.796875 211.890625 114.796875 C 211.828125 114.796875 211.765625 114.796875 211.765625 114.796875 C 210.164062 114.367188 208.472656 114.457031 206.871094 114.980469 Z M 188.769531 161.949219 C 189.046875 160.808594 190.1875 160.132812 191.328125 160.472656 C 192.402344 160.75 193.050781 161.886719 192.804688 163.027344 C 192.003906 166.042969 191.109375 168.71875 190.125 171.121094 C 189.046875 173.550781 187.910156 175.675781 186.617188 177.582031 C 186.03125 178.507812 184.707031 178.753906 183.753906 178.105469 C 182.800781 177.429688 182.613281 176.136719 183.199219 175.214844 C 184.371094 173.613281 185.355469 171.734375 186.214844 169.519531 C 187.171875 167.242188 188.03125 164.71875 188.769531 161.949219 Z M 209.425781 124.152344 C 210.566406 123.96875 211.613281 124.769531 211.828125 125.90625 C 211.953125 127.046875 211.210938 128.125 210.074219 128.246094 C 206.71875 128.863281 203.917969 131.078125 201.640625 134.957031 C 199.144531 139.171875 197.421875 145.265625 196.28125 153.238281 C 196.128906 154.378906 195.082031 155.175781 193.941406 154.960938 C 192.804688 154.871094 192.003906 153.792969 192.1875 152.621094 C 193.328125 144.21875 195.359375 137.574219 198.039062 132.863281 C 200.960938 127.847656 204.71875 124.953125 209.425781 124.152344 Z M 209.425781 124.152344 " fill-opacity="1" fill-rule="evenodd"/></g></svg>