<?xml version="1.0" encoding="UTF-8"?>
<svg xmlns="http://www.w3.org/2000/svg" version="1.1" viewBox="0 0 403.4 302.5">
  <!-- Generator: Adobe Illustrator 29.2.1, SVG Export Plug-In . SVG Version: 2.1.0 Build 116)  -->
  <defs>
    <style>
      .st0 {
        fill: #a58355;
        stroke-width: .5px;
      }

      .st0, .st1, .st2 {
        stroke: #000;
        stroke-miterlimit: 10;
      }

      .st3 {
        font-family: Galaxy1, 'Galaxy 1';
        font-size: 12.1px;
      }

      .st1, .st4, .st2 {
        fill: #fff;
      }

      .st2 {
        stroke-width: .8px;
      }

      .st5 {
        letter-spacing: 0em;
      }

      .st6 {
        letter-spacing: 0em;
      }
    </style>
  </defs>
  <g id="Layer_1">
    <path class="st4" d="M282.4,148.9v-.4c0,0,.1-.3.1-.3h-.3c0-.1,0-.4,0-.4h0c0-.1,0-.2,0-.2l-.5-.2v-.3c-.1,0-.3-.3-.3-.3v-.2c0,0,.2-.3.2-.3l.3-.3h-.3s-.2-.4-.2-.4l-.3-.3.2-.3-.4-.2-.3-.2v-.3c0,0,.3-.2.3-.2v-.3c.1,0-.2,0-.2,0h-.3c0,0-.3-.1-.3-.1l-.2-.2-.2-.2v-.3l-.2-.3v-.2s.2-.2.2-.2v-.3s0-.3,0-.3v-.2c.1,0,.2-.2.2-.2v-.4c-.1,0-.3-.3-.3-.3l-.2-.2.2-.3v-.3c-.1,0-.4-.3-.4-.3l-.2-.3v-.3s-.1-.2-.1-.2v-.3h-.3c0,0-.1-.4-.1-.4h-.3s0-.3,0-.3h-.2c0-.1-.3-.3-.3-.3l-.2-.4v-.3c-.1,0-.4-.3-.4-.3h-.2v-.5l-.2-23.7-.2-.3h-.2c0,0-.3.2-.3.2l-.2.2v-.3c0,0-.3,0-.3,0l-.2-.2-.3.2h-.2c0,0,.3.1.3.1v.3s-.3-.1-.3-.1l-.2.2h-.2c0,0,0-.3,0-.3v-.2c0,0-.2.1-.2.1l-.2.3h-.2s.1-.3.1-.3h-.2c0,0-.1.4-.1.4h-.3c0,0-.3-.2-.3-.2v.2c-.1,0-.4,0-.4,0l-.3-.2v-.2c.1,0-.2,0-.2,0l-.2-.3h-.3c0-.1-.2-.3-.2-.3v-.3c.1,0,.3-.3.3-.3h-.3c0,0-.3.3-.3.3h-.3s-.3,0-.3,0l.2-.3h-.2s-.4,0-.4,0v-.3c.1,0-.2.1-.2.1l.3-.3h-.2s-.2-.2-.2-.2v.3s-.2,0-.2,0h-.2c0,0-.2.1-.2.1h-.3c0-.1.3-.2.3-.2v-.4c0,0-.2,0-.2,0h-.3c0,.1-.4,0-.4,0l.2-.3h-.3c0,0,0,0,0,0l.2.2h-.3c0,0-.1,0-.1,0-.1,0-.2.2-.3.2-.2.1-.4.2-.5.2-.2,0-.4.1-.6.2-.2,0-.5,0-.7,0-.1,0-.2,0-.3-.1-.3-.2-.5-.5-.6-.8,0-.2,0-.3,0-.5,0-.2,0-.3.2-.5,0-.1.2-.3.3-.4,0,0,0,0,.1,0h-.2s0-.3,0-.3h-.2c0,0-.1,0-.2,0-.1,0-.2,0-.3,0-.2,0-.3,0-.5-.1-.2,0-.3-.1-.4-.3-.1-.1-.2-.2-.2-.4-.4-.2-.6-.5-.7-.9l-.4-.2-.4-.2h-.3c0,.1-.2.4-.2.4v.4s-.2.3-.2.3l-.2-.3v.3s-.2.3-.2.3h-.3c0-.1-.3,0-.3,0h-.3c0,.1-.3,0-.3,0h-.3c0,0-.3,0-.3,0h-.3s-.1-.3-.1-.3l-.2.2h-.3s0-.3,0-.3l-.3.3h-.2c0-.1,0-.5,0-.5v-.3c-.1,0-.4,0-.4,0h-.3c0-.1-.2,0-.2,0l-.2.4h-.3c0,0-.3.2-.3.2h-.3c0,.1-.3,0-.3,0h-.3c0,0-.2.2-.2.2v.2c.1,0,0,.2,0,.2h-.3s-.2-.2-.2-.2h-.2c0,.1-.1.4-.1.4h-.2c0-.1-.2-.3-.2-.3l-.4-.3-.5-.3-.2.4h-.3c0,0-.3,0-.3,0l-.2.3-.3-.2-.2.3h-.3c0-.1-.4-.1-.4-.1v.2s-.3-.1-.3-.1h-.3s-.1.3-.1.3h-.3c0,.1.2.1.2.1v.4s-.2.4-.2.4h-.2c0,.1-.4.2-.4.2l-.3-.2h-.3c0-.1-.2,0-.2,0v.3c-.1,0-.1.3-.1.3v.3c0,0-.3.2-.3.2h-.3c0,0-.1-.2-.1-.2v-.2c-.1,0-.4-.3-.4-.3l-.2-.3-.2-.3h-.2s-.2,0-.2,0h-.4s-.2-.2-.2-.2v-.3s-.2-.3-.2-.3h-.2c0,0-.3,0-.3,0l-.3-.2-.5-.3.4-.4v-.3c0,0-.4,0-.4,0l-.6-.3v.4c-.1,0-.1.3-.1.3l-.3.4h-.3c0,0-.3.1-.3.1h-.3c0,0,0-.3,0-.3l-.2-.3h-.2c0,0-.3,0-.3,0v.2s-.3,0-.3,0l-.3-.3-.2-.4v-.3s0-.4,0-.4l-.3-.3-.3.2h-.3c0,.1-.3,0-.3,0v.7c.1,0,.1.3.1.3l-.2.3-.3.4h-.3c0,.1-.3-.2-.3-.2l-.3.3h.5c0,.1,0,.4,0,.4l-.6.2v.3s0,.4,0,.4v.3s-.3.3-.3.3h-.3s-.3,0-.3,0l-.2-.2v-.2c0,0-.2-.2-.2-.2v-.2c0,0-.2-.3-.2-.3v-.5c.1,0,.5-.1.5-.1v-.3s-.1-.3-.1-.3v-.3c-.1,0-.4-.2-.4-.2h-.3s-.2.2-.2.2v.4c0,0-.3.3-.3.3l-.3-.2-.3-.3v.3s-.3,0-.3,0v-.3s0,.3,0,.3l-.2.5-.4.2h-.3s-.3,0-.3,0l-.3-.2v-.3c-.1,0,0-.3,0-.3-.5,0-.8-.3-1-.6h0s-.4,0-.4,0h-.3s-.1-.3-.1-.3v-.3s.1-.3.1-.3l-.3-.2-.3-.2-.5-.2h-.3c0,.1-.1.4-.1.4l-.2.3h-.3c0,.1-.3.2-.3.2v.3h-.3v.3c0,0-.2.1-.2.1l-.2.3-.3.2h-.3c0,.1-.3,0-.3,0l-.3-.2-.3-.2h-.3s-.3-.2-.3-.2v-.4s.3,0,.3,0v-.4s-.2,0-.2,0l.2-.2v-.5c0,0-.2-.2-.2-.2h-.2c0,.1-.5.2-.5.2h-.4s-.3-.1-.3-.1v-.3c0,0-.3-.2-.3-.2h.2c0-.1-.3-.4-.3-.4v-.3c0,0,.1-.3.1-.3l.2-.3v-.3c-.1,0-.2-.3-.2-.3h-.4c0,.1-.4.6-.4.6h-.5c0-.1-.3-.3-.3-.3h-.3c0,0-.3,0-.3,0h-.3c0,0-.3-.3-.3-.3h-.5c0,0-.2.2-.2.2l-.2.3v.4c-.1,0-.4.1-.4.1l-.3.2h-.3c0,.1-.3,0-.3,0l-.3-.2-.3-.3-.3-.4-.3-.3h-.4c0,0-.5-.1-.5-.1l-.4.3h-.2s-.3,0-.3,0l-.3.2-.2-.2h-.4c0,0-.2-.3-.2-.3h-.3s-.4.1-.4.1l-.2-.3h-.3c0-.1-.2-.4-.2-.4h-.5c0-.1-.2-.4-.2-.4h-.3c0,.1-.3.2-.3.2h-.3c0,0-.2,0-.2,0h-.3s-.2,0-.2,0h-.2s0-.2,0-.2l-.3.2h-.5v-.6c0,0,0-.3,0-.3v-.3c-.1,0-.2-.2-.2-.2v-.3c0,0,0-.3,0-.3h-.3s0-.2,0-.2l-.3-.3-.3-.2v-.3s-.3-.2-.3-.2h0s-.3,0-.3,0l-.3-.3-.2-.4h-.3s-.2.4-.2.4v.3s0,.2,0,.2l-.2.3h-.3c0,.1-.3,0-.3,0l-.2-.2-.3-.2h-.3c0,0-.3,0-.3,0h-.3c0,0-.3,0-.3,0v.3s-.2.3-.2.3h-.3s-.3-.1-.3-.1h-.3c0,0-.3,0-.3,0l-.3-.3-.2-.2-.4-.2-.2-.3-.3-.2-.3-.4-.2-.3-.3-.2-.2-.2-.2-.3-.2-.2-.4-.3h-.3s-.2.2-.2.2h-.4s0-29.9,0-29.9h-6.4s-.8,0-.8,0v82.3h89.7l-.2-.2Z"/>
    <path class="st0" d="M282.2,151.5l.3-.2v-.3s0-.2,0-.2v-.3c-.1,0-.4,0-.4,0v-.2c-.1,0,0-.3,0-.3v-.2c.1,0,0-.3,0-.3v-.3c.1,0,.1,0,.1,0h-.7s0,0,0,0l-.2-.2v-.4c0,0,.1-.3.1-.3h-.3c0-.1,0-.4,0-.4h0c0-.1,0-.2,0-.2l-.5-.2v-.3c-.1,0-.3-.3-.3-.3v-.2c0,0,.2-.3.2-.3l.3-.3h-.3s-.2-.4-.2-.4l-.3-.3.2-.3-.4-.2-.3-.2v-.3c0,0,.3-.2.3-.2v-.3c.1,0-.2,0-.2,0h-.3c0,0-.3-.1-.3-.1l-.2-.2-.2-.2v-.3l-.2-.3v-.2s.2-.2.2-.2v-.3s0-.3,0-.3v-.2c.1,0,.2-.2.2-.2v-.4c-.1,0-.3-.3-.3-.3l-.2-.2.2-.3v-.3c-.1,0-.4-.3-.4-.3l-.2-.3v-.3s-.1-.2-.1-.2v-.3h-.3c0,0-.1-.4-.1-.4h-.3s0-.3,0-.3h-.2c0-.1-.3-.3-.3-.3l-.2-.4v-.3c-.1,0-.4-.3-.4-.3h-.2v-.5l-.2-23.7-.2-.3h-.2c0,0-.3.2-.3.2l-.2.2v-.3c0,0-.3,0-.3,0l-.2-.2-.3.2h-.2c0,0,.3.1.3.1v.3s-.3-.1-.3-.1l-.2.2h-.2c0,0,0-.3,0-.3h-.2c0-.1-.2.2-.2.2h-.2s.1-.3.1-.3h-.2c0,0-.1.4-.1.4h-.3c0,0-.3-.2-.3-.2v.2c-.1,0-.4,0-.4,0l-.3-.2h0l-.2-.2-.2-.3h-.3c0-.1-.2-.3-.2-.3v-.3c.1,0,0-.2,0-.2h0l-.3.2h-.3s-.3,0-.3,0l.2-.3h-.2s-.4,0-.4,0v-.3h.1v-.2s-.3,0-.3,0h-.1s-.3,0-.3,0h-.2c0,0-.2.1-.2.1h-.3c0-.1.3-.2.3-.2v-.4c0,0-.2,0-.2,0h-.3c0,.1-.2,0-.2,0,0,0,0,0,0,0-.2.1-.4.2-.5.2-.2,0-.4.1-.6.2-.2,0-.5,0-.7,0-.1,0-.2,0-.3-.1-.3-.2-.5-.5-.6-.8,0-.2,0-.3,0-.5,0-.1,0-.2,0-.3h0s-.2-.3-.2-.3v-.3c0,0-.1-.7-.1-.7v.7c0,0-.2,0-.2,0v-.3s-.1,0-.2,0c-.2,0-.3-.1-.4-.3,0,0,0,0,0,0h-.3c0,0-.4-.2-.4-.2v-.3c0,0-.1-.3-.1-.3h-.2s0,.3,0,.3l-.2-.2v-.2h-.1l-.3-.2v-.2c.1,0-.1,0-.1,0l-.4-.2-.4-.2h-.3c0,.1-.2.4-.2.4v.4s-.2.3-.2.3h-.2s-.2.2-.2.2h-.3c0-.1-.3,0-.3,0h-.3c0,.1-.3,0-.3,0h-.3c0,0-.3,0-.3,0h-.3s-.1-.3-.1-.3l-.2.2h-.3s0-.3,0-.3l-.3.3h-.2c0-.1,0-.5,0-.5v-.3c-.1,0-.4,0-.4,0h-.3c0-.1-.2,0-.2,0l-.2.4h-.3c0,0-.3.2-.3.2h-.3c0,.1-.3,0-.3,0h-.3c0,0-.2.2-.2.2v.2c.1,0,0,.2,0,.2h-.3s-.2-.2-.2-.2h-.2c0,.1-.1.4-.1.4h-.2c0-.1-.2-.3-.2-.3l-.4-.3-.5-.3-.2.4h-.3c0,0-.3,0-.3,0l-.2.3-.3-.2-.2.3h-.3c0-.1-.4-.1-.4-.1v.2s-.3-.1-.3-.1h-.3s-.1.3-.1.3h0c0,.1,0,.5,0,.5l-.2.4h-.2c0,.1-.4.2-.4.2l-.3-.2h-.3c0-.1-.2,0-.2,0v.3c-.1,0-.1.3-.1.3v.3c0,0-.3.2-.3.2h-.3c0,0-.1-.2-.1-.2v-.2c-.1,0-.4-.3-.4-.3l-.2-.3-.2-.3h-.2s-.2,0-.2,0h-.4s-.2-.2-.2-.2v-.3s-.2-.3-.2-.3h-.2c0,0-.3,0-.3,0l-.3-.2-.5-.3.4-.4v-.3c0,0-.4,0-.4,0l-.6-.3v.4c-.1,0-.1.3-.1.3l-.3.4h-.3c0,0-.3.1-.3.1h-.3c0,0,0-.3,0-.3l-.2-.3h-.2c0,0-.3,0-.3,0v.2s-.3,0-.3,0l-.3-.3-.2-.4v-.3s0-.4,0-.4l-.3-.3-.3.2h-.3c0,.1-.3,0-.3,0v.7c.1,0,.1.3.1.3l-.2.3-.3.4h-.3c0,.1-.3-.2-.3-.2l-.3.3h.5c0,.1,0,.4,0,.4l-.6.2v.3s0,.4,0,.4v.3s-.3.3-.3.3h-.3s-.3,0-.3,0l-.2-.2v-.2c0,0-.2-.2-.2-.2v-.2c0,0-.2-.3-.2-.3v-.5c.1,0,.5-.1.5-.1v-.3s-.1-.3-.1-.3v-.3c-.1,0-.4-.2-.4-.2h-.3s-.2.2-.2.2v.4c0,0-.3.3-.3.3l-.3-.2-.3-.2s0,0,0,0v.3s-.3,0-.3,0v-.2s0,0,0,0v.2s-.3.5-.3.5l-.4.2h-.3s-.3,0-.3,0l-.3-.2v-.3c-.1,0,0-.3,0-.3v-.2s-.2-.3-.2-.3l-.5-.2-.4.2h-.4c0,0-.3,0-.3,0v-.3c-.1,0,0-.3,0-.3v-.3c0,0-.2-.2-.2-.2l-.3-.2-.5-.2h-.3c0,.1-.1.4-.1.4l-.2.3h-.3c0,.1-.3.2-.3.2v.3h-.3v.3c0,0-.2.1-.2.1l-.2.3-.3.2h-.3c0,.1-.3,0-.3,0l-.3-.2-.3-.2h-.3s-.3-.2-.3-.2v-.4s.3,0,.3,0v-.4s-.2,0-.2,0l.2-.2v-.5c0,0-.2-.2-.2-.2h-.2c0,.1-.5.2-.5.2h-.4s-.3-.1-.3-.1v-.3c0,0-.3-.2-.3-.2h.2c0-.1-.3-.4-.3-.4v-.3c0,0,.1-.3.1-.3l.2-.3v-.3c-.1,0-.2-.3-.2-.3h-.4c0,.1-.4.6-.4.6h-.5c0-.1-.3-.3-.3-.3h-.3c0,0-.3,0-.3,0h-.3c0,0-.3-.3-.3-.3h-.5c0,0-.2.2-.2.2l-.2.3v.4c-.1,0-.4.1-.4.1l-.3.2h-.3c0,.1-.3,0-.3,0l-.3-.2-.3-.3-.3-.4-.3-.3h-.4c0,0-.5-.1-.5-.1l-.4.3h-.2s-.3,0-.3,0l-.3.2-.2-.2h-.4c0,0-.2-.3-.2-.3h-.3s-.4.1-.4.1l-.2-.3h-.3c0-.1-.2-.4-.2-.4h-.5c0-.1-.2-.4-.2-.4h-.3c0,.1-.3.2-.3.2h-.3c0,0-.2,0-.2,0h-.3s-.2,0-.2,0h-.2s0-.2,0-.2l-.3.2h-.5v-.6c0,0,0-.3,0-.3v-.3c-.1,0-.2-.2-.2-.2v-.3c0,0,0-.3,0-.3h-.3s0-.2,0-.2l-.3-.3-.3-.2v-.3s-.3-.2-.3-.2h0s-.3,0-.3,0l-.3-.3-.2-.4h-.3s-.2.4-.2.4v.3s0,.2,0,.2l-.2.3h-.3c0,.1-.3,0-.3,0l-.2-.2-.3-.2h-.3c0,0-.3,0-.3,0h-.3c0,0-.3,0-.3,0v.3s-.2.3-.2.3h-.3s-.3-.1-.3-.1h-.3c0,0-.3,0-.3,0l-.3-.3-.2-.2-.4-.2-.2-.3-.3-.2-.3-.4-.2-.3-.3-.2-.2-.2-.2-.3-.2-.2-.4-.3h-.3s-.2.2-.2.2h-.4s0-29.9,0-29.9h-6.4s-6.2,0-6.2,0h-1.6s-13.2,0-13.2,0h-11.8s0,7.7,0,7.7v2.7s0,.5,0,.5v10.3s0,1.7,0,1.7v10.9s0,4.5,0,4.5l-.3,15.8v15.4s-28.1,0-28.1,0h-11.3s-6.4,0-6.4,0l-.2.3.2.2v.2c0,0,0,.3,0,.3l.2.2-.3.2v.3c-.1,0,0,.3,0,.3v.3c.1,0,.4.3.4.3l.2.3.3.2.3.2v.3c0,0,.3.3.3.3l.3.2.3-.2h.4s.3.1.3.1l.5.3v.2c0,0,.4.2.4.2l.2.5.4.6v.3c0,0,.2.3.2.3v.4c.1,0,.5.3.5.3l.3.6v.3c0,0,.3.3.3.3h.3c0,.1.2.4.2.4l.3.2h.3s.4.4.4.4h.9c0,0,.7.5.7.5v.4c0,0,.3.4.3.4h.4c0,0,.2.4.2.4h.3s.2.4.2.4l.2.3.2.3.3.4.2.3.2.3h.3s.4.4.4.4l.8.4.3.2.4.4.2.3v.3c0,0,.2.3.2.3v.3c0,0,.3.2.3.2l.3.2h.2c0,0,.2.5.2.5l.3.3.3.2.2.2.3.2v.3c0,0,0,.3,0,.3h.3c0,0,.3.1.3.1l.3.2h.2c0,0,.1.3.1.3l.3-.2.2.3.2.2h.3c0-.1.3-.2.3-.2v.3c.1,0,.4,0,.4,0v.3c.1,0,.4,0,.4,0v.2c0,0,.4,0,.4,0h.2c0,.1,0,.4,0,.4l.2.3h.2c0,0,.1.3.1.3h.2s.3,0,.3,0h.2s.2.4.2.4v.2s0,.3,0,.3l.3.2h.3c0,.1.2.2.2.2l.2.3.2.3v.2c.1,0,.2.3.2.3v.3c.1,0,.2.3.2.3v.2s0,.3,0,.3v.3c.1,0,.2.2.2.2v.2s0,.4,0,.4l.3.2h.2c0,0-.1.3-.1.3l.2.3.2.2v.2c.1,0,.4,0,.4,0v.3s.1.3.1.3h.3c0,.1.2.4.2.4v.3s.1.3.1.3v.3c.1,0,.1.3.1.3v.3s-.1.2-.1.2v.3c0,0,.1.3.1.3v.3c0,0-.2.2-.2.2v.3s.1.3.1.3v.2s0,.2,0,.2v.3s.2.2.2.2v.3c-.1,0,0,.2,0,.2l.3.3.2.3.2.3.2.3v.2c0,0,.2.2.2.2v.3c.1,0,.3.3.3.3v.3c.1,0,.2.3.2.3v.3c.1,0,.2.3.2.3v.3s0,.2,0,.2l.2.2v.2c.1,0,.2.2.2.2h.3c0,0,.2.3.2.3l.2.2.7.7.2.3h.2c0,.1.4.3.4.3h.2s.3,0,.3,0l.4.2h.3c0,.1,0,.4,0,.4h.3s0,.2,0,.2v.3s.4.3.4.3v.2c0,0,.3.3.3.3l.2.2.3.2h.3c0,.1.3.4.3.4l.2.2.2.2h.3c0,.1.3.2.3.2h.3c0,0,.3.1.3.1l.3.2h.3s.2,0,.2,0h.3c0,0,.2.2.2.2h.3s.2.2.2.2h.3c0,.1,0,.3,0,.3v.2s.3,0,.3,0l.2.2.2.2h.3c0,.1.2.2.2.2h.3c0,0,.2.3.2.3h.2s.3-.1.3-.1l.3.2h.3c0,0,.3,0,.3,0h.3c0,.1.2.4.2.4l.3.3.3.3v.3s.2,0,.2,0l.2.3.2.2h.3c0,0,.3.2.3.2h.3s0-.3,0-.3h.3c0,.1,0,.4,0,.4h.3c0,0,0,.2,0,.2h.3s0,.4,0,.4l.2-.3.4.2h.3c0,0,.3,0,.3,0l.4.2h.3c0,0,.4-.2.4-.2v-.2s.2-.4.2-.4v-.3c0,0,.2-.2.2-.2v-.2c.1,0,.3-.2.3-.2h.3c0,0,0-.4,0-.4l.3-.2v-.3c0,0,.2-.2.2-.2l.2-.3h.3c0,.1.2,0,.2,0l.3-.2.3-.2h.3c0,0,.1-.3.1-.3l-.2-.2-.2-.2v-.2s.2-.3.2-.3v-.2c0,0,0-.3,0-.3l.2-.4.4-.2.2-.4.3-.2-.2-.2v-.3s0-.3,0-.3v-.3c0,0,.3-.2.3-.2v-.3c0,0,0-.4,0-.4l.2-.2v-.3s.2-.3.2-.3v-.3s.2,0,.2,0v-.2c0,0,0-.4,0-.4l.2-.3.2-.2v-.3c.1,0,.2-.3.2-.3v-.3c.1,0,.4-.1.4-.1h.4s.3-.2.3-.2h.3s.3-.3.3-.3v.3c.1,0,.4-.1.4-.1l.3-.2v-.3c0,0,.2,0,.2,0h.4s.3,0,.3,0h.3c0,0,.3.2.3.2h.3c0-.1,0-.4,0-.4v-.3c0,0,.2-.4.2-.4l.2-.3h.2c0,0,.3-.3.3-.3l.4.2h.2c0,0,.2,0,.2,0l.2.2h.3c0,0,.3,0,.3,0v.3s.3.2.3.2l.3.2h.3c0,.1.3.2.3.2h.3c0,0,.3,0,.3,0l.3-.3h.5c0,0,.3-.2.3-.2l.2.3h.2c0,0,0,.2,0,.2l.2-.2h.5c0,0,.3-.1.3-.1l.2.2h.2s0-.2,0-.2h.2c0,.1,0,.4,0,.4h.3c0-.1.3,0,.3,0h.3c0,0,.3.2.3.2h.4s.3-.1.3-.1l.2.3.2-.3h.3c0,0,.4,0,.4,0v-.4c0,0,.4-.2.4-.2v.4c0,0,.1.4.1.4h.4c0,0,.3-.4.3-.4h.3c0,0,0,.2,0,.2l.2.3.5-.2-.2.2.2.2v.3l.3.3v.3c0,0,.3.1.3.1l.6.2v.2s-.1.5-.1.5v.3s.3.2.3.2l.2-.3v-.2s.1-.4.1-.4h.2c0,0,0,.4,0,.4v.7s-.1.3-.1.3v.3c0,0,.4,0,.4,0h.4s.3.3.3.3l.3.4h.3s.3.1.3.1h.3c0,0,.3.3.3.3l.2.3v.3c0,0,.3.3.3.3v.3c0,0,.3.2.3.2l.3.2h.3c0,0,.3.4.3.4l.3.2.3.2.2.4.3.2h.3c0,.1.2.3.2.3l.2.3v.3c.1,0,.2.2.2.2v.3c-.1,0,0,.2,0,.2l.3.3.4.3h.3c0,.1.2.4.2.4v.3c0,0,0,.4,0,.4v.3s.1.2.1.2v.3c0,0,0,.3,0,.3v.3s0,.3,0,.3l.2.2v.2s.3.2.3.2l.3.2v.3s.3.4.3.4v.3s.3.2.3.2l.2.3v.3s0,.3,0,.3h.2c0,.1.1.4.1.4v.6s.1.5.1.5h0s.3.2.3.2l.4.2v.3s.2.3.2.3l.4.3-.2.4v.3c.1,0,.3.2.3.2h.3c0,0,.3.2.3.2v.2c0,0-.4.2-.4.2l.2.2.2.3v.2s-.2.4-.2.4v.3c.1,0,.4.4.4.4l.2.4.2.3v.2s0,.5,0,.5l.2.3.3.2h.4c0,.1,0,.4,0,.4v.2c0,0,.4,0,.4,0l.3.3h.2l.3.2.5.2.2.4.2.3v.3c.1,0,.4.2.4.2v.2c0,0,.1.3.1.3v.3c0,0,.2.3.2.3l.2.2h.4c0,0,.2.3.2.3v.3c0,0,0,.3,0,.3l.3.2v.3c0,0,0,.3,0,.3v.3c.1,0,.4.3.4.3v.4s0,.3,0,.3l.3.2.2.2.3-.2v.2c0,0,.2.4.2.4h.3c0,0,.2.4.2.4l.3.4v.3c.1,0,.4.2.4.2h.3c0,0,.3.1.3.1v.3s.2,0,.2,0l.3-.2h.3s.2.3.2.3v.2s.3-.2.3-.2l.2.3.3.3v.3s0,.3,0,.3v.3s0,.3,0,.3h.3c0,0,.3.1.3.1v.4c0,0-.2.4-.2.4v.4c.1,0,0,.3,0,.3v.3c0,0-.2.3-.2.3v.3s-.3.2-.3.2v.3c.1,0,.4,0,.4,0l.2.2v.5c0,0,.5,0,.5,0v.4c.1,0,.1.3.1.3v.3c.1,0,.2.4.2.4v.3c-.1,0,0,.3,0,.3v.3s0,.4,0,.4v.3c0,0-.3.4-.3.4v.3c0,0,.2.3.2.3h.3s.2.3.2.3l.4.3-.2.3v.3c0,0,.4.2.4.2h.3c0,.1.2.3.2.3v.6c0,0,.3,0,.3,0h0l.3.3v.4c0,0,.3.4.3.4v.7s.4.3.4.3v.5s.1.6.1.6l.3.6v.9c.1,0,.1.4.1.4h.3c0,.1.3.3.3.3l.2.2v.3c.1,0,0,.3,0,.3v.2c0,0-.2.2-.2.2l.2.2.2.3h.4c0,0,.3-.2.3-.2l.4.3h.4c0-.1.2.2.2.2h.3c0,0,.1-.2.1-.2l.2.3.3.2h.2c0,0,.3,0,.3,0l.2-.2h.3c0,0,.1.3.1.3v.3c0,0,.3.1.3.1h.3c0,0,.1.2.1.2v.3s.3,0,.3,0h.2c0,.1-.3.2-.3.2h.2c0,0,.3.2.3.2v.2s.3,0,.3,0l.3-.2h.3s.3,0,.3,0l.3.3v.2c.1,0,.3-.3.3-.3v.3c.1,0,.4,0,.4,0v.3c.1,0,.5.1.5.1v-.3s.2-.1.2-.1h.3c0,.1,0,.4,0,.4h.2c0,.1.3.4.3.4l.3.2h.3s.2,0,.2,0v.2s.2.3.2.3l.3.2v-.2c0,0,.4,0,.4,0l-.3.2.3.2.2.3h.5s.3.3.3.3l.3-.3.2.3h.2s.3-.2.3-.2h.3c0,0,.3,0,.3,0v.3c0,0,.2,0,.2,0h.3c0,0,0-.2,0-.2h.3c0,0,.2,0,.2,0h.2s.3,0,.3,0h.2s.3,0,.3,0l.3-.2h.3c0,0,.2.2.2.2h.3c0,0,.2,0,.2,0h.2c0,.1,0,.4,0,.4l.2-.2v.3c0,0,.4,0,.4,0h.4c0,0,.2,0,.2,0l.3-.2v.3c0,0,.3,0,.3,0v.3c0,0,.2,0,.2,0v.2c0,0,.2.2.2.2l.3.3h.3c0,.1-.1.4-.1.4h.4s.2.3.2.3v.3s.1.3.1.3l.3-.2v.3c0,0,.3,0,.3,0h.2c0-.1.1.1.1.1v.3c.1,0,.5,0,.5,0l.2.3h.3s0-.3,0-.3l.2-.2v-.3c0,0-.2-.2-.2-.2l.3-.2h.3c0-.1.2-.2.2-.2h.2s.2,0,.2,0v-.3h.4s.3-.1.3-.1h.2s.2,0,.2,0h.3s.3,0,.3,0v-.2s.7,0,.7,0v-1.1s0-.4,0-.4v-.3c0,0-.2-.3-.2-.3v-.6s-.1-.8-.1-.8v-.8c0,0-.5-2-.5-2l-.4-1.6-.4-1.6v-.3c-.1,0-.5-1-.5-1l-.4-1.6-.2-1.1-.2-1.2v-1.1c0,0-.1-.4-.1-.4v-1.5c0,0,.1-.9.1-.9v-.4c0,0,.2-.8.2-.8v-.4c.1,0,.5-1.5.5-1.5v-.3c0,0,.7-1.7.7-1.7l.4-1,.5-1.1,1-1.7.5-.6.3-.3.3-1.1.3-.4.4-.5.4-.6.4-.5,1.3-1.2,1.4-1.2.6-.4.8-.6,1.4-.7.4-.2.3-.2.4-.5v-.3c0,0,.3-.3.3-.3h.3c0,0,.3-.4.3-.4v-.3c.1,0,.4-.2.4-.2l.7-.5,1.4-.7,1-.5,1.6-.8,1.2-.7.4-.2,2.8-1.7.5-.2.9-.6h.5c0,0,.3-.2.3-.2l.4-.3.2-.3.2-.3.5-.3.3-.3.3-.2.3-.3.7-.8.2-.2.2-.5v-.3s1.1-.6,1.1-.6l.5-.3.7-.5.9-.6.9-.5.4-.4.4-.3h.3c0,0,.3,0,.3,0l.3-.3.2-.5v-.4c0,0-.3-.4-.3-.4l.3-.2,1.6-.8,1-.5.6-.3,3.2-1.5,1.2-.5h2c0,0,.2.3.2.3h.3c0,.1.3.1.3.1l-.2-1v-.5c-.1,0-.6-.7-.6-.7l-.3-.3v-.3c0,0-.4-.3-.4-.3v-.3s.2-.3.2-.3l.4-.3.4-.3.3-.5.2-.4v-.3s.2-.4.2-.4l.2-.4.3-.2.3-.3v-.2c0,0,.5-.4.5-.4l-.3-.2v-.3c.1,0,.3-.3.3-.3v-.3c.1,0,0-.3,0-.3v-.3c-.1,0-.2-.3-.2-.3v-.3c0,0,0-.2,0-.2v-.3s0-.3,0-.3v-.3s-.1-.2-.1-.2l-.3-.2-.2-.3v-.3s0-.3,0-.3v-.3c0,0,0-.3,0-.3l.2-.3v-.3s.3,0,.3,0v-.2s-.1-.3-.1-.3v-.3s0-.3,0-.3v-.3c0,0-.3-.3-.3-.3v-.2c0,0,.1-.3.1-.3l.3-.2h.2c0,0,0-.3,0-.3v-.3s0-.2,0-.2l.2-.3.2-.2h.3c0-.1.1-.4.1-.4v-.3c0,0,.1-.3.1-.3v-.3s.1-.2.1-.2l.2-.3v-.4c.1,0,.2-.2.2-.2v-.3c.1,0,0-.3,0-.3v-.3c0,0-.2-.3-.2-.3l.2-.2v-.3c.1,0,.4-.3.4-.3v-.3c0,0-.3-.2-.3-.2h-.2c0-.1,0-.4,0-.4v-.3s.3,0,.3,0Z"/>
    <polygon class="st2" points="160.1 169.9 153.6 169.9 151.6 163.7 149.6 169.9 143.1 169.9 148.4 173.7 146.4 179.8 151.6 176 156.8 179.8 154.8 173.7 160.1 169.9"/>
    <path class="st1" d="M169.7,150"/>
    <path class="st1" d="M169.7,166.8"/>
  </g>
  <g id="Layer_2">
    <text class="st3" transform="translate(163.8 124.8)"><tspan class="st5"><tspan x="0" y="0">Terlingua </tspan></tspan><tspan class="st6"><tspan x="0" y="14.5">Stargazers </tspan></tspan><tspan class="st6"><tspan x="0" y="28.9">Society</tspan></tspan></text>
  </g>
</svg>