<?xml version="1.0" encoding="UTF-8"?>
<svg xmlns="http://www.w3.org/2000/svg" version="1.1" viewBox="0 0 50 50">
  <!-- Generator: Adobe Illustrator 29.4.0, SVG Export Plug-In . SVG Version: 2.1.0 Build 152)  -->
  <defs>
    <style>
      .st0 {
        fill: #ff66c4;
      }

      .st1 {
        display: none;
      }

      .st1, .st2 {
        fill: #fff;
      }
    </style>
  </defs>
  <g id="Layer_3">
    <path class="st2" d="M13.5,13h23c1.9,0,1.9,5,0,5H13.5c-1.5,0-2.3-4.1,0-5Z"/>
    <path class="st2" d="M13.5,23h23c1.9,0,1.9,5,0,5H13.5c-1.5,0-2.3-4.1,0-5Z"/>
    <path class="st2" d="M13.5,33h23c1.9,0,1.9,5,0,5H13.5c-1.5,0-2.3-4.1,0-5Z"/>
  </g>
  <g id="Layer_2">
    <rect class="st0" width="50" height="50"/>
  </g>
  <g id="Layer_1">
    <g>
      <path class="st1" d="M50,0v50H0V0h50ZM18.7,1.2c-24.2,4.1-23.8,44.9,1.8,47.8C59.9,53.3,58.2-5.5,18.7,1.2Z"/>
      <path class="st2" d="M18.7,1.2c39.5-6.7,41.2,52.1,1.8,47.8C-5.1,46.2-5.4,5.3,18.7,1.2ZM24.6,3.3c-28.3.5-27.3,43.8.7,43.3,28.3-.5,27.3-43.8-.7-43.3Z"/>
      <path class="st1" d="M24.6,3.3c28-.5,29,42.7.7,43.3C-2.7,47.1-3.7,3.9,24.6,3.3ZM13.5,13c-2.3.9-1.5,5,0,5h23c1.9,0,1.9-5,0-5H13.5ZM13.5,23c-2.3.9-1.5,5,0,5h23c1.9,0,1.9-5,0-5H13.5ZM13.5,33c-2.3.9-1.5,5,0,5h23c1.9,0,1.9-5,0-5H13.5Z"/>
      <path class="st2" d="M13.5,13h23c1.9,0,1.9,5,0,5H13.5c-1.5,0-2.3-4.1,0-5Z"/>
      <path class="st2" d="M13.5,23h23c1.9,0,1.9,5,0,5H13.5c-1.5,0-2.3-4.1,0-5Z"/>
      <path class="st2" d="M13.5,33h23c1.9,0,1.9,5,0,5H13.5c-1.5,0-2.3-4.1,0-5Z"/>
    </g>
  </g>
</svg>