<?xml version="1.0" encoding="UTF-8"?>
<svg xmlns="http://www.w3.org/2000/svg" version="1.1" viewBox="0 0 50 50">
  <!-- Generator: Adobe Illustrator 29.4.0, SVG Export Plug-In . SVG Version: 2.1.0 Build 152)  -->
  <defs>
    <style>
      .st0 {
        fill: #ff914d;
      }

      .st1 {
        fill: #fff;
      }

      .st2 {
        display: none;
      }
    </style>
  </defs>
  <g id="Layer_2">
    <rect class="st0" x="0" y="0" width="50" height="50"/>
  </g>
  <g id="Layer_1">
    <g>
      <path class="st2" d="M50,0v50H0V0h50ZM18.7,1.2c-24.2,4.1-23.8,44.9,1.8,47.8C59.9,53.3,58.2-5.5,18.7,1.2Z"/>
      <path class="st1" d="M18.7,1.2c39.5-6.7,41.2,52.1,1.8,47.8C-5,46.2-5.4,5.4,18.7,1.2ZM24.7,3.4c-28.3.5-27.3,43.8.7,43.3,28.3-.5,27.3-43.8-.7-43.3Z"/>
      <path class="st2" d="M24.7,3.4c28-.5,29,42.7.7,43.3C-2.7,47.2-3.7,3.9,24.7,3.4ZM12.5,11c-6.6,1.7,8.8,12.1,8.4,14.4-1.6,3-10.8,8.9-9.9,12.1,1.7,6.6,12.1-8.8,14.4-8.4,3,1.6,8.9,10.8,12.1,9.9,6.6-1.7-8.8-12.1-8.4-14.4,1.6-3,10.8-8.9,9.9-12.1-1.7-6.6-12.1,8.8-14.4,8.4-3-1.6-8.9-10.8-12.1-9.9Z"/>
      <path class="st1" d="M12.5,11c3.3-.8,9.2,8.3,12.1,9.9,2.3.4,12.7-15,14.4-8.4s-8.3,9.2-9.9,12.1c-.4,2.3,15,12.7,8.4,14.4s-9.2-8.3-12.1-9.9c-2.3-.4-12.7,15-14.4,8.4s8.3-9.2,9.9-12.1c.4-2.3-15-12.7-8.4-14.4Z"/>
    </g>
  </g>
</svg>