<?xml version="1.0" encoding="UTF-8"?>
<svg id="Layer_1" xmlns="http://www.w3.org/2000/svg" xmlns:xlink="http://www.w3.org/1999/xlink" version="1.1" viewBox="0 0 186.9 135">
  <!-- Generator: Adobe Illustrator 29.0.0, SVG Export Plug-In . SVG Version: 2.1.0 Build 186)  -->
  <defs>
    <style>
      .st0 {
        fill: none;
      }

      .st1 {
        fill: #517d42;
      }

      .st2 {
        fill: #f14624;
      }

      .st3 {
        clip-path: url(#clippath-11);
      }

      .st4 {
        clip-path: url(#clippath-16);
      }

      .st5 {
        clip-path: url(#clippath-10);
      }

      .st6 {
        clip-path: url(#clippath-15);
      }

      .st7 {
        clip-path: url(#clippath-13);
      }

      .st8 {
        clip-path: url(#clippath-14);
      }

      .st9 {
        clip-path: url(#clippath-12);
      }

      .st10 {
        clip-path: url(#clippath-1);
      }

      .st11 {
        clip-path: url(#clippath-3);
      }

      .st12 {
        clip-path: url(#clippath-4);
      }

      .st13 {
        clip-path: url(#clippath-2);
      }

      .st14 {
        clip-path: url(#clippath-7);
      }

      .st15 {
        clip-path: url(#clippath-6);
      }

      .st16 {
        clip-path: url(#clippath-9);
      }

      .st17 {
        clip-path: url(#clippath-8);
      }

      .st18 {
        clip-path: url(#clippath-5);
      }

      .st19 {
        fill: #bf1b2c;
      }

      .st20 {
        fill: #548045;
      }

      .st21 {
        fill: #548644;
      }

      .st22 {
        clip-path: url(#clippath);
      }
    </style>
    <clipPath id="clippath">
      <rect class="st0" x="58.9" y="21.7" width="97.3" height="42.7"/>
    </clipPath>
    <clipPath id="clippath-1">
      <rect class="st0" x="7.4" y="17.4" width="149" height="72" transform="translate(-10.5 21.4) rotate(-14)"/>
    </clipPath>
    <clipPath id="clippath-2">
      <rect class="st0" x="7.4" y="17.4" width="149" height="72" transform="translate(-10.5 21.4) rotate(-14)"/>
    </clipPath>
    <clipPath id="clippath-3">
      <rect class="st0" x="41.6" y="57.7" width="117.3" height="37.3"/>
    </clipPath>
    <clipPath id="clippath-4">
      <rect class="st0" x="7.4" y="17.4" width="149" height="72" transform="translate(-10.5 21.4) rotate(-14)"/>
    </clipPath>
    <clipPath id="clippath-5">
      <rect class="st0" x="7.4" y="17.4" width="149" height="72" transform="translate(-10.5 21.4) rotate(-14)"/>
    </clipPath>
    <clipPath id="clippath-6">
      <rect class="st0" x="9.6" y="45.7" width="45.3" height="48"/>
    </clipPath>
    <clipPath id="clippath-7">
      <rect class="st0" x="7.4" y="17.4" width="149" height="72" transform="translate(-10.5 21.4) rotate(-14)"/>
    </clipPath>
    <clipPath id="clippath-8">
      <rect class="st0" x="7.4" y="17.4" width="149" height="72" transform="translate(-10.5 21.4) rotate(-14)"/>
    </clipPath>
    <clipPath id="clippath-9">
      <rect class="st0" x="140.2" y="20.3" width="10.7" height="24"/>
    </clipPath>
    <clipPath id="clippath-10">
      <rect class="st0" x="7.4" y="17.4" width="149" height="72" transform="translate(-10.5 21.4) rotate(-14)"/>
    </clipPath>
    <clipPath id="clippath-11">
      <rect class="st0" x="7.4" y="17.4" width="149" height="72" transform="translate(-10.5 21.4) rotate(-14)"/>
    </clipPath>
    <clipPath id="clippath-12">
      <rect class="st0" x="98.9" y="11" width="14.7" height="34.7"/>
    </clipPath>
    <clipPath id="clippath-13">
      <rect class="st0" x="7.4" y="17.4" width="149" height="72" transform="translate(-10.5 21.4) rotate(-14)"/>
    </clipPath>
    <clipPath id="clippath-14">
      <rect class="st0" x="7.4" y="17.4" width="149" height="72" transform="translate(-10.5 21.4) rotate(-14)"/>
    </clipPath>
    <clipPath id="clippath-15">
      <rect class="st0" x="11.3" y="99" width="158.3" height="22.8"/>
    </clipPath>
    <clipPath id="clippath-16">
      <rect class="st0" x="158.9" y="104.3" width="15.4" height="16"/>
    </clipPath>
  </defs>
  <g class="st22">
    <g class="st10">
      <g class="st13">
        <path class="st2" d="M63.2,57.2c.4-.1.8-.2,1.2-.3,5.4-1.2,12-1.3,20-.4,6.7.7,14.5,2.1,25.1,4.5,6.2,1.4,11.9,2.3,17.1,2.7,5.1.4,9.7.2,13.7-.4,1.1-.2,2.1-.4,3.1-.6,5.4-1.3,9.5-3.8,12.3-7.2.1-.2.3-.3.4-.4-2.4-11.2-20.8-19-21.1-30.4,0,0-1.8,4.1-1.9,6.3-.3,7.3,4,10,3.8,13.1-6.4-.5-10-6.2-10.8-9.9-.5-2.3,0-4.6-.2-6.9-.2-2.3-1.4-4.9-3.7-5.3,1.6,3.1,1.1,7.1-1.1,9.7-1.3,1.6-3.3,2.7-3.9,4.7-1.4,4.2,4,8.3,2.8,12.5-.6,2.1-2.8,3.5-5,3.7-3.7.4-7.5-1.9-8.8-5.3-.8-2.1-.7-4.4-1.3-6.6-.6-2.2-2.3-4.3-4.6-4.2.9,1.6,1.8,3.3,2.1,5.1s-.3,3.9-1.7,5c-1.1.8-2.4,1-3.7,1.1-2.2.2-4.4.1-6.4-.8-2-.9-3.5-3-3.2-5.2.2-1.3,1-2.4,1.4-3.6.5-1.2.5-2.8-.5-3.6.6,2.4-2,4.4-4.2,5.4s-5,2.3-5.3,4.8c-.1,1.2.2,2.3.2,3.5,0,4.9-6.3,6.6-8.7,1.7,0,0-1.1-.2-2.5,1.8-3,4.2-6,1.8-6.7-2.3-2.3,2.9-1.6,6.6-2,9.2,1.3-.5,2.8-1,4.3-1.4"/>
      </g>
    </g>
  </g>
  <g class="st11">
    <g class="st12">
      <g class="st18">
        <path class="st19" d="M53,86.8c-1.3-4.3-.4-9.1,2.4-12.9.8-1.1,1.8-2.1,3-3,3.1-2.4,6.7-4,10.9-5,11.2-2.7,26.3-.8,44.9,2.9,6.7,1.3,12.4,2.2,17.5,2.3,24.8.5,27.5-14.6,26.4-13.2-3,3.7-8.1,7.3-17.2,8.8-4.1.7-9,.9-14.9.5-5.3-.4-11.4-1.3-18.4-2.9-19.6-4.5-35.4-6.9-47.4-4.4-4.4.9-8.3,2.6-11.6,5-1.2.9-2.3,2-3.2,3.1-3,3.9-4.1,8.9-2.9,13.5,1.4,4.9,6.5,9.9,11.6,11.7,1.7.6,3.4,1.1,5.2,1.6-2.8-2.1-5.2-5-6.1-8"/>
      </g>
    </g>
  </g>
  <g class="st15">
    <g class="st14">
      <g class="st17">
        <path class="st1" d="M11.1,46.4s-3.6,16.7,15.6,27.9c3,1.7,5.4,4.3,7.4,7.1,2.1,3,6.8,9.4,14.2,11.3,0,0-9.2-6.3-10.4-15.8-.7-5.5,3-13.6,16.6-16.5,0,0-5.3-2.2-19.4,4.1-13,5.8-20.5-7.6-21-13.8-.1-1.6-1.1-3.1-2.5-3.9l-.6-.3"/>
      </g>
    </g>
  </g>
  <g class="st16">
    <g class="st5">
      <g class="st3">
        <path class="st2" d="M141.8,20.7s-2.8,4.5-.2,9.9c1.9,4,8,6.7,8.4,12.4,0,0,1.7-4.6-3.4-11.7-5.1-7.1-5.1-7.8-4.9-10.6"/>
      </g>
    </g>
  </g>
  <g class="st9">
    <g class="st7">
      <g class="st8">
        <path class="st2" d="M101.5,11.4s-4.2,6.6-.6,15.1c2.6,6.2,11.2,10.5,12.1,19,0,0,2.2-5.7-6.4-17.5-7.6-10.5-5.7-14.1-5.2-16.6"/>
      </g>
    </g>
  </g>
  <g class="st6">
    <path class="st19" d="M13.1,121.8c9.7-5,20.9-6.1,31.6-6.4,11.5-.3,23,.5,34.5,1.5,11.6,1.1,23.2,2.4,34.8,3.3,5.8.4,11.6.6,17.4.7,5.5,0,11,0,16.4-.6,5.5-.7,11-2.2,15.2-6,3.7-3.3,6.3-8.4,5.3-13.4-.4-2.1-3.7-1.6-3.7.5,0,4.5-1.7,8.2-5.2,11.1-3.9,3.2-9.1,4.3-13.9,4.9-11,1.3-22.1.9-33.1,0-22.3-1.6-44.6-5.2-67-4.4-11.4.4-23,1.7-32.9,7.7-.7.4,0,1.5.7,1.1Z"/>
  </g>
  <path class="st19" d="M17.4,114.5c9.8-3.6,19.9-4.4,30.3-4.5.6,0,.8-1,.1-1-10.3-1.5-21.1.9-30.6,5.1-.2,0,0,.5.2.4Z"/>
  <g class="st4">
    <path class="st19" d="M159.2,120.3c3.8-.5,7.3-2.3,9.9-5.1,1.3-1.4,2.5-3,3.3-4.7.7-1.4,1.9-3.8.9-5.3-.5-.7-1.2-.8-1.8-.2-1.1.9-1,3.1-1.4,4.5-.5,1.6-1.3,3.1-2.2,4.4-2.1,2.9-5.2,5.1-8.7,6-.2,0-.1.4,0,.3Z"/>
  </g>
  <path class="st21" d="M71.2,78.9c0,.2,0,.4-.1.7-.1.6-.4,1.2-.7,1.7-.2.2-.4.4-.6.6,0,0,0-.1,0-.2,0,0,0-.2,0-.2,0,0,0,0,0-.1,0,0,0,0,0,0h0c0,0,0-.1,0-.2,0,0,0-.1,0-.2,0,0,0,0,0-.1,0,0,0,0,0,0l-.3,1.1c-.3.3-.7.5-1.1.6h0c-.6.1-1.2.2-1.9.3-.2,0-.5,0-.8,0h-.3s0,0,0,0c0,0,0,0-.1,0h0-.5s-.8,2.8-.8,2.8c0,.2-.2.3-.4.3l-2-.4c0,0-.2,0-.2-.1,0,0,0-.2,0-.3l.3-1.2h0s0,0,.2,0h0s0,0,0,0h0s.2-.8.2-.8h0s0,0,0,0h0s2-7.5,2-7.5c0-.2.2-.2.3-.2,2.1,0,3.2,0,3.5,0,0,0,0,0,.2,0h.7c0,0,0,0,0,0,.8.2,1.4.7,1.8,1.3.4.6.5,1.4.4,2.3ZM64.7,76.2h0c0,0,0,0,0,0h0c0,0,0,0,0,0ZM65.7,80.2c.3,0,.6,0,.8,0,.6,0,1-.2,1.3-.3.2-.1.4-.3.5-.6,0,0,0-.1,0-.2,0-.3,0-.6,0-.9,0-.3-.2-.4-.5-.5,0,0-.1,0-.1,0h-1.3s-.7,2.5-.7,2.5ZM69.6,78.2h0s0,0,0,0h0s0,0,0,0ZM68.7,78.1s0,0,0,0h0s0,0,0,0c0,0,0,0,0,0h0,0ZM64.3,77.3h0c0,0,0,0,0,0h0c0,0,0,0,0,0ZM69.2,78.4h0s0,0,0,0h0s0,0,0,0ZM69.1,78.9c0,0,0-.1,0-.2v.2s0,0,0,0ZM69.1,79.2c0,0,.1,0,.1,0h0c0,0,0,0,0,0h0s0,0,0,0c0,0,0,0,0,0h.1ZM69.3,79.4c0,0,0-.1,0-.1h0s0,0,0,0c0,0,0,0,0,0h0ZM68.7,79.5h0c0,0,0,0,0,0h0s0,0,0,0h.1ZM68.6,79.7c0,0,0,0,0-.1h-.1s0,0,0,0h.1ZM68.8,79.7c0,0,.1,0,.1,0h-.1s0,0,0,0ZM70.1,80.2s0,0,0,0c0,0,0,0,0-.2,0,0,0,0,0,0,0,0,0,0,0,0h-.1s0,0,0,0c0,0,0,0,.1,0h0s0,0,0,0ZM68.7,79.8c0,0,.1,0,.2.1,0,0,0-.1,0-.1,0,0,0,0-.1,0h0ZM68.8,80h0,0c0,0,0,0,0,0h0ZM70.1,80.3v.4c0,0,0,0,0,0v-.4c0,0,0,0,0,0ZM68.4,80.4c0,0,0-.1-.2-.2l.2.2ZM68.4,81h0s.2,0,.2,0h0s-.2,0-.2,0ZM68,81.2s0,0,0,0c0,0,0,0,0,0h0c0,.1.1.1.1.1ZM67.6,81.1h0s0,0,0,0h0s0,0,0,0ZM64.1,80.5s0,0,0-.1c0,0,0,0,0,0,0,0,0,0-.1,0,0,0,0,0,0,0,0,0,.1,0,.2.1h0ZM67.6,81.2h0s0,0,0,0c0,0,0,0,0,0,0,0,0,0,0,0h0s0,0,0,0c0,0,0,0,.1,0h0c0,0-.1-.2-.1-.2ZM63.7,80.5h0c0-.1,0-.1,0-.1h0s0,.1,0,.1ZM66.1,80.9h0s0,0,0,0h0s0,0,0,0ZM63.8,80.7h.3,0c0-.1,0-.1,0-.1h-.2c0,0,0,0,0,.1t0,0h0ZM68,81.5h0c0,0,0,0,0,0h0s0,0,0,0ZM66.9,81.5s0,0,0,0h0s.1,0,.1,0h0c0,0,0,.1,0,.1h0c0,0,0,0-.1-.1h0c0,0,0,0,0,0ZM67.4,81.7s0,0,0,0h0s0,0,0,0h0s-.1,0-.1,0h.1ZM63.6,80.8h0c0,.1,0,.1,0,.1h0ZM67.1,81.7s0,0,0,0c0,0,0,0,0,0h-.1c0,0,0,.1.1.1ZM63.6,81h0s0,0,0,0h0s0,0,0,0ZM66.1,81.5h0c0,.1.1.1.1.1h-.1ZM64,81.1h0c0,0,0,.1,0,.1h0c0,0,0-.1,0-.1ZM67,81.8c0,0-.1,0-.2,0h.1s.2.1.2.1h0s0,0,0,0h0s0,0,0,0h-.1ZM67.2,82.1s0,0,0-.1c0,0,0,0,0,.1h0s0,0,0,0ZM66.8,82.2s0,0,0,0h.1v-.2s0,0,0,0h0s0,0,0,0h0s0,.2,0,.2ZM63.3,81.3h0s0,0,0,0c0,0,0,0,0,0h0c0,0,0,0,0,0ZM67.3,82.3h0c0,0,.1,0,.1,0h0s-.1,0-.1,0ZM65.8,82c0,0,0,0-.1,0h0s.1,0,.1,0h-.1ZM67,82.3s0,0,0,0h0s0,0,0,0h0c0,0-.1,0-.1,0ZM63.8,81.6h-.1s.1,0,.1,0h0ZM67.1,82.5s0,0,0,0c0,0-.1,0-.1,0h0ZM67,82.5s0,0,0,0c0,0,0,0,0,0h.1ZM63.3,81.8h0c0,0,0,0,0,0h0c0,0,0,0,0,0ZM65.5,82.4h0c0,0,0,0,0,0h0c0,0,0,0,0,0ZM63.3,82s0,0,0,.1c0,0,0,0,0,0,0,0,0,0,0,.1,0,0,0,0,0,0h0c0,0,0,.1,0,.1,0,0,0,0,0,0,0,0,0,.1,0,.1,0,0,0,0,0,0h0s0,0,0,0c0,0,0,0,0,0h0c0,0,0,0,0,0h0c0,0,0,.1,0,.1,0,.1,0,.2,0,.2,0,0,0,0,0,0h0s0,.1,0,.2c0,0,0,.1,0,.2,0,0,0,0,0,0h0c0,.3,0,.4-.1.4,0,0,0,.1,0,.2,0,0,0,0,0,.1,0,0,0,0,0,0h0c0,.1,0,.2,0,.3,0,.1,0,.2,0,.2,0,0,.1,0,.2,0h.2c0,0,.7-3.1.7-3.1ZM62.6,82.4h0c0,0-.1-.1-.1-.1h0c0,0,.1.1.1.1ZM62.5,82.7s0,0,0,0c0,0,0,0,0,0h0c0,0,0,0,.1,0ZM62.5,82.8s0,0,0,0c0,0-.1,0-.2,0h0c0,0,0,0,0,0ZM62.4,83c0,0,0,0,0-.1h0c0,0,0,0,0,.1h.1ZM63.8,83.4s0,0,0,.1v-.2s0,0,0,0ZM62.2,83.2h0c0,0,0,0,0,0h0c0,0,0,0,0,0ZM63.8,83.7h0c0,.2,0,.2,0,.2,0,0,0,0,0,0h0c0,0,0,0,0,.1s0,0,0,.1v-.6c.1,0,0,.1,0,.1ZM62.1,83.9h0s0,0,0,0h0ZM64,85.7h0s0,0,0,0h0Z"/>
  <path class="st21" d="M79.9,77.2c.1,0,.2,0,.2.1,0,0,0,.2,0,.3l-.4,1.9c0,.2-.2.3-.4.3l-4.5-.3-.3,1.3,3.4.4-.3,1.6h0s.3-1.6.3-1.6c0,0,.1,0,.2.1,0,0,0,.1,0,.2l-.3,1.7c0,.2-.1.3-.3.3h-3.6c0-.1-.3,1.2-.3,1.2l4.3.6c0,0,.2,0,.2.1,0,0,0,.2,0,.3l-.3,2c0,.2-.2.3-.4.3l-6.8-.8c0,0-.2,0-.2-.1,0,0,0-.2,0-.3.3-1.6.6-3.2,1-4.9.3-1.6.8-3.3,1.3-5.3,0-.2.2-.2.4-.2l6.7.8ZM75.2,76.8h0s0,0,0,0h0ZM76.2,77.1h0s0,0,0,0c0,0,0,0,0,0ZM76.5,77.4s0,0,0,0c0,0,0,0,0,0,0,0-.1,0-.2,0h0c0,0,0,0,0,0h0c0,0,.1,0,.1.1h0c0,0,0,0,0,0ZM78.9,77.7h0s0,0,0,0h0ZM74.3,77h.3c0,0,0,0,0,0h-.3c0,0,0,0,0,0ZM75.5,77.2h-.2s0,0,0,0h0c0,0,0,0,0,0h.1s0,0,0,0h.2s0,0,0,0ZM75,77.1h0s0,0,0,0h0s0,0,0,0ZM77.6,77.6h-.1s0,0,0,0h.1s0,0,0,0ZM75.7,77.3s0,0,0,0c0,0,0,0,0,0,0,0,0,0,0,0ZM76.8,77.6h0s0,0,0,0h0ZM74.1,77.4h0c0,.1,0,.1,0,.1,0,0,0,0,0,0,0,0,0,0,0,0h-.1ZM76.1,78c0,0,0,0,0,0h0s.1,0,.1,0h0s0,0,0,0c0,0,0,0,0,0h0c0,0-.1,0-.1,0h0s.2,0,.2,0c0,0,0,0,0,0h0ZM76.6,78.1h0s0,0,0,0h0ZM75.7,78.1h0c0,0-.1,0-.1,0,0,0,0,0,0,0h.1ZM76.3,78.3s0,0,0-.1h0c0,.1.1.1.1.1ZM77,78.5s0,0,0,0h0c0,0-.1,0-.1,0h.2ZM75.9,78.3c0,0-.1,0-.1,0,0,0,0,0,0,0h0c0,0,0,0,0,0h0s0,0,0,0h0ZM76.5,78.5s0,0,0,0c0,0,0-.1,0-.1h-.1s0,.1,0,.1h0ZM73.1,77.9h0s0,0,0,0h0s0,0,0,0ZM76.1,78.6s0,0,0,0c0,0,0,0,0-.1h0s0,0,0,0h0s0,0,0,0h0s.1,0,.1,0ZM78.6,78.9h0c0,0,0,0,0,0h0ZM76,79.2h0s0,0,0,0h0ZM74.7,79s0,0,0,0h0ZM74.4,79.8h0,0s0,0,0,0c0,0,0,0,0,0ZM74.5,80.1h0s0,0,0,0h0ZM74.5,80.8h0s0,0,0,0h0s0,0,0,0ZM74.5,81s0,0,0,0h0s0,0,0,0c0,0,0,0,0,0,0,0,0,0,.1.1,0,0,0,0,0,0h0ZM75.7,81.4h0s0,0,0,0ZM77.9,82h.1s0,0,0,0h0c0-.1,0-.1,0-.1,0,0,0,0,0,0h-.1c0,0,0,.2,0,.2ZM75.7,81.4h0,0ZM75.3,81.5h0c0,0,0,0,0,0,0,0,0,0,0,0h-.1ZM75.7,81.5h0s0,0,0,0h0s0,0,0,0ZM74.7,81.5c0,0,0,0,0,0h0ZM74.5,81.5h0c0,0,0,.1,0,.1h0c0,0,0-.1-.1-.1h0s0,0,0,0h0ZM75.2,81.7h0c0,0,.1,0,.1,0h0s0,0,0,0h0ZM74.2,81.5s0,0,0,0c0,0,0,0,0,0,0,0,0,0,0,0,0,0,0,0,.1,0h0s0,0,0,0h-.1ZM75.2,81.9h.1s0,0,0,0h0c0,0-.1,0-.1,0h0s0,0,0,0ZM74,81.8h0s0,0,0,0h0,0s0,0,0,0c0,0,0,0,0,0ZM73.8,82.1c0,0,0,0,.1,0,0,0,0,0,0,0h0s0,0,0,0c0,0,0,0,0,.1h.1ZM74,82.2c0,0-.1,0-.2,0h0s0,.1,0,.1c0,0,0,0,.1,0,0,0,.1,0,.1,0ZM73.3,82.1s0,0,0,0h0s0,0,0,0c0,0,0,0,0,0h0s0,0,0,0ZM77.6,83.3h0c0,0,0-.1,0-.1h0c0-.1,0-.2,0-.3v.4ZM73.9,82.5s0,0,.1-.1h0s0,0,0,0c0,0,0,0-.1,0h-.1s0,0,0,0c0,0,0,0,0,0,0,0,0,0,0,.1h.1s0,0,0,0ZM73.5,82.4s0,0,0,0h0s0,0,0,0h0s0,0,0,0ZM74,82.5s0,0,0,0c0,0,0,0,0,0h.1,0c0,0-.2-.1-.2-.1ZM73.5,82.4c0,0-.1,0,0,0h0c0,0,0,0,.1,0,0,0,0,0,0-.1ZM74.2,82.7h0s0,0,0,0c0,0,0,0,0,0,0,0,0,0,0,0h-.1s0,0,0,0h0s-.1,0-.1,0h0c0,0,0,0,0,0,0,0,0,0,0,0h0s0,0,0,0c0,0,.1,0,.2,0h0ZM73.6,82.7s0,0,0,0,0,0,0,.1h0c0,.1,0,.2.1.2h0s0,0,0,0v-.2s0,0,0,0h0ZM73.3,82.7s0,0,0,0c0,0,0,0,0,0,0,0,0,0,.1,0h0ZM76.9,83.4h.2s0,0,0,0h-.2s0,0,0,0ZM74.1,83s0,0,0,0h-.1s0,0,0,0ZM73.2,82.9c0,0,0,0-.1,0h0s0,0,0,0ZM73.9,83.1s0,0,.1,0c0,0,0,0,0-.1h0ZM73.5,83c0,0,0,0,0,0h.1c0,0,0,0,0,0,0,0,0,0,0,0h0ZM73.7,83.2h0c0-.1,0-.1-.1,0h0c0,0,.1,0,.1,0ZM74,83.2s0,0,0,0h0s0,0-.1,0h-.1,0c0,0,0,0,.1,0h.1ZM73.7,83.4h0s-.1,0-.1,0h0c0,0,0,0,0,0ZM73.6,83.4s0,0-.1,0h0c0,0,0,0,.1,0ZM73.4,83.4s0,0,0,0h.1c0,0,0,0,0,0h-.2ZM73.2,83.5s0,0,0,0v-.2h-.2,0ZM73.5,83.7s0,0,0,0c0,0,0,0,0,0h0c0,0,0,.1,0,.1h0ZM73.8,83.7c0,0,0,0,0,0h0ZM73,83.5s0,0,0,0h0s0,0,0,0h0s0,0,0,0ZM73.4,83.7h0c0,0,0,0,0,0h0c0,0,0,0,0,0ZM73.5,83.7s0,0,0,0h0s.1,0,.1,0c0,0,0,0,0,0h0s0,0,0,0h0ZM73.7,83.9h0s0,0,0,0h0s0,0,0,0ZM72.8,83.9s0,0,0,0c0,0,0,0,.1,0h0ZM73.1,84h0s0,0,0,0h0c0,0,0,0,0,0h0s0,0,0,0h0s0,0,0,0ZM72.7,84.2s0,0,0,0c0,0,0,0,0,0h0s0,0,0,0h0ZM73.2,84.3h0,0s0,0,0,0ZM72.9,84.4s0,0,0,0h0c0-.1,0,0-.1,0ZM74.2,85.3h.1s0,0,0,0h-.1s0,0,0,0ZM74.8,85.4c0,0,0,0,0,0,0,0,0,0,0,0h0s0,0,0,0h0s0-.1,0-.1c0,0,0,0,0,0,0,0,0,0,0,0ZM75.7,85.7h0c0,0,0,0,0,0ZM74.4,85.4h0s0,0,0,0h0s0,0,0,0ZM75.1,85.7h0s0,0,0,0c0,0,0,0,0,0h0ZM74.2,85.5h0c0,0,0,0,0,0,0,0,0,0,0,0h0ZM74.7,85.7s0,0,0,0h0c0,.1,0,.1,0,.1,0,0,0,0,0,0h0ZM75,85.7c0,0,0,0-.1,0h0s0,0,0,0h0ZM72.7,85.6h0c0,.1,0,0,0,0h0c0,0,0,0,0,0ZM73,85.6s0,0,0,0h0s0,0,0,0h0ZM73.8,85.8h0c0,0,0,0,0,0h0c0,0,0,0,0,0ZM75.4,86.1c0,0,0,0,0,0h0s0,0,0,0h-.1ZM74.8,86.1h0c0,0,0,0,0,0h0ZM74.3,86.1s0,0,0,0h0s0,0,0,0c0,0,0,0,0,0ZM72.8,86h-.1s0,0,0,0h.1s0,0,0,0ZM71.3,86.1c0,0,0,0,0-.1h-.2s0,0,0,0h.2ZM77.2,87.1h.2c0,0,0,0,0,0h-.1c0,0,0,0,0,0ZM72.3,86.2h-.2s0,0,0,0h.2s0,0,0,0ZM73.4,86.5h0c0,0,.1.1.1.1h0c0,0-.1-.1-.1-.1ZM74.3,86.7s0,0,0,.1h0c0,0,.2.1.2.1h0c0,0,0,0,0-.1h0c0-.1-.2-.1-.2-.1ZM71.8,86.4h.2s0,0,0,0h-.2s0,0,0,0ZM72.4,86.8s0,0,.1,0c0,0,0-.1,0-.2,0,0,0-.1,0-.1,0,0,0,0-.1,0,0,0,0,.2,0,.3ZM70.9,86.3s0,0,0,0,0,0,.1,0h-.2ZM71.5,86.5h0,0c0,0-.1-.1-.1-.1h0c0,0,.1.1.1.1h0c0,0,0,0,0,0h0ZM73.2,86.8c0,0-.1,0-.2,0h-.1s0,0,0,0c0,0,0,0,0,0,0,0,0,0,0,0,0,0,.1,0,.2-.1h.1ZM72.1,86.7s0,0,0,0h-.3c0,0,0,0,0,0,0,0,.2,0,.2,0h0ZM75,87.3h.1s-.1,0-.1,0h0ZM77,87.8s0,0,0,0c0,0,0,0,0,0h0ZM71.8,87h-.1s0,0,0,0h.1s0,0,0,0Z"/>
  <path class="st21" d="M88,81.5c0,.2,0,.4,0,.7,0,.6-.3,1.2-.6,1.7-.2.2-.3.5-.5.6,0,0,0-.1,0-.2,0,0,0-.2,0-.2,0,0,0,0,0-.1,0,0,0,0,0,0h0c0,0,0-.1,0-.2,0,0,0-.1,0-.2,0,0,0,0,0-.1,0,0,0,0,0,0v1.1c-.4.3-.8.6-1.2.8h0c-.6.2-1.2.4-1.8.5-.2,0-.4,0-.8,0h-.1s-.1,0-.1,0c0,0,0,0,0,0,0,0,0,0-.1,0h0-.5s-.5,2.9-.5,2.9c0,.2-.2.3-.4.3l-2-.3c0,0-.2,0-.2-.1,0,0,0-.2,0-.3l.2-1.2h0s0,0,.2,0h0s0,0,0,0h0s.1-.8.1-.8h0s0,0,0,0h0s1.3-7.6,1.3-7.6c0-.2.2-.3.3-.3,2-.2,3.2-.3,3.5-.3,0,0,0,0,.2,0s.2,0,.3,0h.4s0,0,0,0c.8.2,1.5.5,1.9,1.1.4.6.6,1.3.6,2.3ZM81.3,79.3h0c0,0,0,0,0,0h0c0,0,0,0,0,0ZM82.7,83.2c.4,0,.6,0,.8,0,.5-.1,1-.3,1.3-.5.2-.2.4-.4.5-.6,0,0,0-.1,0-.3,0-.3,0-.6-.1-.9-.1-.3-.3-.4-.6-.5,0,0-.1,0-.1,0h-1.3c0,0-.5,2.7-.5,2.7ZM86.3,80.9h0s0,0,0,0h0s0,0,0,0ZM85.4,80.9s0,0,0,0h0s0,0,0,0c0,0,0,0,0,0h0-.1ZM80.9,80.5h0c0,0,0,0,0,0h0c0,0,0,0,0,0ZM85.9,81.1h0s0,0,0,0h0s0,0,0,0ZM85.9,81.7c0,0,0-.1-.1-.2v.2s0,0,.1,0ZM85.9,82c0,0,0,0,0,0h0c0-.1,0,0,0,0h0s0,0,0,0c0,0,0,0,0,0h.1ZM86.2,82.2c0,0,0-.1,0-.1h0s0,0,0,0c0,0,0,0,0,0h0ZM85.6,82.3s0,0,0,0h-.1s0,0,0,0h.1ZM85.5,82.5c0,0,0,0,0-.1h-.1s0,0,0,0h0ZM85.7,82.5c0,0,.1,0,.1,0h-.1s0,0,0,0ZM87.1,82.9s0,0,0,0,0,0,0-.1c0,0,0,0,0,0,0,0,0,0,0,0h-.1s0,0,0,0c0,0,0,0,0,0h0s0,0,0,0ZM85.6,82.6c0,0,.2,0,.2,0,0,0-.1-.1-.1-.1,0,0,0,0-.1,0h0ZM85.7,82.7h0s.1,0,.1,0h0,0ZM87,82.9v.4s0,0,0,0v-.4s0,0,0,0ZM85.3,83.2c0,0,0-.1-.2-.2l.2.2ZM85.4,83.8h0s.2,0,.2,0h0s-.2,0-.2,0ZM85.1,84s0,0,0,0c0,0,0,0,0,0h0c0,.1.1,0,.1,0ZM84.6,84h.1s0,0,0,0h-.1s0,0,0,0ZM81.1,83.8s0,0,0-.1c0,0,0,0,0,0,0,0,0,0,0,0,0,0,0,0,0,0,0,0,.1,0,.2.1h0ZM84.7,84.1h0s0,0,0,0c0,0,0,0,0,0h0c0,0,0,0,0,0,0,0,0,0,0,0,0,0,0,0,.1,0h0c0,0-.1-.1-.1-.1ZM80.7,83.7h0c0,0,0,0,0-.1h-.1s0,.1,0,.1ZM83.1,83.9h0c0,0,0,0,0,0h0ZM80.8,83.9s0,0,.1,0h.1,0c0-.1,0-.1,0-.1h-.2c0,0,0,0,0,.1t0,0h0ZM85,84.3h0c0,0,0,0,0,0h0s0,0,0,0ZM83.9,84.4s0,0,0,0,0,0,0,0h.1s0,.1,0,.1h0s0,0,0,0c0,0,0,0-.1,0h0c0,0,0,0,0-.1ZM84.5,84.6s0,0,0,0h0s0,0,0,0h0s0,0,0,0h.1ZM80.6,84.1h0,0c0,.1,0,.1,0,.1h0ZM84.2,84.7s0,0,0,0c0,0,0,0,0,0h-.1c0,0,0,.1.1.1ZM80.6,84.3h0s0,0,0,0h0c0,0,0,0,0,0ZM83.2,84.6h0c0,.1.1.1.1.1h-.1ZM81.1,84.3h0c0,0,0,.1,0,.1h0c0,0,0-.1,0-.1ZM84,84.8c0,0,0,0-.1.1h.1s.2,0,.2,0h0s0,0,0,0h0s0,0,0,0h0s0,0,0,0h0s0-.1,0-.1ZM84.3,85s0,0,0-.1c0,0,0,0,0,.1h0s0,0,0,0ZM83.9,85.2s0,0,0,0c0,0,0,0,.1-.1h0s0,0,0-.1h0s0,0,0,0h0s0,.2,0,.2ZM80.3,84.6h0s0,0,0,0c0,0,0,0,0,0h0c0,0,0,0,0,0ZM84.4,85.2h0c0,0,.1,0,.1,0h0s-.1,0-.1,0ZM82.9,85.1c0,0-.1,0-.1,0h0c0,0,.1,0,.1,0h0ZM84.1,85.3s0,0,0,0h0s0,0,0,0h0c0,0-.1,0-.1,0ZM80.8,84.8h-.1s0,0,0,0h.1ZM84.3,85.5s0,0,0,0c0,0,0,0-.1,0h0ZM84.1,85.5s0,0,0,0c0,0,0,0-.1,0h.1ZM80.4,85h0c0,0,0,0,0,0h0c0,0,0,0,0,0ZM82.7,85.5h0c0,0,.1,0,.1,0h0c0,0-.1,0-.1,0ZM80.4,85.2s0,0,0,.1c0,0,0,0,0,0,0,0,0,0,0,.1h0c0,.1,0,.1,0,.1,0,0,0,0,0,0,0,0,0,0,0,.1,0,0,0,.1,0,.1,0,0,0,0,0,0h0s0,0,0,0c0,0,0,0,0,0h0c0,0,0,0,0,0h0c0,0,0,.1,0,.1,0,.1,0,.2,0,.2,0,0,0,0,0,0,0,0,0,0,0,0,0,0,0,.1,0,.2v.2s0,0,0,0h0c0,0,0,.1,0,.1,0,.1,0,.2,0,.3,0,0,0,.1,0,.2,0,0,0,0,0,.1,0,0,0,0,0,0h0c0,.1,0,.2,0,.3,0,.1,0,.2,0,.2,0,0,.1,0,.2,0h.2s.4-3.2.4-3.2ZM79.8,85.8h0c0,0-.1,0-.1,0h0c0,0,.1,0,.1,0ZM79.7,86s0,0-.1,0c0,0,0,0,0,0h0c0,0,0,0,.1,0ZM79.7,86.2s0,0,0,0c0,0-.1,0-.2,0h0s0,0,0,0ZM79.7,86.4c0,0,0,0,0-.1h0c0,0,0,0,0,.1h.1ZM81.1,86.7s0,0,0,.1v-.2s0,0,0,0ZM79.4,86.6h0c0,0,0,0,0,0h0c0,0,0,0,0,0ZM81,87h0c0,.1,0,.2,0,.2,0,0,0,0,0,0h0c0,.2,0,.2,0,.2v-.5c0,0,0,.1,0,.1ZM79.4,87.3h0s0,0,0,0h0ZM81.4,88.9h0s0,0,0,0h0Z"/>
  <path class="st21" d="M96.5,79c.1,0,.2,0,.3.1,0,0,0,.1,0,.2l-.2,2c0,.2-.1.3-.3.3h-4.5c0,.1-.2,1.5-.2,1.5h3.4c0,0-.1,1.7-.1,1.7h0v-1.6c.2,0,.3,0,.3.1,0,0,0,.1,0,.2v1.7c-.1.2-.2.3-.4.3l-3.6.2-.2,1.3,4.4.2c0,0,.2,0,.2.1,0,0,0,.1,0,.2l-.2,2.1c0,.2-.1.3-.3.3h-6.9c0-.2-.2-.2-.2-.3,0,0-.1-.2-.1-.3.2-1.6.3-3.3.5-5,.2-1.6.5-3.4.8-5.4,0-.2.2-.3.4-.3l6.7.2ZM91.8,79h0s0,0,0,0h0ZM92.8,79.2h0s0,0,0,0c0,0,0,0,0,0ZM93.1,79.5s0,0,0,0,0,0-.1,0c0,0-.1,0-.1,0h0c0,0,0,0,0,0h0c0,0,.1,0,.1,0h0c0,0,0,0,0,0ZM95.6,79.5h0s0,0,0,0h0ZM90.9,79.3h.4s0,0,0,0h-.4s0,0,0,0ZM92.1,79.3h-.2s0,0,0,0h0c0,0,0,0,0,0h.1s.2,0,.2,0h0ZM91.6,79.3h0s0,0,0,0h0ZM94.3,79.5h-.1s0,0,0,0h.1s0,0,0,0ZM92.4,79.5s0,0,0,0c0,0,0,0,0,0,0,0,0,0,0,0ZM93.4,79.6h-.1s0,0,0,0h0ZM90.8,79.7h0c0,.1,0,.1,0,.1,0,0,0,0,0,0h0s-.1,0-.1,0ZM92.7,80.1s0,0,0,0h0s0,0,0,0h0s0,0,0,0c0,0,0,0,0,0h0c0,0,0,0-.1.1h0s.2,0,.2,0h0ZM93.3,80.2h0s0,0,0,0h0ZM92.4,80.2h0c0,0-.1,0-.1,0,0,0,0,0,0,0h.1ZM93,80.4s0,0,0-.1h0c0,.1.1.1.1.1ZM93.7,80.4s0,0,0,0h0c0,0-.1,0-.1,0h.2ZM92.6,80.4c0,0-.1,0-.1,0,0,0,0,0-.1,0h0c0,0,0,0,0,0,0,0,0,0,0,0h0ZM93.3,80.6s0,0,0,0c0,0,0-.1,0-.1h-.1s0,.1,0,.1h0ZM89.8,80.3h0,0s0,0,0,0ZM92.9,80.6s0,0,0,0,0,0,0,0h0s0,0,0,0h0c0,0,0,0,0,0h0s.1,0,.1,0ZM95.3,80.7h0c0,0,0,0,0,0h0ZM92.8,81.3h0s0,0,0,0h0ZM91.5,81.3s0,0,0,0h0ZM91.3,82s0,0,0,0h0s0,0,0,0c0,0,0,0,0,0ZM91.4,82.4h0s0,0,0,0h0ZM91.4,83.1h0c0,0,0,0,0,0h0ZM91.4,83.3s0,0,0,0h0s0,0,0,0c0,0,0,0,0,0,0,0,0,0,.1.1,0,0,0,0,0,0h0ZM92.7,83.5h0s0,0,0,0ZM95,83.9h.2s0,0,0,0h0c0-.1,0-.1,0-.1,0,0,0,0,0,0h-.1v.2ZM92.7,83.5h0s0,0,0,0ZM92.3,83.6h0c0,0,0,0,0,0,0,0,0,0,0,0h-.1ZM92.7,83.7h0s0,0,0,0h-.1ZM91.8,83.7c0,0,0,0,0,0h0ZM91.5,83.8h0c0,0,0,.1,0,.1h0s0,0,0,0h0c0,0,0,0-.1-.1h-.1ZM92.3,83.8h0c0,0,0,0,0,0h0s0,0,0,0h0ZM91.2,83.8s0,0,0,0c0,0,0,0,0,0,0,0,0,0,0,0,0,0,0,0,.1,0h0s-.1,0-.1,0ZM92.2,84.1h.1s0,0,0,0h0c0,0-.1,0-.1,0h0c0,0,0,.1,0,.1ZM91.1,84.1h0s0,0,0,0h0s0,0,0,0h0s0,0,0,0ZM90.9,84.4c0,0,0,0,.1,0,0,0,0,0,0,0h0s0,0,0,0c0,0,0,0,0,.1h0ZM91.1,84.5c0,0-.1,0-.2,0h0s0,.1,0,.1c0,0,0,0,.1,0,0,0,.1,0,.1,0ZM90.4,84.4s0,0,0,0h.1s0,0,0,0h0s0,0,0,0ZM94.8,85.2h0c0,0,0-.1,0-.1h0c0-.1,0-.2,0-.3v.4ZM91.1,84.8s0,0,0-.2h0s0,0,0,0c0,0,0,0-.1,0h-.1c0,0,0,0,0,0,0,0,0,0,0,0,0,0,0,0,0,.1h.1s0,0,0,0ZM90.6,84.7s0,0,0,0h0s0,0,0,0h0ZM91.1,84.7s0,0,0,0h0s0,0,.1,0h0c0,0-.2,0-.2,0ZM90.6,84.7c0,0-.1,0,0,0h0c0,0,0,0,.1,0,0,0,0,0,0-.1ZM91.4,85h0s0,0,0,0c0,0,0,0,0,0,0,0,0,0,0-.1h-.1s0,0,0,0h0s-.2.1-.2.1c0,0,0,0,0,0s0,0,0,0h.1s.1,0,.2,0h0ZM90.8,85s0,0-.1,0c0,0,0,0,0,.1h0c0,.1.1.2.2.2h0s0-.3,0-.3h0s0,0,0,0ZM90.5,85s0,0,0,0c0,0,0,0,0,0,0,0,0,0,.1,0h0ZM94.1,85.4h.2s0,0,0,0h-.2s0,0,0,0ZM91.3,85.3s0,0,0,0h-.1s0,0,0,0h0ZM90.4,85.2c0,0,0,0,0,0h0s0,0,0,0ZM91.1,85.3s0,0,.1,0c0,0,0,0,0,0h0ZM90.6,85.3c0,0,0,0,0,.1h.1s0,0,0,0c0,0,0,0,0,0h0ZM90.9,85.5h0c0-.1,0,0,0,0h0c0,0,.1,0,.1,0ZM91.2,85.5s0,0,0,0h0s0,0-.1,0h0s0,0,0,0h0c0,0,0,0,.1,0h.1ZM90.9,85.7h0s-.1,0-.1,0h0c0,0,0,0,0,0ZM90.8,85.7s0,0-.1,0h0c0,0,0,0,.1,0ZM90.6,85.7s0,0,0,0h.2s0,0,0,0h-.2ZM90.4,85.8s0,0,0,0h0c0-.1-.1-.1-.1-.1h0ZM90.7,86s0,0,0,0c0,0,0,0,0,0h0c0,0,0,0,0,0h0c0,0,0,0,0,0ZM91,86c0,0,0,0,0,0h0ZM90.2,85.9s0,0,0,0h0s0,0,0,0h0s0,0,0,0ZM90.6,86h0c0,0,0,0,0,0h0c0,0,0,0,0,0ZM90.7,86.1s0,0,0,0h0s.1,0,.1,0c0,0,0,0,0,0h-.1ZM90.9,86.2h0c0,0,0,0,0,0h0ZM90,86.3s0,0,0,.1c0,0,0,0,0-.1h0ZM90.4,86.4h0,0c0,0,0,0,0,0,0,0,0,0,0,0h0c0,0,0,0,0,0ZM90,86.6s0,0,0,0c0,0,0,0,0,0h0s0,0,0,0h0ZM90.5,86.6h0,0s0,0,0,0ZM90.2,86.8s0,0,0,0h0c0-.1,0-.1,0,0ZM91.6,87.5h.1s0,0,0,0h-.1s0,0,0,0ZM92.2,87.6s0,0,0,0c0,0,0,0,0,0h0s0,0,0,0h0s0-.1,0-.1c0,0,0,0,0,0,0,0,0,0,0,0ZM93.1,87.7h0c0,0,0,0,0,0ZM91.8,87.6h0s0,0,0,0h0ZM92.5,87.8h0s0,0,0,0c0,0,0,0,0,0h0ZM91.6,87.7h0c0,0,0,0,0,0,0,0,0,0,0,0h0ZM92.1,87.8s0,0,0,0h0c0,.1,0,.1,0,.1,0,0,0,0,0,0h0ZM92.4,87.9c0,0,0,0,0,0h0s0,0,0,0h0ZM90.1,87.9h0c0,.1,0,0,0,0h0s0,0,0,0ZM90.4,88s0,0,0,0h0s0,0,0,0h-.1ZM91.3,88.1h0c0,.1,0,.1,0,.1h0c0,0,0-.1,0-.1ZM92.8,88.3c0,0,0,0,0,0h0c0,0,0,0,0,0h-.1ZM92.3,88.2h0c0,0,0,0,0,0h0ZM91.7,88.3h0s0,0,0,0h0,0c0,0,0,0,0,0ZM90.3,88.4h-.2c0,0,.1,0,.1,0h0ZM88.8,88.6c0,0,0,0,0-.1h-.2s0,0,0,0h.2ZM94.7,89h.2c0,0,0,0,0,0h-.1c0,0,0,0,0,0ZM89.9,88.7h-.2s0,0,0,0h.2s0,0,0,0ZM90.9,88.8h0c0,0,.1.1.1.1h0c0,0-.1-.1-.1-.1ZM91.8,88.9s0,0,0,.1h0c0,0,.2,0,.2,0h0c0,0,0,0,0-.1h0c0-.1-.2-.1-.2-.1ZM89.3,88.8h.2c0,0-.2,0-.2,0h0ZM90,89.2s0,0,0,0c0,0,0,0,0-.1,0,0,0-.1,0-.2,0,0,0,0-.1,0,0,0,0,.2,0,.3ZM88.4,88.8s0,0,0,0,0,0,.1,0h-.2ZM89,89h0c0,0-.1-.1-.1-.1h0c0,0,.1.1.1.1h0c0,0,0,0,0,0h0ZM90.7,89.1c0,0-.1,0-.2,0h-.1s0,0,0,0c0,0,0,0,0,0,0,0,0,0,0,0,0,0,.1,0,.2-.1h0ZM89.6,89.2s0,0,0,0h-.3s0,.1,0,.1c0,0,.2,0,.2,0h0ZM92.6,89.4h.1s-.1,0-.1,0h0ZM94.6,89.8s0,0,0,0c0,0,0,0,0,0h0ZM89.4,89.4h-.2c0,0,.1,0,.1,0h0Z"/>
  <path class="st21" d="M109.8,82.4c0,.2,0,.4,0,.7,0,.6-.1,1.2-.4,1.8-.1.3-.3.5-.4.7,0,0,0-.1,0-.2s0-.2,0-.2h0c0-.2,0-.2,0-.2h0v-.2c0,0,0-.1,0-.2,0,0,0,0,0,0,0,0,0,0,0,0v1.1c-.3.4-.6.7-1,.9h0c-.5.3-1.1.5-1.8.7-.2,0-.4.1-.8.2h-.1s-.1,0-.1,0h0s0,0,0,0c0,0,0,0,0,0h0-.5c0,0-.1,3-.1,3,0,.2-.1.3-.3.3h-2c0,0-.2,0-.2,0,0,0-.1-.2-.1-.3v-1.2c0,0,.1,0,.1,0,0,0,0,0,.2-.1h0s0,0,0,0h0s0-.8,0-.8h0s0,0,0,0h0s.3-7.8.3-7.8c0-.2.1-.3.3-.3,2-.4,3.1-.6,3.4-.7h.2c0,0,.2,0,.3,0h.5c.8,0,1.5.3,2,.9.5.5.8,1.3.9,2.1ZM102.9,81.1h0c0,0,0,0,0,0h0c0,0,0,0,0,0ZM104.7,84.8c.3,0,.6,0,.8-.1.5-.2.9-.4,1.2-.6.2-.2.3-.4.4-.7,0,0,0-.1,0-.3,0-.3,0-.6-.2-.9-.1-.3-.3-.4-.6-.4s-.1,0-.1,0l-1.3.3v2.6ZM108.1,82h0s0,0,0,0h0s0,0,0,0ZM107.2,82.1s0,0,0,0h0s0,0,0,0,0,0,0,0h0-.1ZM102.7,82.3h0c0,0,0,0,0,0h0c0,0,0,0,0,0ZM107.7,82.3h0s0,0,0,0h0s0,0,0,0ZM107.8,82.8c0,0,0-.1-.1-.1v.2s0,0,.1,0ZM107.8,83.1c0,0,0,0,0,0h0c0,0,0,0,0,0,0,0,0,0,0,0h0s0,0,0,0h.1ZM108.1,83.3c0,0,0-.1,0-.1h0s0,0,0,0c0,0,0,0,0,0h0ZM107.5,83.5s0,0,0,0h-.1c0,0,.1,0,.1,0ZM107.5,83.7s0,0,0-.1h-.1c0,0,0,0,0,.1h.1ZM107.7,83.7c0,0,.1,0,.1,0h-.1ZM109.1,83.9s0,0,0,0,0,0,0-.1c0,0,0,0,0,0,0,0,0,0,0,0h-.1s0,0,0,0c0,0,0,0,.1,0h0s0,0,0,0ZM107.6,83.8c0,0,.2,0,.2,0,0,0-.1,0-.1,0,0,0,0,0-.1,0h0ZM107.7,83.9h0s.1,0,.1,0h0s0,0,0,0ZM109,84v.4h0v-.4h0ZM107.4,84.4c0,0-.1-.1-.2-.1h.2ZM107.5,85h0s.2,0,.2,0h0s-.2,0-.2,0ZM107.2,85.3s0,0,0,0c0,0,0,0,0,0h0c0,.1.1,0,.1,0ZM106.8,85.3h.1s-.1,0-.1,0h0ZM103.2,85.5s0,0,0,0c0,0,0,0,0,0,0,0,0,0,0,0,0,0,0,0,0,0,0,0,.1,0,.2,0h0ZM106.9,85.4s0,0,0,0h0s0,0,0,0h0c0,0,0,0,0,0,0,0,0,0,0,0,0,0,0,0,.1,0h0c0,0-.1-.1-.1-.1ZM102.9,85.5h0c0-.1,0-.1,0-.1h0s0,.1,0,.1ZM105.2,85.4h0c0,0,0,0,0,0h0ZM102.9,85.7s0,0,.1,0c0,0,.1,0,.1,0h0c0,0,0-.1,0-.1,0,0,0,0-.1,0h0c0,0,0,0,0,.1t0,0h0ZM107.2,85.6h0c0,0,0,0,0,0h0c0,0,0,0,0,0ZM106.1,85.8s0,0,0,0,0,0,0,0h.1c0,.1,0,.1,0,.1h0c0,0,0,0-.1,0h0c0,0,0,0,0-.1ZM106.7,85.9s0,0,0,0h0s0,0,0,0h0s0,0,0,0h.1ZM102.8,85.9h0,0c0,.1,0,.1,0,.1h0ZM106.5,86s0,0,0,0c0,0,0,0,0,0h-.1c0,0,0,.1.1.1ZM102.9,86h0s0,0,0,0h0c0,0,0,0,0,0ZM105.4,86h0c0,.1.1,0,.1,0h-.1ZM103.3,86h0c0,0,0,0,0,0h0c0,0,0,0,0,0ZM106.3,86.1c0,0-.1,0-.1.1h.4s0,0,0,0h0s0,0,0,0h0s0,0,0,0h0ZM106.6,86.4s0,0,0-.1c0,0,0,0,0,.1h.1ZM106.2,86.5s0,0,0,0c0,0,0-.1,0-.1h0c0,0,0,0,0-.1h0s0,0,0,0h0v.2ZM102.6,86.4h0,0s0,0,0,0h0c0,0,0,0,0,0ZM106.7,86.5h0c0,0,.1,0,.1,0h0s-.1,0-.1,0ZM105.2,86.6c0,0,0,0,0,.1h0s.1,0,.1,0h-.1ZM106.5,86.6s0,0,0,0h0s0,0,0,0h0c0,0-.1,0-.1,0ZM103.1,86.6h-.1c0,0,.1,0,.1,0h0ZM106.6,86.8s0,0,0,0c0,0,0,0,0,0h0ZM106.5,86.8s0,0,0,0c0,0,0,0,0,0h.1ZM102.7,86.9h0c0,0,0,0,0,0h0c0,0,0,0,0,0ZM105.1,87h0c0,0,.1,0,.1,0h0c0,0-.1,0-.1,0ZM102.7,87s0,0,0,.1c0,0,0,0,0,0,0,0,0,0,0,.1h0c0,.1,0,.1,0,.1,0,0,0,0,0,0,0,0,0,0,0,.1,0,0,0,.1,0,.1h0c0,0,0,0,0,.1,0,0,0,0,0,0h0c0,0,0,0,0,0h0c0,0,0,.1,0,.1,0,.1,0,.2,0,.2,0,0,0,0,0,0,0,0,0,0,0,0,0,0,0,.1,0,.2s0,.1,0,.2c0,0,0,0,0,0h0c0,.3,0,.4,0,.4,0,0,0,.1,0,.2h0c0,.2,0,.2,0,.2h0c0,.1,0,.2,0,.3,0,.1,0,.2,0,.2,0,0,.1,0,.2,0h.2s0-3.3,0-3.3ZM102.2,87.6h0c0,0-.1,0-.1,0h0c0,0,.1,0,.1,0ZM102.2,87.9s0,0-.1,0,0,0,0,0h0s0,0,.1,0ZM102.1,88.1s0,0,0,0c0,0-.1,0-.2,0h0s0,0,0,0ZM102.1,88.2c0,0,0,0,0-.1h0c0,0,0,0,0,.1h.1ZM103.6,88.4s0,0,0,.1v-.2h0ZM102,88.5h0c0,0,0,0,0,0h0c0,0,0,0,0,0ZM103.6,88.7h0c0,.1,0,.2,0,.2,0,0,0,0,0,0h0c0,.2,0,.2,0,.2v-.6s0,.2,0,.2ZM102,89.2h0s0,0,0,0h0ZM104.2,90.5h0s0,0,0,0h0Z"/>
  <path class="st21" d="M113.5,79c0,0,.2,0,.3.1,0,0,.1.1.1.2,0,1.9-.2,3.7-.2,5.4,0,.8,0,1.4,0,1.8h0c0,0,0,0-.1,0h0c0,.1,0,.1,0,.1,0,0,0,.1-.2.2.1,0,.2,0,.3,0v.5s0,0,0,0h0s0,0,0,0h0c0,.1,0,.2,0,.2s0,0,0,.1h0s.1-.1.1-.1c0,0,0,0,0,0h0s0,0,0,0c0,.1,0,.3,0,.7,0,0,0,0,0,0,0,0,0,0,0,0h0s0,0,0,0h0s0,.6,0,.6c0,0,0,0,0-.1h-.1s0,0,0,0h0s0,0,0,0h0s0,0,.1,0v1.1c0,.2,0,.3-.3.4h-2.4c0,.1-.2,0-.3,0,0,0-.1-.2-.1-.3,0-2.4,0-4.1,0-5.3,0-1.4,0-2.5,0-3.1h0c0,0,0,0,0,0v-2.2c0-.2.2-.3.4-.3h2.2ZM111.8,79.5s0,0,0,0c0,0,.1,0,.2,0,0,0,0,.1.1.1,0,0,0,0,0-.1,0,0,0,0,0,0h.2s0,0,0,0c0,0,0,0-.1,0h-.1c0,0,0,0,0,0,0,0,0,0-.1,0h0s-.2,0-.2,0c0,0,0,0,0,0h0s0,0,0,0c0,0,0,0,0,0h0c0,0,0,0,0,0,0,0,0,0,0,0,0,0,0,0,0,0h-.1s0,0,0,0c0,0,0,0,0,0,0,0,0,0,0,0,0,0,0,.1,0,.1,0,0,0,0,0,.2h0c0,.1,0,.3,0,.3,0,0,0,0,0,0,0,0,0,0,0,0,0,0,0,0,0,0,0,0,0,0,0,0,0,0,0,0,0,.1,0,0,0,0,0,0,0,.1,0,.2,0,.3v.2s0,0,0,0h0c0,0,.1,0,.2,0h0c0-.2,0-.2-.1-.2,0,0,0,0,0-.1h.1s.1,0,.1,0c0,0,0,0,0,0,0,0,0,0,.1-.1,0,0,0,0,0,0h0c0,0,.1-.1.1-.1,0,0,0,0,0,0h0c0-.1,0-.1.1-.1h.2c-.1,0-.2,0-.2,0s0,0,0,0c0,0,.1,0,.1,0,0,0,0,0,0-.1,0,0,0,0,0,0,0,0,0,0,0,0,0,0,0,0,0-.1,0,0,0,0,0,0,0,0,0,0,0,0ZM111.9,80s0,0,0,0c0,0,.2,0,.2,0h0c0-.1,0-.1,0-.1,0,0,0,0,0,0,0,0,0,0,0,.1,0,0,0,0-.1,0ZM111.3,81.7c0,0,0-.1,0-.2,0,0,0,0,0-.1,0,0,0,0,.1,0,0,0,0-.1-.1-.1,0,0-.1,0-.2,0,0,0,0,0,0,0,0,0,0,0,0,0,0,0,0,0,0,0,0,0,0,0,0,0h0c0,.1,0,.2,0,.2,0,0,0,0,0,.1,0,0,0,0,0,0h0s0,0,0,0c0,0,0,0,0,0v1.1c-.1,0-.2,0-.1,0s0,0,.1,0c0,0,0,0,0,0h0c0,.2,0,.2,0,.2h0s0,.1,0,.1v.7c0,0,0,0,0,.1s0,0,0,.1c0,0,0,0,0,0,0,0,0,0,0,0h0c0,.1,0,.1,0,.2,0,0,.1,0,.1.1,0,0,0,0,0,0,0,0,0,0,0,0,0,.1,0,.2-.1.2,0,0,.1,0,.1,0h0s0,0,0,0c0,0,0,.1-.1.1,0,0,0,0,0,0s0,0,0,0c0,0,0,0,0,0h0s0,0,0,.1h0c0,.1,0,.1,0,.2,0,0,0,0,0,0,0,0,0,0,0,0h0s0,.1,0,.1c0,0,0,0,0,0s0,0,0,0c0,0,0,0,0,.1,0,0,0,0,0,0h0s.1,0,.1,0c0,0,0,0,0,0,0,0,0,0,0,0,0,0,.1,0,.1,0,0,0,0,0,0-.2,0,0,0-.2,0-.2s0,0,0,0c0,0,0,0,0-.2h0c0-.2,0-.2,0-.2,0,0,0,0,0-.1h0c0-.1,0-.2,0-.3,0,0,0-.1,0-.1,0,0,0-.1,0-.1h0s0,0,0,0c0,0,0,0,0,0h.1c0-.2,0-.2,0-.2h0c0-.2,0-.3,0-.4h.1c0,0-.1,0-.1,0s0,0,0-.2c0,0,0-.1,0-.2v-.2s0,0,0,0c0,0,0,0,0-.1h0v-.2c0-.1,0-.2,0-.1,0,0,0,0,0-.2h0c0,0,0-.1,0-.2,0-.1,0-.2,0-.2,0,0,0,0,0,0,0,0,0-.1,0-.2s0-.2,0-.2c0,0-.1-.1,0-.1h0c0-.1,0-.2,0-.2ZM112.9,81.7h0c0,0,.1,0,.1,0h0ZM113.2,81.9h.1c0-.1,0-.1,0-.1,0,0,0,0,0,0h0ZM113.5,83.3s0,0,0,0h0s0,0,0,0h0s0,0,0,0h0s0,0,0,0c0,0,0,0,0,0h0ZM113.3,83.8c0,0-.1,0-.2,0,0,0,0,0,0,.1h.1ZM113.1,84.3h0s0,0,0,0h0s0,0,0,0ZM112.6,84.4h0c0-.1-.1,0-.1,0h.1ZM113.2,84.5h0s-.1,0-.1,0h0c0,.1,0,.1.1.1h0s0,0,0,0c0,0,0,0,0,0h0ZM112.9,84.7h0c0,0,0,0,0-.1,0,0,0,0,0,0h0c0,0,0,.2,0,.2ZM112.7,84.9h0s0,.1,0,.1h0c0,0,0,0,0,0,0,0,0,0,0,0s0,0,0,0c0,0,0,0,0,0h0ZM113.2,85.2h0s-.1,0-.1,0h0s.1,0,.1,0ZM113,85.4s0,0,0,0h-.1c0,0,.1,0,.1,0h0ZM113.3,85.7c0,0-.1,0-.1,0,0,0,0,0,0,.1h0s0,0,0,0h0ZM113.5,85.9c0,0,0,0-.1,0,0,0,0,0,0,0h0c0,0,.1,0,.1,0ZM113.1,86.1s0,0-.1,0c0,0,0,0-.1,0h0c0,0,0,0,0,0h0s.1,0,.1,0h0c0,0,.1,0,.1,0,0,0,0,0,0,0h0s0-.1,0-.1h-.2c0,0,0,.1,0,.1h.1ZM112.9,86.3s0,0,0,0h0s0,0-.1,0h0c0,0,0,0,0,0h0s0,0,0,0h0c0,0,0,0,0,0,0,0,0,0,0,0h.1c0,0,0-.1-.1-.1ZM112.8,86.5h0s0,0,0,0h.1c0,0,0,0-.2,0,0,0,0,0,0,0ZM111.1,86.6c0,0,0,.1,0,.1,0,0,0,0,0,0v.6s0,0,0-.1h0c0-.2,0-.2,0-.2,0,0,0,0,0-.1,0,0,0,0,0,0v-.2ZM113.1,86.7h0s0,0,0,0h0c0,0,0,0,0,0h0s0,0,0,0h0s-.1,0-.1,0h0s0,0,0,0h0ZM112.8,86.7h0s0,0,0,0h0c0,0,0,0,0,0ZM113.7,86.7v.2s0,0,0,0h0s0,0,0,0h0c0,0,0,0,0,0ZM112.9,86.8s0,0-.1,0h0s0,0,.1,0c0,0,0,0,0,0ZM112.6,87.1s0,0,0,0,0,0,0,0h0c0-.1,0-.1,0-.1,0,0,0,0,0,0,0,0,0,0,0,0h-.1s0,0,0,0c0,0,0,0,0,0h0ZM113.1,87h-.3c0,0,.3,0,.3,0ZM112.4,87.4s0,0,.1,0h0c0-.1-.1-.1-.1-.1h0ZM113.1,87.4s0,0,0-.1c0,0,0,0-.1,0h0c0,0,0,0,0,0s0,0,0,0h.1ZM113.5,87.4s0,0,0,0c0,0,0,0,0,.1,0,0,.1,0,.1,0h0ZM110.9,87.7c0,0,0,0,0,0,0,0,0-.1,0-.1,0,0,0,0,0,.1ZM112.6,87.8s0,0,0,0h0s0,0,0,0h-.2s0,0,0,0c0,0,0,0,0,0ZM112.5,87.7h-.2s.2,0,.2,0h0ZM112.9,87.8h0c0,0,0,0,0,0h0ZM112.7,88h0s0,0,.2,0c0,0,0,0,0,0h.1s0,0,0,0h-.1s0,0,0,0h0c0,0,0,0,0,0,0,0,0,0,0,0h0s0,0,0,0ZM113.5,88h0s0,0,0,0h0c0,0,.1,0,.1,0h-.1s-.1,0-.1,0ZM112.4,88h0c0,0,0,.1.1.1h0s0,0,0,0h0s-.2,0-.2,0ZM113.2,88h.1s-.1,0-.1,0h0ZM112.7,88.1s0,0,0,0h.2s0,0,0,0h-.1s0,0,0,0ZM113.4,88.1h0s-.1,0-.1,0h0c0,.1.1,0,.1,0h0c0,0,0,0,0,0ZM113.1,88.3h0c0,0-.1,0-.2,0,0,0,0,0,0,0h.1ZM112.3,88.3h.1c0,0-.1,0-.1,0h0ZM113,88.4h0s.1,0,.1,0h0s-.1,0-.1,0ZM113.4,88.5c0,0,0,0,0-.1h0s0,0,0,0c0,0,0,0,0,0h0ZM112.4,88.6s0,0,0,0h.1s0,0,0,0h0s0,0,0,0h0s0,0,0,0h0c0,0-.1,0-.1,0,0,0,0,0,0,0h0s0,0,0,0h0ZM113.3,88.7s0,0,.1,0,0,0,0,0h0c0-.1,0-.1,0-.2,0,0,0,0,0,0,0,0,0,0,0,0h0s0,0,0,0c0,0,0,0,0,.1ZM111,88.8h0c0,0,0,.1,0,.1h0ZM113.2,88.8h0s0,0,0,0h0s0,0,0,0ZM112.9,88.9c0,0,.1,0,.2,0,0,0,0,0,0-.1h0c0,0-.1,0-.2,0h0ZM113,88.9c0,0,0,0,0,.1h0s0,0,0,0h0s0,0,0,0v-.2s0,0-.1,0ZM113.3,89.1s0,0,0,0h.1s0,0,0,0h-.1s0,0-.1,0h0c0,0,0,0,0,0ZM112.7,89.1h-.1c0,0,.1,0,.1,0h0ZM113.5,89.3s0,0-.1,0,0,0,0,0h.1c0,0,.2,0,.2-.2h-.1ZM113.3,89.3h-.1s0,0,0,0h0c0,0,0,0,0,.1h0c0,0,.1,0,.1,0h0c0,.1,0,.1,0,.1h.1s0,0,0,0v-.2h0s0,0,0,0h0ZM113.4,89.6s0,0,.1,0c0,0,0,0-.2,0h0ZM113.6,89.5h-.1s0,.1,0,.1h.1s0,0,0,0h0Z"/>
  <path class="st21" d="M121.6,80c.3.5.5,1,.5,1.6v.3c0,.4,0,.8-.1,1.3,0,.2-.1.2-.3.3h-2.3c0,.2-.2.1-.3,0,0,0-.1-.1-.1-.2,0,0,0,0,0-.1l.2-.9c0-.4,0-.6,0-.7,0-.1,0-.2,0-.3,0-.1-.2-.2-.3-.2-.4,0-.7.3-.9.8-.3.5-.5,1.1-.6,1.8-.1.7-.1,1.4-.1,2,0,.5.1,1,.3,1.5.2.4.4.7.8.7.4,0,.7-.2,1.1-.6,0,0,0-.1.2-.3l.2-.3c.2-.3.4-.7.6-1.1,0,0,.1-.2.3-.2,0,0,.2,0,.3.1l1,.9c0,0,0,.1.1.2,0,0,0,.1,0,.1-.4.9-.8,1.6-1.1,2-.8.9-1.7,1.4-2.7,1.5-.4,0-.8,0-1.2,0-.8-.2-1.4-.6-2-1.4-.5-.8-.8-1.8-.9-2.9-.2-2.2.4-4.1,1.7-5.7.7-.9,1.6-1.3,2.8-1.4.1,0,.3,0,.6,0,.5,0,.9.1,1.4.3.4.2.7.5,1,.9ZM119.4,78.9c0,0,0,0,0,.1,0,0,.1,0,.1,0s0,0,.1,0c0,0,0,0,.1,0h0s0,0-.1,0h-.1ZM119.6,79.3s0,0,0,0c0,0,0,0,.1,0,0,0,0,0,0,0h0c0,0,0,0,.1-.1,0,0,0,0-.1,0h0s0,0,0,0h0c0,0,0,.1-.1.1,0,0,0,0,0,0,0,0,0,0,0,0h0s0,0,0,0c0,0,0,0,0,0,0,0,0,0,0,0,0,0-.1,0-.2.1,0,0,0,0,0,0h.2c0,0,0,0,0,0,0,0,0,0,0,0ZM117.7,79.2h0c0,0-.3,0-.3,0,0,0,0,0,.1,0,0,0,0,0,0,0h0s0,0,0,0c0,0,0,0,0,0h0ZM118.1,79.2h0c0,0-.1,0-.1,0h0c0,0,0,0,0,0ZM120.1,79.1h0s0,0,0,0h0s0,0,0,0ZM118.2,79.4h0c0,0,0,0,0-.1h0s0,0,0,0,0,0,0,0h0ZM119.2,79.3c0,0,0,0,0,0h0c0,0,0,0,0-.1,0,0,0,0,0,0ZM118.2,79.5s0,0,0,0h0s0,0,0,0c0,0,0,0,0,0h0s0,0,0,0h0ZM118.1,79.9h0s0,0,0,0h0s0,0,0,0ZM119.5,80.2s0,0,0,0c0,0,0,0,0,0h0ZM119.3,80.4v.2h.1v-.2h-.1ZM118.5,80.7h0c0,.1,0,.2,0,.2h.1c0,0,0,0,0,0h0c0-.1-.1-.1-.1-.1ZM120.2,81s0,0-.1,0v.2h0c0,0,0,0,0,0h0ZM120.7,81.1h0s0,0,0,0c0,0,0,0,0,0h0s-.2,0-.2,0h0c0,0,.2,0,.2,0ZM120.5,81.3c0,0,0,.1.1.1h0s0,0,0,0c0,0,0,0,0,0h0c0-.1,0-.2,0-.2h0s0,0-.1,0,0,0,0,0c0,0,0,0,0,0ZM117.1,81.5h0s0,0,0,0h0ZM120.3,81.5s0,0-.2-.1h0c0,0,0,0,0,0h0s0,0,0,0h0c0,.1,0,.1,0,.1h.2s.1-.1.1-.1ZM120.8,81.6h0c0,0,0,0-.1,0h0c0,0,0,.1,0,.1h0c0,0,.1,0,.1.1h0c0-.1,0-.1,0-.1h0s0,0,0,0c0,0,0,0,0,0h0s0,0,0,0ZM116.5,82h0s0,0,0,0h0s0,0,0,0ZM116.3,82.4s0,0,0-.1c0,0,0-.1-.1-.2,0,0,0,0,0-.1,0,0,0,0,0,.1s0,0,0,0c0,0,0,0,.1,0,0,0,0,0,0,.1h0c0,.1,0,.2,0,.2h0s0,0,0,0c0,0,0,0,0,0,0,0,0,0,0,0,0,0,0,0,0,0h0ZM116.4,82.1s0,0,0,0h0s0,0,0,0h.1ZM116.5,82.1h0s0,0,0,0h0ZM115.6,82.4s0,0,.1,0h0c0,0-.1-.1-.1-.1h0ZM115.4,82.6s0,0,0,0h0-.2ZM115.6,82.6c0,0,.2,0,.2,0,0,0,0,0,0-.1h-.3ZM116.1,82.6h0s0,0,0,0h0s0,0,0,0ZM117.5,82.6h0s0,0,0,0h0s0,0,0,0ZM121,82.4h0,0s0,0,0,0h0ZM115.6,82.9s0,0,0,0h-.1c0,0,0,.1.1.2,0,0,0,0,0-.1,0,0,0,0,0,0ZM116.1,83.1c-.2-.1-.3-.2-.3-.1h0s0,0,0,0,0,0,0,0h0s0,0,0,0h0s0,0,0,0h0c0,0,0,0,0,0,0,0,0,0,.1,0,0,0,0,0,.1,0h0s0,0,0,0h0ZM115.4,83.2s0,0-.1,0c0,0,0,0,0,0,0,0,0,0,0,0ZM115.1,83.2h0s0,0,0,0h0s0,0,0,0ZM116.2,83.3s0,0,0-.2c0,0,0,.1,0,.1,0,0,0,0,0,.1h0s0,0,0,0ZM115.9,83.2h0s.1,0,.1,0h0s-.1,0-.1,0ZM115.6,83.6s0,0,0,0h0c0-.1,0-.1,0-.1h0c0,.1,0,.2,0,.2ZM115.1,83.7c0,0,.1,0,.1-.1h0c0,0-.1,0-.1,0h0ZM115.7,83.6h0c0,0,0,0,0,0h0c0,0,0,0,0,0ZM115.5,83.9h0s0,0,0,0h0s0,0,0,0h0c0,0,0,0,0,0ZM115.5,84.2s0,0,0,0h-.1,0c0,0,.1.1.2.1h0c0,0,0-.1,0-.1ZM115.6,84.3s0,0,0,0h0s0,0,0,0h0ZM116.3,84.7c0,0,0-.1,0-.2h0c0,0,0,0,0,0s0,0,0,.1h0ZM114.3,85.4h0v.2h0c0,0,0,0,0,0h0c0-.1-.1-.1-.1-.1ZM120.8,85.7s0,0,0,0c0,0,0,0,0,0,0,0,0,0,0,0h-.1s0,0,0,0h0ZM115,87.4h0s-.1,0-.1,0h0c0,.1,0,.1,0,.1h0s0,0,0,0h.1ZM116.1,87.5h0c0,.1,0,.1,0,.1h0c0-.1,0-.1,0-.1ZM119.6,89.6v-.2c0,0,0,0,0,0v.2c-.1,0,0,0,0,0ZM117.9,89.8c0,0,0,0,0,.1h.1c0,0,0-.1,0-.1Z"/>
  <path class="st21" d="M132.8,88.4c0,0,0,.2,0,.3,0,0-.1.1-.2.1l-2.4.3c-.2,0-.3,0-.4-.3l-.4-2-2.4.8-.2,1.5c0,.2-.1.3-.3.3l-2.4.2c-.1,0-.2,0-.3,0,0,0,0-.2,0-.3.1-1.1.4-2.4.6-4,.2-.8.4-1.8.6-2.9.3-1,.6-2.3,1.1-3.9,0,0,0-.2.2-.2h.4c.3-.2.5-.3.7-.4,0,0,.3,0,.5,0,.2,0,.4,0,.5,0,.5,0,1,.3,1.4,1,.1.3.3.6.5,1.1.2.6.4,1.2.6,1.8l2.1,6.6h0ZM126.5,78.8h0c0,0,0,0,0,0h0c0,0,0,0,0,0ZM128.5,79h0c0-.1,0-.1,0-.1h0c0,.1,0,.1,0,.1ZM128.4,79.3s0,0,0-.1c0,0,0,0,0,0h0c0,.1,0,.1,0,.1ZM126.5,79.5v.2s0-.1,0-.2h0ZM128.7,79.3s0,0,0,0h-.2c0,0,0,0,0,.1h.1ZM128.5,79.3h0s0,0,0,0h0s0,0,0,0ZM128.9,79.4s0,0-.1.1h0s.2,0,.2,0h0c0,0,0,0,0-.1h0c0,0-.1,0-.1,0ZM128.9,79.8s0,0,0,0c0,0,0,0,0,0s0,0,0,0c0,0,0,0,0,0h0c0,0-.1,0-.2,0ZM127.6,80.1h0c0,0,0,0,0,0h0s0,0,0,0ZM127.8,80.3h0s0,0,0,0c0,0,0,0,0,0,0,0,0,0,0,0,0,0,0,0,0,0h-.1s0,0,0,0ZM129.2,80.3h0c0,0,0,0,0,.1s0,0,0,0h.1s0,0,0,0c0,0,0,0-.1,0ZM125.7,81.4s0,0,0,0c0,0,0,0,0,0,0,0,0,0,0,.1,0,0,0,0,0,0,0,0,0,0,0-.1,0,0,0-.1,0-.1ZM126.9,81.5h0c0,0,0,0,0,0h0s0,0,0,0h0ZM125.8,82h0v-.2s0,0,0,0v.2ZM127.7,81.7c0,0-.2,0-.2.1,0,0,0,.1.1.1,0,0,0,0,.1,0h0c0-.1,0-.2,0-.2,0,0,0,0,0,0h0ZM129.4,81.5h.1s0,0,0,0h-.1s0,0,0,0ZM129.6,81.8c0,0,0,0-.1,0h0c0,0,.1,0,.1,0ZM128.4,83.7c0-.3-.2-.6-.2-.8-.1-.4-.3-.8-.3-1l-.5,2.7,1.2-.2-.2-.8ZM127.5,82.3h0s0-.1,0-.1h0s0,.1,0,.1ZM129.1,82.1h0s0,0,0,0h0s0,0,0,0ZM127.2,83.3s0,0,0-.1h0v-.6c.1,0,0,0,0,0h0c0,.1,0,.2,0,.2,0,.2,0,.3,0,.3,0,0,0,.1,0,.1,0,0,0,0,0,0,0,0,0,0,0,.1v.4c0,0-.1.3-.1.3,0,0,0,.2-.1.3,0,0,0,.2-.1.2h0c0,.2,0,.2,0,.3,0,0,0,.1,0,.2,0,0,0,.2,0,.2,0,0,0,.1,0,.1,0,0,0,0,0,0,0,0,0,0,0,0,0-.1,0-.2,0-.3,0,0,0-.2,0-.3,0,0,0,0,0-.1v-.2c0,0,0-.1.1-.3,0-.1,0-.3.1-.5v-.2ZM129.4,82.6h0s-.1,0-.1,0h0c0,0,0,0,0,0h0ZM129.8,82.7h-.1s0,0,0,0h.1s0,0,0,0ZM129,82.9s0,0,0,0c0,0,0,0,0,0h0ZM129.9,83.3c0,0,0,0,0,0h0ZM128.9,83.5s0,0,0,0h0s0,0,0,0h.1ZM129.5,83.6c0,0,0-.1-.2-.1,0,0,0,0,0,.1h.1s0,0,0,.1h.1c0,0,0,0,0,0ZM129.9,83.5c0,0,0,0,0,0h0s0,0,0,0c0,0,0,0,0,0h0ZM129.7,83.5s0,0,0,0h0c0,0,0,0,0,0h0ZM129.9,83.6s0,0,0,0c0,0,.1,0,.1,0,0,0,0,0-.1,0h-.1ZM129.5,83.9h.2c0-.1,0-.1,0-.1,0,0,0,0,0,0,0,0,0,0,0,.1ZM128.8,83.9h0s.1,0,.1,0h0s-.1,0-.1,0ZM130.2,83.8s0,0,0,0h-.1c0,0,0,0-.1.1s0,0,0,0c0,0,0,.1.2.3h.2s0,0,0,0c0,0,0,0-.1,0s0,0-.2,0c0,0,.1,0,.1,0,0,0,0,0,0-.1ZM126.3,84.3h0c0,.2,0,.2,0,.2,0,0,0,0,0-.1h0c0-.1,0-.1,0-.1ZM129.5,84h0s-.1,0-.1,0h0c0,0,0,.1,0,.1h0s0,0,0,0h0ZM129.7,84h0v.2c0,0,.1-.1.1-.2h0ZM129.4,84.1s0,0,0,0h0,0c0,0,0,0,0,0h.1s0,0,0,0c0,0,0,0,0,0h-.2ZM129.2,84.4h0s0,0,0,0h0c0,0,0,0,0,0ZM129.5,84.6s0,0,0,0h-.1s0,0,0,0h0c0,0,.1,0,.1,0,0,0,0,0,0,0ZM129.2,84.6s0,0,0,0h0ZM130.1,84.7s0,0,0,0h0s0,0,0,0h0ZM130,84.9s0,0,0,0c0,0,0,0,0-.1,0,0-.2,0-.3,0,0,0,0,0,0,0,0,0,0,0,.1.1h0c0,0,.2,0,.2,0ZM129.1,84.9h0c0,0,0,0,0,0h0c0,0,0,0,0,0ZM130.7,84.8h0s0,0,0,0h0s0,0,0,0ZM129.5,85.1h0c0-.1,0,0,0,0h0ZM129.2,85.2h0s0,0,0,0h0s0,0,0,0ZM128.6,85.3h0s0,0,0,0h0s0,0,0,0ZM129,85.5s0,0,0,0c0,0,0,0-.1,0h0s0,0,0,0ZM129.6,85.5c0,0,0,0,0,0,0,0,.1,0,.2,0,0,0,.1,0,.1-.1s0,0,0,0c0,0,0,0,0,0h0ZM129.9,85.9h0c0,0,0,0,0,0h0ZM129.7,85.9c0,0,0,0,.1.1h0c0-.1-.1-.1-.1-.1ZM130.4,85.9s0,0,0,.1c0,0,0,0,.1,0,0,0,0,0,.1,0,0,0,0,0,0,0,0,0,0,0,0,0h0c0,0,0-.1,0-.2,0,0,0,0,0,0h-.1ZM126.8,86.4h0c0,0,.2,0,.2,0h0c0,0-.2,0-.2,0ZM126.6,86.8s0,0,0-.1c-.1,0-.2,0-.2,0,0,0,0,0-.1,0,0,0,0,0,0,0,0,0,0,0,0,.1,0,0,.1,0,.2,0h.2s0-.1,0-.1ZM129.3,86.2h0c0,0,0,0,0,0h0c0,0,0,0,0,0ZM131.1,86.1h0s0,0,0,0h0s0,0,0,0ZM129.5,86.3s0,0,0,0h.2s0,0,0,0h-.2ZM128.7,86.4h0s0,0,0,0h0s0,0,0,0ZM131.7,88.3s0,0,0,0v-.4c-.1,0-.2-.4-.2-.4h0c0,0,0-.1,0-.1,0,0,0,0,0-.1,0,0-.2,0-.2-.1,0,0,0-.1,0-.1,0,0,0-.1-.1-.2,0,0,0,0,0-.1,0,0,0,0,0,0s0,0,0,0c0,0,0-.1,0-.2h-.1c0,.1-.1.2-.1.2h0v-.2c0,0,0,0,.1-.1h0s0-.1,0-.1c0,0,0,0-.1,0,0,0,0,0-.1,0,0,0-.1,0-.2,0,0,0-.1.1-.1.1,0,0,0,0,0,0h0c0,0,0,.1,0,.2h0s0,0,0,0h0s0,0-.1,0c0,0-.1,0-.1,0h0c0,.1,0,.1,0,.1,0,0,0,0,0,0,0,0,0,0,0,0,0,0,0,0,0,0,0,0,0,0,0,0h0c0,0,0,.2,0,.2,0,0,0,0,.1,0,.1,0,.1,0,0,.1,0,0,.1,0,.2,0,0,0,0,0,0,0h0v.2s0,0,0,0h0,0c0,0,0,.1,0,.1,0,0,0,0,0,0,0,0,0,0,0,0h0c0,.2,0,.2.1.3,0,0,0,0,0,0h0c0,0,0,0,0,.1,0,0,0,0,.1,0ZM125.3,87.1c0,0,0,0,0,0h0s0,0,0,0ZM126.1,87.3s0,0,0,0c0,0,0,0,0,0,0,0,0,0,0,0,0,0,0,0,0,0ZM130.4,86.9s0,0,0,0h-.1s0,0,0,0c0,0,0,0,0,0,0,0,0,0,0,0ZM125.7,87.6h0c0-.1,0-.1-.1-.1h0s0,0,0,0h0c0,0,.1.1.1.1ZM129.6,87h0c0,0,.1,0,.1,0h0c0,0-.1,0-.1,0ZM130.1,87.1s0,0,0,0h0,0c0,0,.1,0,.1,0ZM125.7,87.9h0c0,0,0,0,0,0h.1c0-.2,0-.2,0-.2h0c0,0-.1.1-.3.1,0,0,0,0,0,0,0,0,0,0,.1,0,0,0,0,0,0,0ZM129.9,87.3s0,0,0,0h0c0,.1.1,0,.1,0h-.1ZM126.4,88.1s0,0,0,0h0s0,0,0,0h0,0c0,0,0,0,0,0ZM125.7,88.3s0,0,0,0c0,0,0,0,0,0,0,0,0,0,0,0s0,0,0,0h.1ZM125.9,88.3s0,0,0,0c0,0,0,0,0,0,0,0,0,0,0,0h.1ZM130.3,87.8s0,0,0,0h0s0,.1,0,.1h.2ZM130.5,88.5h0c0,0,0-.1,0-.1h-.2c0,0,0,0,.1.1,0,0,0,0,.1,0h0Z"/>
  <path class="st21" d="M139.8,76.1c0,0,.2,0,.3,0,0,0,.1.1.1.2.2,1.8.3,3.5.6,5.1,0,.2,0,.4.1.7v.7c.1,0,0,0,0,0,0,0-.1,0-.1,0,0,0,0,0-.2,0h0,0c0,0,0,0,0,0h0s0,0,.2,0h.1s0,0,0,0h0s0,0,0,0h0s0,0,0,0h0c.1.8.3,2,.6,3.6,0,.2,0,.4-.3.4l-2.1.4c-.2,0-.3,0-.4-.2l-.4-.6h0,0l-1.9-3.2c0,0,.1-.1.2-.2h0s0,0,0,0h0c0,0-.9-1.5-.9-1.5l.9,5.7c0,.2,0,.4-.3.4l-2.2.4c0,0-.2,0-.3,0,0,0-.1-.1-.1-.2,0-.6-.2-1.4-.3-2.4v-.4c-.3-2-.4-3.4-.5-4.3l-.3-3.4c0-.2,0-.3.2-.4l1.6-.3c.3,0,.6,0,.9.1.3.2.5.4.7.7h0l1.9,3.3-.5-4.3c0-.2,0-.3.3-.4l1.9-.3ZM134.3,79.4s0,0,0,0h.1s0,0,0,0ZM134.3,80.3h0c0,0-.1,0-.1,0h0c0,0,.1,0,.1,0ZM134.5,80.3c0,0,0-.1,0-.1h0c0,.1,0,.1,0,.1ZM135.3,80.2c0,0-.1,0-.1,0,0,0,0,0,0,.1h0s0,0,0,0ZM134.9,80.3s0,0,.1,0h0s-.3,0-.3,0h0s-.1,0-.1,0h0c0,0,.1,0,.1,0h0s0,0,0,0h0s0,0,0,0ZM135.2,80.3h0s-.1,0-.1,0h0s.1,0,.1,0ZM135.3,80.3c0,0,0,0,.1,0,0,0,0,0-.1,0,0,0,0,0,0,0h0ZM134.7,80.4c0,0,.1,0,.1,0,0,0,0,0-.1,0ZM134.7,81.3h0c0,0,.1,0,.1,0h0c0,0-.1,0-.1,0ZM135.4,81.4h.2c0,0-.2,0-.2,0h0ZM135.7,81.8s0,0-.1,0c0,0,0,.1.1.1h0ZM136.8,81.5c0,0,0,0,0,.1,0,0,0,0-.1,0h0s.2-.1.2-.1h-.1ZM135.5,81.9h0c0-.1-.1,0-.1,0h0c0,.1.1,0,.1,0ZM136.6,81.9h0c0-.1,0,0,0,0h0c0,.1,0,0,0,0ZM135.1,82.1c0,0,0,0,.1,0,0,0,0,0,0,0h-.1ZM136.9,81.8h0s0,0,0,0h0c0,0,0,0,0,0h0ZM135.8,82c0,0,.2,0,.2,0h-.2ZM135.5,82.2h0c0,0,.2,0,.2,0h0c0,0-.2,0-.2,0ZM135,82.4s0,0,0-.1h0c0,0-.1,0-.2,0h0c0,0,.2,0,.2,0ZM137,82.1h0c0,0,0,0,0,0h0ZM136.9,82.3h0s-.1,0-.1,0h0s.1,0,.1,0ZM138.3,82h0s0,0,0,0h0s0,0,0,0ZM135,82.7s0,0,0,0c0,0,0,0-.2,0h0c0,.1.1.1.1.1ZM135.1,82.7h0c0,0-.1,0-.1,0h0c0,0,.1,0,.1,0ZM137.1,82.5c0,0,0-.1,0-.2,0,0,0,0,0,0h0c0,0,0,0,0,0h0c0,0,0,0,0,0h0s.1,0,.1,0ZM136.5,82.7s0,0,0,0c0,0,0,0,0,0h0s0,0,0,0h0ZM135,83s0,0,0,.1h.1s0-.1,0-.1ZM139.2,82.2h0s0,0,0,0h0s0,0,0,0ZM135.5,83h0c0,.1,0,.1,0,.1h0c0-.1,0-.1,0-.1ZM134.7,83.2h0c0,.1.1,0,.1,0h0c0-.1-.1,0-.1,0ZM137.2,83c0,0,0,0,.2,0h0c0-.1-.1,0-.1,0ZM137.8,83.1c-.1,0-.2,0-.3,0,0,0,0,0,.1,0,0,0,0,0,0,0h0ZM137.2,83.3h0c0-.1,0-.1,0-.1h0c0,.1.1.1.1.1ZM137.3,83.3h0s.2,0,.2,0h0s-.2,0-.2,0ZM139,83h0c0,0,0,0,0,0h0c0,0,0,0,0,0ZM137.8,83.3h0c0,0-.1,0-.1,0h0c0,0,.1,0,.1,0ZM134.6,83.9c0,0,0,0,.1,0h0c0,0,0,0,0,0ZM137.1,83.4s0,0-.1,0c0,0,0,0,0,.1,0,0,0,0,0,0h.1c0,0,0,0,0,0h0ZM135,83.8h0c0,0,.1,0,.1,0h0c0,0,0,0,0,0ZM135.2,84c0,0-.1,0-.1,0h0s-.2,0-.2,0h0c0,.1.3,0,.3,0ZM137.4,83.8c0,0,0,0-.1,0h0s0,0,0,0h.1ZM139,83.5s0,0,0,0c0,0,0,0,0,0h0ZM137.4,83.9h0s0,0,0,0h0s-.1,0-.1,0h0c0,0,0,0,0,0ZM138.1,83.8h0c0-.1,0,0,0,0h0c0,.1,0,0,0,0ZM135.3,84.3h0c0,0-.1,0-.1,0h0c0,0,.1,0,.1,0ZM137.6,84.1h.1c0,0,0,0,0,0h0ZM135.3,84.5h0c0,.1,0,.1,0,.1h0c0-.1,0-.1,0-.1ZM137.4,84.2s0,0,0,0c0,0,0,0,0,0h.1s0,0,0,0ZM138.1,84.3h0s0,0,0,.1h0c0,0,0,0,.1,0,0,0,0,0,0,0,0,0,0,0,0,0h0s0,0,0,0h0s0,0,0,0c0,0,0,0,0,0,0,0,0,0,0,0h0ZM137.7,84.4h0s-.1,0-.1,0h0s.1,0,.1,0ZM135.3,84.9c0,0-.1,0-.1,0h0s0,0,0,0h0c0,0,0-.1,0-.1ZM138.4,84.4h0,0s-.1,0-.1,0c0,0,0,0,0,0,0,0,0,0,.1,0h0s0,0,0,0h.1s.1,0,.1,0h0s-.2,0-.2,0ZM138.7,84.5h0s0-.1,0-.1h0c0,0,0,.1,0,.1ZM137.5,84.7s0,0,.1,0c0,0,0,0-.2,0h0ZM136,85h0c0,0,.1,0,.1,0h0c0,0-.1,0-.1,0ZM138.3,84.7c0,0,.2,0,.3,0h0c0-.1,0-.1-.1-.1h-.1ZM137.9,84.8h0c0,0,0,0,0,0h0c0,0,0,0,0,0ZM138.2,84.8s0,0,0,0c0,0,0,0,0,0h0,0c0,.1.1,0,.1,0ZM139.2,84.8h.1s0,0,0,0c0,0,0,0,0,0h0ZM138.6,85.2h0s-.1-.3-.1-.3h0s.1.3.1.3ZM137.9,85.1h0c0,0,.1,0,.1,0h0c0,0-.1,0-.1,0ZM138,85.3s0,0,0-.1h-.2c0,0,0,.1,0,.1,0,0,0,0,0,0h0ZM139.1,85.3s0,0,0,0h.1c-.2-.1-.2-.2-.3-.2h0c0,0,0,0,0,0h0s0,0,0,0c0,0,0,0,0,0h0s0,0,0,0h.1s.1,0,.1,0c0,0,0,0,0,0ZM138.5,85.3s0,0-.1,0h0c0,.1,0,0,0,0ZM138.8,85.6c0,0,.1,0,.1,0h0s0,0,0,0h0s0-.1,0-.1h0s0,0,0,0c0,0,0,0,0,.1h0s0,0,0,0h0s0,0,0,0c0,0,0,0,0,0,0,0,0,0,0,0ZM135.3,85.9h0c0,.1.1,0,.1,0h0c0-.1-.1,0-.1,0ZM138.4,85.7h0l.3-.2c0,0-.1,0-.2,0,0,0,0,0-.1,0,0,0-.1,0-.2.1h0ZM139.6,85.4c0,0,0,0,0,.1,0,0,0,0-.1,0h0s.2-.1.2-.1h0ZM135.6,86.2c0,0,0,0,.1-.1,0,0,0,0-.1,0h0ZM139.4,85.8h0s0,0,0,0h0ZM135.8,86.4h0c0,.1.2,0,.2,0h0c0-.1-.2,0-.2,0ZM139.1,85.8h0c0,.1,0,.1,0,.1,0,0,0,0,0,0,0,0,0,0,0,0h.1c0,0-.1-.1-.1-.1ZM139.3,85.9c0,0,0,0,0,0h0,0s0,0,0,0ZM139.5,86h-.1c0,.1,0,.1,0,.1h0c0-.1,0-.1.1-.1h0s0,0,0,0ZM139.8,85.9s0,0,0,.1h0,0s0,0,0,0h0,0ZM138.8,86.4s0,0,0,0h-.2c0,0,0,0,0,0h0c0,0,0,0,0,.1,0,0,.1,0,.1,0,0,0,0,0,0,0,0,0,0,0,0,0Z"/>
  <path class="st21" d="M148.5,76.7c.2,0,.3-.2.2-.4l-.4-1.8c0,0,0-.2-.2-.2,0,0-.2,0-.3,0l-7.1,1.8c-.2,0-.3.2-.3.4l.4,2.4c0,0,0,.2.2.2,0,0,.2,0,.3,0l2.1-.9.7,3.4s0,0,0,0h0s0,0,0,0h0s.4,2,.4,2h0s0,0,0,0l.5,2.6h0c0,.1,0,.2.1.2,0,0,.2,0,.3,0l2.2-.5c.2,0,.3-.2.2-.4h0c0,0,0,0-.1-.1,0,0,0,0,0,0h0c0-.1,0-.2,0-.2,0,0,0,0,0,0,0,0,0,0,0,0,0,0,0,0,0-.1,0,0,0,0,0-.1,0,0,0,0,0-.1h0s0,0,0,0h0s0,0,0,0c0,0,0,0,0,0,0,0,0,0,0-.1,0,0,0,0-.1,0,0,0,0,0,0,0,0,0,0,0,0-.1h-.1s0,0,0-.1h0c0,0,0,0,0,0,0,0,0,0,0,0h0s0,0,0,0h0c0,0,0,0,0,0,0,0,0,0,.1,0,0,0,0,0,0,0h0c0,0,0,0,0,0h-.1c0,0,0,0,0-.1,0,0,0,0,0-.1h0s0,0,0,0c0,0,0,0,0-.1,0,0,0,0,0,0h0c0-.1-.1-.3-.1-.3h0c0,0,0,0,0,0h0c0-.1,0-.2,0-.2h0s0,0,0,0h0s0-.4,0-.4h-.1c0,0,0-.1.1-.1l-.9-4.7,2.1-.6ZM142.2,77.5h0c0,0,0,0,0,0h0c0,0,0,0,0,0ZM143.6,77.2h0c0,0,0,0,0,0h0c0,0,0,0,0,0ZM141.8,77.8s0,0-.2,0c0,0,0,0,0-.2h.1s.1,0,.1,0h0c0,0,0,.1,0,.1ZM143.2,77.3s0,0,0,0h0s0,0,0,0h0c0-.1.1-.1.1-.1h0ZM140.9,77.9h0s.1,0,.1,0h0s-.1,0-.1,0ZM142.2,77.6h0c0,0,0,0,0,0,0,0,0,0,0,0,0,0,0,0,0,0h0s0,0,0,0c0,0,0,0,0-.1,0,0,0,0,.1,0h0s0,0,0,0ZM141.7,77.9h0c0,0,.2,0,.2,0h-.2ZM142.3,78c0,0,0,0-.1,0,0,0,0,0,0-.1h.1c0,.1,0,.1,0,.1ZM143.6,77.6c0,0,0,0,0,.1,0,0,0,0,0,0h.1ZM141.8,78.2h0c0,0,.1,0,.1,0h0c0,0-.1,0-.1,0ZM142.9,77.9s0,0-.1,0h-.1s0,0-.1,0c0,0,0-.1.1-.1h.2ZM144.9,82.3h0,0s0,0,0,0h0c0,0,0,.1,0,.1h0ZM146.7,82h0s0,0,0,0h0s0,0,0,0h0s0,0,0,0ZM145.1,83s0,0,0,.1c0,0,0,0,0,.1,0,0,0,0,0,0h0c0,0,0,.1,0,.1,0,0,0,0,0,.1h0c0,.1,0,.2,0,.2h0c0,0,0,.1,0,.2,0,0,0,0,0,.1,0,0,0,0,0,.1,0,0,0,0,0,0,0,0,0,0,0,0,0,0,0,0,0,0h0s0,0,0,0h-.1s0,0,0,0c0,0,0,0,0,0v-.2s0-.4,0-.4c0,0,0-.1,0-.1h0c0-.1,0-.2,0-.2s0,0,0,0c0,0,0,0,0,0,0,0,0,0,0,0h0c0,0,0,0,0-.1,0,0,0,0,0,0h0c0,0,0-.1,0-.1,0,0,0-.2,0-.3,0,0,0,0,0,0,0,0,0,0,0,0h0c0,0,0,.2,0,.2ZM147.5,82.7s0,0,0,0h0s0,0,0,0h0ZM147.3,83.4s0,0,0,0h0s0,0,0,0h0ZM145.5,85.1s0,0,0,0c0,0,0,0,0,.1h0c0,0-.1,0-.1-.1,0,0,0,0,0,0,0,0,0,0,0,0s0,0,0,0c0,0,0,0,0,0h0s0-.2,0-.2c0,0,0,0,0,0,0,0,0,0,0,0,0,0,0,0,0-.1,0,0,0,0,0-.1s0,0,0,0c0,0,0,0,0,0h0l.2.7Z"/>
  <path class="st21" d="M155.9,72c.1,0,.2,0,.3,0,0,0,.1.1.1.2l.5,1.9c0,.2,0,.3-.2.4l-4.2,1.7.3,1.3,3.2-1,.4,1.5h0s-.4-1.6-.4-1.6c0,0,.2,0,.3,0,0,0,.1,0,.1.2l.5,1.6c0,.2,0,.3-.2.4l-3.3,1.5.3,1.3,4.2-1.3c0,0,.2,0,.3,0,0,0,.1.1.2.2l.5,2c0,.2,0,.3-.2.4l-6.5,2.2c0,0-.2,0-.3,0s-.1-.1-.2-.2c-.4-1.6-.8-3.2-1.2-4.9-.3-1.6-.7-3.3-1.1-5.3,0-.2,0-.3.3-.4l6.4-2.1ZM151.5,73.6h0,0s0,0,0,0h0ZM152.5,73.4h0s0,0,0,0c0,0,0,0,0,0ZM152.9,73.6s0,0,0,0c0,0,0,0-.1,0,0,0,0,0-.1.1h0c0,0,0,0,0,0h0c0,0,.1,0,.1,0h0c0,0,0,0,0,0ZM155.2,72.8h0,0s0,0,0,0h0ZM150.8,74.1h.3c0-.1-.3,0-.3,0h0ZM151.9,73.8h-.2c0,0,0,.1,0,.1,0,0,0,0,0,0h.1s0,0,0,0h.2ZM151.4,74h0s0,0,0,0h0ZM154,73.2h-.1s0,.1,0,.1h.1s0-.1,0-.1ZM152.2,73.8s0,0,0,.1c0,0,0,0,0,0,0,0,0,0,0,0ZM153.2,73.6h0s0,0,0,0h0ZM150.8,74.6h0c0,0,0,0,0,0,0,0,0,0,0,0,0,0,0,0,0,0h-.1ZM152.8,74.3c0,0-.1,0-.1,0h0s0-.1,0-.1h0c0,0,0,0,0,0,0,0,0,0,0,0h0s0,0,0,0c0,0,0,0,0,.2h.2s0,0,0,0h0s0,0,0,0ZM153.3,74.2h0s0,0,0,0h0ZM152.5,74.5h0c0,0,0,0,0,0,0,0,0,0,0,0h.1ZM153.2,74.5s0,0-.1,0h0c0,.1.1,0,.1,0ZM153.8,74.3s0,0,0,0h0c0,0,0,0,0,.1h.2ZM152.8,74.6c0,0-.1,0-.1,0,0,0,0,0,0,.1h.1s0,0,0,0h0s0,0,0,0h0ZM153.4,74.6s0,0,0,0c0,0,0-.1-.1-.1h0s0,0,0,0h0c0,0,0,0,0,0ZM150.1,75.4h0s0,0,0,0h0ZM153.1,74.8s0,0,0,0c0,0,0,0-.1,0h0c0,.1,0,.1,0,.1h0s.1,0,.1,0ZM155.4,74h0s0,.1,0,.1h0s0-.1,0-.1ZM153.2,75.4h0s0,0,0,0h0ZM152,75.8s0,0,0,0h0s0,0,0,0ZM152.1,76.6s0,0,0,0h0s0,0,0,0c0,0,0,0,0,0ZM152.2,76.9h0s0,0,0,0h0ZM152.5,77.5h0s0-.1,0-.1h0s0,.1,0,.1ZM152.6,77.7s0,0,0,0h0c0,0,0,0,0,.1,0,0,0,0,.2,0,0,0,0,0,0,0h0ZM153.9,77.5h0s0,0,0,0ZM156.2,77s0,0,0,0h.1c0-.1,0-.2,0-.2h-.2c0,0,0,.2,0,.2ZM153.9,77.5h0s0,0,0,0ZM153.6,77.7h0s0,0,0,0c0,0,0,0,0,0h0ZM154,77.6h0c0,0,0,0,0,0h0ZM153.1,78c0,0,0,0,0,0h0ZM152.9,78.2h.1s0,0,0,0h0s0,0,0,0h0c0,0,0,0-.1,0h0s0,0,0,0h0ZM153.6,77.9h0s.1,0,.1,0h-.1s0,0,0,0ZM152.6,78.3s0,0,0,0c0,0,0,0,0,0,0,0,0,0,0,0,0,0,0,0,.1,0h0s-.1,0-.1,0ZM153.6,78.2h.1c0,0,0,0,0-.1h0c0,0-.1,0-.1,0h0c0,0,0,.1,0,.1ZM152.6,78.6h0s0,0,0,0h0s0,0,0,0c0,0,0,0,0,0ZM152.5,79c0,0,0,0,.1,0,0,0,0,0,0,0h0s0,0,0,0c0,0,0,0,0,.1h0ZM152.7,79c0,0-.1,0-.3,0h0c0,0,0,.1,0,.1,0,0,0,0,0,0,0,0,.1,0,.1,0ZM152,79.2s0,0,0,0h.1s0,0,0,0h0s0,0,0,0ZM156.4,78.4h0c0-.1,0-.2,0-.2h0c0-.1,0-.1-.1-.2v.4ZM152.8,79.2s0,0,0-.2h-.1s0,0,0,0h-.1c0,0,0,0,0,0s0,0,0,0c0,0,0,0,0,.1h.1ZM152.3,79.3c0,0,0,0,0,0h0s0,0,0,0h0ZM152.8,79.2s0,0,0,0h0s0,0,.1,0h0s-.2,0-.2,0ZM152.4,79.3c0,0,0,0,0,.1h0c0,0,0,0,.1,0,0,0,0,0,0-.1ZM153.1,79.3h0s0,0,0,0c0,0,0,0,0,0,0,0,0,0,0,0h0c0,0,0,0,0,0h0s0,.1,0,.1h0c0,0,0,.1,0,.1h.1s0,0,0,0c0,0,.1,0,.2-.1h0ZM152.6,79.6s0,0,0,0c0,0,0,0,0,.1h0c0,0,.1,0,.2,0h0s0,0,0,0v-.2c0,0-.1,0-.1,0h0ZM152.4,79.7h0c0,0,0,0,0,0,0,0,.1,0,.1,0h0ZM155.9,78.8h.2s0,0,0,0h-.2s0,0,0,0ZM153.1,79.6s0,0,0,0h-.1s0,0,0,0h0ZM152.3,79.9c0,0,0,0,0,0h0s0,0,0,0ZM153,79.8h.1s0,0,0,0h0ZM152.5,79.9c0,0,0,0,0,.1h.1s0,0,0,0c0,0,0,0,0,0h0ZM152.9,80h0c0,0,0,0,0,0h0c0,0,.1,0,.1,0ZM153.2,79.9s0,0,0,0h0s0,0-.1,0h0s0,0,0,0h.1s0,0,0,0h.1ZM153,80.1h0c0,0-.2,0-.2,0h0c0,0,0,0,0,0ZM152.9,80.2s0,0-.1,0h0c0,0,0,0,0,0ZM152.7,80.3h0s.2,0,.2,0c0,0,0,0,0,0h-.2ZM152.6,80.5s0,0,.1,0h0c0-.1-.1,0-.1,0h.1ZM152.9,80.5s0,0,0,0c0,0,0,0,0,0h0c0,0,0,0,0,0h0c0,0,0,0,0,0ZM153.2,80.4s0,0,0,0h0ZM152.3,80.6s0,0,0,0h.1s0,0,0,0h0s0,0,0,0ZM152.8,80.6h0c0,0,0,0,0,0h0c0,0,0,0,0,0ZM152.9,80.6s0,0,0,0h0s.1,0,.1,0c0,0,0,0,0,0h0s0,0,0,0ZM153.2,80.7h0s0,.1,0,.1h0s0-.1,0-.1ZM152.3,81s0,0,0,.1c0,0,0,0,0-.1h0ZM152.7,81h0s0,0,0,0h0c0,0,0,0,0,0h0s0,0,0,0h0c0,0,0,0,0,0ZM152.4,81.4s0,0,0,0,0,0,0,0h0s0,0,0,0h0ZM152.8,81.2h0s0,0,0,0h0ZM152.7,81.5s0,0,0,0h0c0,0,0,0,0,0ZM154.2,81.7h.1s0,0,0,0h-.1s0,0,0,0ZM154.8,81.5h0c0,0,0,0,0,.1h0c0,0,0,0,0,0h0s0-.1,0-.1h0c0,0,0,0,0,0ZM155.8,81.3h0,0c0,0,0,0,0,0ZM154.4,81.7h0s0,0,0,0h0s0,0,0,0ZM155.2,81.6h0c0,0,0,0,0,0,0,0,0,0,0,0h0ZM154.2,81.9h0s0,0,0,0h0ZM154.8,81.8s0,0-.1,0h0c0,.1,0,.1,0,.1,0,0,0,0,0,0h0ZM155.1,81.7s0,0,0,.1h0s0,0,0,0h0ZM153,82.6h0c0,.1,0,0,0,0h0c0,0,0,0,0,0ZM153.2,82.5s0,0,.1,0h0s0,0,0,0h-.1ZM154.1,82.3h0c0,0,0,0,0,0h0c0,0,0,0,0,0ZM155.6,81.9c0,0,0,0,.1,0h0c0,0,0-.1,0-.1h-.1ZM155.1,82.1h0c0,0,0,0,0,0h0ZM154.6,82.3h0s0,0,0,0h0,0c0,0,0,0,0,0ZM153.3,82.9h-.1s0,.1,0,.1h.1s0-.1,0-.1ZM151.9,83.7c0,0,0,0,0-.1h-.2c0,0,0,.2,0,.2h.2ZM157.7,82h.2c0,0-.2,0-.2,0h0ZM153,83.3h-.2c0,.1.2,0,.2,0h0ZM154,83.1h0c0,0,.1,0,.1,0h0c0,0-.1,0-.1,0ZM154.9,82.9s0,0,0,.1h0c0,0,.2,0,.2,0h0c0,0,0,0,0-.1h-.1c0,0-.2,0-.2,0ZM152.5,83.7h.2s0-.1,0-.1h-.2s0,.1,0,.1ZM153.3,83.8s0,0,0,0c0,0,0-.1,0-.2,0,0,0-.1-.1-.1,0,0,0,0-.1,0,0,0,.1.2.2.3ZM151.6,84s0,0,0,0c0,0,0,0,0-.1h-.2ZM152.3,83.9h0c0,0-.1,0-.1,0h0c0,0,.1,0,.1,0h0s0,0,0,0h0ZM154,83.5c0,0-.1,0-.2,0h0c0,0,0,.1,0,.1,0,0,0,0,0,0,0,0,0,0,0,0,0,0,0-.1.1-.2h0ZM152.9,83.9h0c0,0-.3,0-.3,0h0c0,.1.2.1.2.1h0ZM155.8,83.1h.1s0,0,0,0h-.1s0,0,0,0ZM157.9,82.7s0,0,0,0c0,0,0,0,0,0h0ZM152.8,84.2h-.1s0,.1,0,.1h.1s0-.1,0-.1Z"/>
  <path class="st21" d="M157.9,73.1c0,.1,0,.4-.3,1,0,0,0,.2,0,.2,0,0,0,.1.1.2,0,0,.1,0,.2,0h.7s0,0,0,0c0,0,.1,0,.2-.2.2-.4.4-.9.5-1.5.1-.7.1-1.2,0-1.5-.1-.4-.4-.7-.7-.9-.4-.2-.7-.2-1-.1-.4.1-.7.4-.9.7-.2.3-.3.7-.1,1.2h0s0,0,0,0h0s0,0,0,0c0,.3.2.5.5.7.3.2.5.3.8.3ZM158.1,70.8s0,0,0-.1c0,0,0,0,0,0h0c0,0,0,0,0,0h0ZM158.2,71.4s0,0,0,0c0,0,0,0,0,0h0s0,0,0,0h0s0,0,0,0h0c0,0,0-.1,0-.1,0,0,0,0,0,0h0ZM158.2,71.8s0,0,0,0c0,0,0,0-.1,0h0s0,0,0,0h0s0,0,0,0ZM158.2,72.2s0,0,0,0h0c0,0,.1,0,.1,0ZM158.4,72.2s0,0,0,0h0s0,0,0,0h0c0,0,0,0,0,0h0s0,0,0,0h0s0,0,0,0ZM157.6,72.5s0,0,0,0h0s0,0,0,0h0ZM158.4,72.6c0,0-.1,0-.2,0h0s0,0,0,0h.1s0,0,0,0ZM158.1,72.6s0,0,0,0c0,0,0,0,0,0h0s0,0,0,0ZM158.9,72.6h0s0,0,0,0h0s0,0,0,0Z"/>
  <path class="st21" d="M164.9,78.6c-.5,0-1.1,0-1.7-.2,0,0-.1,0-.2,0-.1,0-.2.1-.2.3l-.2,1.6c0,0,0,.1,0,.2,0,0,.1.2.3.2,1.2.2,2.2.2,2.9,0,.3,0,.5-.2.7-.2.6-.2,1.1-.5,1.6-.9.4-.3.7-.8.8-1.3.1-.5.2-1.1,0-1.7h0c0-.1,0-.2-.1-.4-.4-1.1-1.3-1.9-2.9-2.2h-.6c-.3-.2-.6-.3-.8-.4-.4-.2-.6-.4-.8-.8,0-.2,0-.4,0-.7,0-.4.2-.6.5-.6h0c0,0,.2,0,.3.2.2.4.3.7.4,1.1,0,.2.2.3.4.2l1.8-.6c.2,0,.3-.2.2-.4,0-.3-.2-.6-.3-.9,0-.2-.1-.4-.2-.5-.2-.5-.5-.8-.8-1-.6-.4-1.4-.5-2.4-.1-.3,0-.5.2-.8.3-1.1.5-1.7,1.3-1.9,2.4-.2.8-.1,1.5.1,2.1,0,.3.2.6.4.8.2.4.5.7.9.9h0c.7.2,1,.3,1.1.4h0s.4,0,.4,0c.6.1,1.1.2,1.3.3.4.1.6.4.8.8,0,.2,0,.4,0,.6,0,.2-.3.3-.5.4-.2,0-.4,0-.6,0ZM165,71.1h0s0,0,0,0h0s0,0,0,0ZM165.7,71.5s0,0,0,0c0,0,0,0,0,0h0s0,0,0,0h0s0,0,0,0h0s0,0,0,0ZM165.5,72.2s0,0,0,0h0s0,0,0,0h0ZM166.1,75s0,0,0,0h-.1s0,0,0,0c0,0,0,0,0-.2h.1s0,0,0,0h0ZM165.4,75.3h0c0,0,.1-.1.1-.1h0c0,0-.1.1-.1.1ZM166.3,75.1h0s-.1.1-.1.1c0,0,0,0,0,0,0,0,0,0,.1,0h0s0,0,0,0ZM166,75.7s0,0,0,0h0s0,0,0,0h0s0,0,0,0h0s0,0,0,0ZM166.9,75.7h0s0,0,0,0c0,0,0,0,0-.2h0c0,0,0,.1,0,.1ZM166.8,76h0c0,0,.1-.1.1-.1h0c0,0-.1.1-.1.1ZM167.8,76s0,0,0,0c0,0,0,.1,0,.1,0,0-.1,0-.2,0h0c0-.1.1-.1.1-.1,0,0,0,0,0,0h0ZM167.1,76.3h0s0,0,0,0h0,0ZM167.5,76.6s0,0,0,0c0,0,0,0,0,0h0s0,0,0,0h-.1s0,0,0,0h0c0-.1,0-.1,0-.1h0ZM168.1,76.4h0,0s0,0,0,0c0,0,0,0,0,0h0c0,0,0-.1,0-.1h0s0,0,0,0ZM167.7,76.9s0,0-.1,0c0,0,0,0,0,0,0,0,0,0,0,0,0,0,0,0,0,0h0s0,0,0,0h0c0,0,0,.1,0,.1h0ZM167.7,77.1c0,0,.2,0,.2.1h0s0,0,0,0h0s0,0,0,0h0s0,0,0,0h0s0,0,0,0h-.1s0,0,0,0h0s0,0,0,0h0s0,0,.1,0,0,0,0,0h0s0,0,0,0h0ZM168.2,77.1h0s-.1,0-.1,0c0,0,0,0,0,0h0s0,0,0,0ZM168.1,77.3h0c0-.1,0-.1,0-.1h0c0,.1,0,.1,0,.1ZM167.8,77.5s0,0,0,.1h-.1c0,.1,0,.1,0,.1,0,0,0,0-.1,0h0c0,0,0-.1,0-.2,0,0,0,0,0,0,0,0,0,0,0,0h.2s0,0,0,0ZM168.3,77.4h0c0,.1,0,.2,0,.2h0c0,0,0,0-.1,0,0,0,0-.1,0-.1h0ZM167.9,77.7c0,0-.1,0-.2,0h0c0,0,0-.1,0-.1h.1s0,0,0,0h0ZM164.8,78.8h0s0,0,0,0h0s0,0,0,0ZM167.7,78h0s0,0,0,0c0,0,0,0,0,0h0c0,0,0-.1,0-.1h0s0,0,0,0ZM167.2,78.4s0,0,0,0c0,0,0,0-.1,0h0s0,0,0,0h0s0,0,0,0ZM168.1,78.2s0,0,0,0c0,0,0,0-.2,0h.2c0-.1,0,0,0,0ZM165.2,79.2h0s0,0,0,0h0,0ZM167.3,78.5s0,0,.1,0h0c0,0,0,0,0,.1,0,0,0,0,0,0h0ZM167.1,78.8h0c0,0,0-.1,0-.1h0c0,0,0,.1,0,.1ZM165.8,79.5h0s0,0,0,0h0s0,0,0,0ZM167.5,79s0,0,0,0c0,0,0,0,0,0h.1s0,0,0,0Z"/>
  <path class="st20" d="M65.5,107.6l.3-8.8h-1.8c-.2,0-.4-.1-.4-.3,0-.1,0-.4,0-.7,0-.5.2-.8.5-.8l5.2.2c.6,0,.8.2.8.5,0,.8-.3,1.3-.7,1.2h-1.6c0,0,0,2.8,0,2.8l-.2,5.8c0,.2,0,.3,0,.4,0,.1-.2.2-.6.2-1,0-1.4-.2-1.4-.6Z"/>
  <path class="st20" d="M73,108.4c-1,0-1.7-.3-2.1-.9-.4-.6-.5-1.6-.5-3,0-1,.2-1.8.4-2.3.2-.5.5-.9.9-1.1.4-.2.9-.3,1.6-.2.7,0,1.3.2,1.6.4.4.2.6.6.8,1.1.2.5.2,1.3.2,2.3,0,0,0,.1,0,.2,0,0-.1.1-.4.1-.2,0-.5,0-.8,0h-2.2c0,1,0,1.7.2,1.8,0,0,.2.1.4.1,1.3,0,2.1,0,2.6,0,0,0,0,0,0,0,0,0,.1,0,.1.1,0,0,0,.3,0,.7,0,.3,0,.5-.3.6-.4.1-1.3.2-2.6.1ZM72.5,102.8v1.1s1.4,0,1.4,0c0-1.1,0-1.7-.3-1.7-.3,0-.6,0-.8.1s-.3.2-.3.4Z"/>
  <path class="st20" d="M83.1,108.7c0,.1-.2.2-.5.1-.3,0-.7,0-1-.1-.3,0-.5-.1-.6-.2,0,0,0,0,0,0l-1-2.1-1.2,2h0c0,0,0,0,0,0,0,0,0,0,0,0,0,0,0,0,0,0-.1,0-.2,0-.4,0-.7,0-1.3-.1-1.5-.2,0,0,0,0,0,0l2.3-3.6-1.8-3.4c0-.2.1-.2.6-.2.3,0,.6,0,.9.1.3,0,.4.1.5.2l1,2,.9-1.9c0-.2.3-.2.6-.2.3,0,.6,0,.9.1.3,0,.4.1.4.2l-1.7,3.3,2,3.8h0Z"/>
  <path class="st20" d="M88.6,104.4h-3.9c0-.1-.2-.4-.2-.4v-1.5c0,0,4,.2,4,.2l.2.2v1.5Z"/>
  <path class="st20" d="M95,108.8l.3-6.5-1,1.7h-1.4s-.8-1.8-.8-1.8l-.3,6.4c0,.2,0,.3,0,.3,0,.1-.2.2-.6.2-.9,0-1.4-.2-1.4-.6l.4-10.1c0-.4.3-.5,1-.5.7,0,1.1.2,1.2.6l1.3,3.8,1.7-3.6c0-.2.2-.3.3-.4.1,0,.3,0,.6,0,.7,0,1,.2,1,.6v4.3c0,0-.2,5.8-.2,5.8,0,.3,0,.4-.1.5,0,0-.2,0-.5,0-.3,0-.5,0-.7,0-.2,0-.3,0-.5-.2-.1,0-.2-.2-.2-.4Z"/>
  <path class="st20" d="M100.8,109.5c-1,0-1.7-.3-2.1-.9-.4-.6-.5-1.6-.5-3,0-1,.2-1.8.4-2.3.2-.5.5-.9.9-1.1.4-.2.9-.3,1.6-.2.7,0,1.3.2,1.6.4.4.2.6.6.8,1.1.2.5.2,1.3.2,2.3,0,0,0,.1,0,.2,0,0-.1.1-.4.1-.2,0-.5,0-.8,0h-2.2c0,1,0,1.7.2,1.8,0,0,.2.1.4.1,1.3,0,2.1,0,2.6,0,0,0,0,0,0,0,0,0,.1,0,.1.1,0,0,0,.3,0,.7,0,.3,0,.5-.3.6-.4.1-1.3.2-2.6.1ZM100.4,103.9v1.1s1.4,0,1.4,0c0-1.1,0-1.7-.3-1.7-.3,0-.6,0-.8.1s-.3.2-.3.4Z"/>
  <path class="st20" d="M111,109.8c0,.1-.2.2-.5.1-.3,0-.7,0-1-.1-.3,0-.5-.1-.6-.2,0,0,0,0,0,0l-1-2.1-1.2,2h0c0,0,0,0,0,0,0,0,0,0,0,0,0,0,0,0,0,0-.1,0-.2,0-.4,0-.7,0-1.3-.1-1.5-.2,0,0,0,0,0,0l2.3-3.6-1.8-3.4c0-.2.1-.2.6-.2.3,0,.6,0,.9.1.3,0,.4.1.5.2l1,2,.9-1.9c0-.2.3-.2.6-.2.3,0,.6,0,.9.1.3,0,.4.1.4.2l-1.7,3.3,2,3.8h0Z"/>
  <path class="st20" d="M121.5,108.4c.2,0,.3.2.3.5,0,.3,0,.5,0,.7,0,.3-.2.5-.5.6-.8,0-1.5.1-1.9.1-1.4,0-2.4-.5-2.9-1.3-.5-.8-.7-2.3-.6-4.4,0-1.5.2-2.7.5-3.5.3-.8.7-1.4,1.2-1.7.5-.3,1.3-.4,2.3-.4,1,0,1.8.2,2.3.6,0,0,.1.2.1.3,0,0,0,.3-.1.5,0,.3-.2.4-.3.5,0,.1-.2.2-.3.2,0,0-.1,0-.2,0-.7-.2-1.3-.3-1.9-.3-.5,0-.9.2-1,.8-.2.6-.3,1.5-.4,2.8,0,1.3,0,2.2,0,2.7,0,.5.2.9.3,1.1.2.2.5.3.9.3.4,0,.9,0,1.4,0,.5,0,.8,0,.8,0Z"/>
  <path class="st20" d="M126.3,109.9c-.5.4-1,.6-1.4.6-.4,0-.7,0-.9-.1-.2,0-.4-.2-.6-.4-.2-.2-.3-.4-.4-.8,0-.3,0-.8,0-1.3,0-.8.4-1.3,1.2-1.5l2.1-.4c0-.6,0-1-.1-1.2-.1-.2-.4-.3-.8-.3-.4,0-.7,0-1,.1l-.5.2c0,0-.2,0-.2-.1-.2-.4-.3-.7-.3-.9,0-.2,0-.3,0-.3,0,0,0,0,0,0,.5-.3,1.1-.4,1.9-.4.8,0,1.3.2,1.8.4.4.2.7.6.8,1.1.2.5.2,1.3.2,2.3l-.2,3.6c0,0,0,0,0,.1,0,0-.2,0-.6,0-.6,0-.9,0-.9-.3l-.2-.5ZM124.5,108c0,.7.2,1.1.6,1.1.3,0,.5,0,.6-.1.3-.2.4-.8.5-2-.5,0-.9.2-1.2.4-.3.2-.4.4-.5.7Z"/>
  <path class="st20" d="M133.1,103.3c.7,0,1.2.3,1.5.7.3.4.4,1.2.4,2.3l-.2,4.4h0c0,.2-.2.2-.6.2-.3,0-.6,0-1-.1-.3,0-.5-.1-.5-.2v-4.4c.2-1.1.1-1.6,0-1.6-.3,0-.8.1-1.4.4l-.2,5.4c0,0,0,0,0,.1,0,0-.2.1-.5.1-.3,0-.7,0-1-.1-.3,0-.5-.1-.5-.2l.3-7.1c0-.2.2-.2.6-.2.6,0,.9.1,1,.3h0s.3.6.3.6c.8-.5,1.4-.7,1.8-.7Z"/>
  <path class="st20" d="M137.1,104.8h-1.1c-.1,0-.2,0-.2-.1v-.2c0-.4,0-.6.2-.6l1.1-.2.9-1.6c.1-.1.4-.2.7-.2,0,0,.2.2.2.5,0,.3.1.8.2,1.3h1.4c.2,0,.2.3.2.6,0,.4,0,.6-.3.6h-1.4c0,0-.2,4.5-.2,4.5l.2,1.6h0c0,0,0,.1,0,.1,0,0-.3,0-.7,0-.4,0-.7-.1-.8-.3l-.6-1.4.2-4.8Z"/>
  <path class="st20" d="M141,110.9l.3-7.1c0-.2.2-.2.5-.2.3,0,.7,0,1,.1.3,0,.4.1.4.2l-.3,7.1c0,0,0,0,0,.1,0,0-.2.1-.6.1-.3,0-.6,0-.9-.1-.3,0-.5-.1-.5-.2ZM142.2,102c-.7,0-1-.4-1-1.1,0-.7.4-1,1.1-1,.7,0,1,.4,1,1.1,0,.7-.4,1-1.1,1Z"/>
  <path class="st20" d="M148.1,103.9c.7,0,1.2.3,1.5.7.3.4.4,1.2.4,2.3l-.2,4.4h0c0,.2-.2.2-.6.2-.3,0-.6,0-1-.1-.3,0-.5-.1-.5-.2v-4.4c.2-1.1.1-1.6,0-1.6-.3,0-.8.1-1.4.4l-.2,5.4c0,0,0,0,0,.1,0,0-.2.1-.5.1-.3,0-.7,0-1-.1-.3,0-.5-.1-.5-.2l.3-7.1c0-.2.2-.2.6-.2.6,0,.9.1,1,.3h0s.3.6.3.6c.8-.5,1.4-.7,1.8-.7Z"/>
  <path class="st20" d="M154.4,111c-.5.4-1,.6-1.4.6-.4,0-.7,0-.9-.1-.2,0-.4-.2-.6-.4-.2-.2-.3-.4-.4-.8,0-.3,0-.8,0-1.3,0-.8.4-1.3,1.2-1.5l2.1-.4c0-.6,0-1-.1-1.2-.1-.2-.4-.3-.8-.3-.4,0-.7,0-1,.1l-.5.2c0,0-.2,0-.2-.1-.2-.4-.3-.7-.3-.9,0-.2,0-.3,0-.3,0,0,0,0,0,0,.5-.3,1.1-.4,1.9-.4.8,0,1.3.2,1.8.4.4.2.7.6.8,1.1.2.5.2,1.3.2,2.3l-.2,3.6c0,0,0,0,0,.1,0,0-.2,0-.6,0-.6,0-.9,0-.9-.3l-.2-.5ZM152.7,109.1c0,.7.2,1.1.6,1.1.3,0,.5,0,.6-.1.3-.2.4-.8.5-2-.5,0-.9.2-1.2.4-.3.2-.4.4-.5.7Z"/>
</svg>