<?xml version="1.0" encoding="UTF-8"?>
<svg id="Layer_1" xmlns="http://www.w3.org/2000/svg" xmlns:xlink="http://www.w3.org/1999/xlink" version="1.1" viewBox="0 0 500 500">
  <!-- Generator: Adobe Illustrator 29.0.0, SVG Export Plug-In . SVG Version: 2.1.0 Build 186)  -->
  <defs>
    <style>
      .st0 {
        fill: none;
      }

      .st1 {
        fill: #b2ac9e;
      }

      .st2 {
        fill: #ffd36c;
      }

      .st3 {
        fill: #efb829;
      }

      .st4 {
        fill: #fdb924;
      }

      .st5 {
        fill: #f14624;
      }

      .st6 {
        clip-path: url(#clippath-11);
      }

      .st7 {
        clip-path: url(#clippath-10);
      }

      .st8 {
        clip-path: url(#clippath-15);
      }

      .st9 {
        clip-path: url(#clippath-13);
      }

      .st10 {
        clip-path: url(#clippath-14);
      }

      .st11 {
        clip-path: url(#clippath-12);
      }

      .st12 {
        clip-path: url(#clippath-1);
      }

      .st13 {
        clip-path: url(#clippath-3);
      }

      .st14 {
        clip-path: url(#clippath-4);
      }

      .st15 {
        clip-path: url(#clippath-2);
      }

      .st16 {
        clip-path: url(#clippath-7);
      }

      .st17 {
        clip-path: url(#clippath-6);
      }

      .st18 {
        clip-path: url(#clippath-9);
      }

      .st19 {
        clip-path: url(#clippath-8);
      }

      .st20 {
        clip-path: url(#clippath-5);
      }

      .st21 {
        fill: #7f7d79;
      }

      .st22 {
        fill: #bf8e21;
      }

      .st23 {
        fill: #c9351c;
      }

      .st24 {
        clip-path: url(#clippath);
      }
    </style>
    <clipPath id="clippath">
      <rect class="st0" x="148.3" y="10.7" width="203.3" height="116.8"/>
    </clipPath>
    <clipPath id="clippath-1">
      <rect class="st0" x="12.8" y="424.4" width="71" height="70.3"/>
    </clipPath>
    <clipPath id="clippath-2">
      <rect class="st0" x="51.5" y="479.2" width="19.4" height="15.5"/>
    </clipPath>
    <clipPath id="clippath-3">
      <rect class="st0" x="12.8" y="447" width="32.3" height="47.7"/>
    </clipPath>
    <clipPath id="clippath-4">
      <rect class="st0" x="112.8" y="424.4" width="71" height="70.3"/>
    </clipPath>
    <clipPath id="clippath-5">
      <rect class="st0" x="154.7" y="479.2" width="19.4" height="15.5"/>
    </clipPath>
    <clipPath id="clippath-6">
      <rect class="st0" x="112.8" y="447" width="35.5" height="47.7"/>
    </clipPath>
    <clipPath id="clippath-7">
      <rect class="st0" x="212.8" y="424.4" width="74.2" height="70.3"/>
    </clipPath>
    <clipPath id="clippath-8">
      <rect class="st0" x="254.8" y="479.2" width="19.4" height="15.5"/>
    </clipPath>
    <clipPath id="clippath-9">
      <rect class="st0" x="212.8" y="447" width="35.5" height="47.7"/>
    </clipPath>
    <clipPath id="clippath-10">
      <rect class="st0" x="316.1" y="424.4" width="71" height="70.3"/>
    </clipPath>
    <clipPath id="clippath-11">
      <rect class="st0" x="354.8" y="479.2" width="22.6" height="15.5"/>
    </clipPath>
    <clipPath id="clippath-12">
      <rect class="st0" x="316.1" y="447" width="35.5" height="47.7"/>
    </clipPath>
    <clipPath id="clippath-13">
      <rect class="st0" x="416.1" y="424.4" width="72.8" height="70.3"/>
    </clipPath>
    <clipPath id="clippath-14">
      <rect class="st0" x="458" y="479.2" width="19.4" height="15.5"/>
    </clipPath>
    <clipPath id="clippath-15">
      <rect class="st0" x="416.1" y="447" width="35.5" height="47.7"/>
    </clipPath>
  </defs>
  <path class="st23" d="M112.5,171.9v206.9h275.9v-206.9H112.5"/>
  <path class="st5" d="M388.4,378.8v-183.9h-223.8c-11.9,0-21.5,9.6-21.5,21.5v162.5h245.2"/>
  <g class="st24">
    <path class="st3" d="M315.3,76.1c-14.8,16-39.4,26-54.2,30.9,4.4-16,13.6-43.7,28.8-60,16.8-18.1,27.6-20.8,32.6-20.8s6.3,1.2,8.6,3.8c8.4,9.1,2.5,26.3-15.8,46.1ZM185.7,76.1c-18.3-19.8-24.2-37-15.8-46.1,2.4-2.5,5.2-3.8,8.6-3.8,5,0,15.8,2.7,32.6,20.8,15.1,16.3,24.4,44,28.8,60-14.8-4.9-39.4-15-54.2-30.9ZM342.3,19.6c-5.3-5.7-12.1-8.7-19.8-8.7h0c-13.3,0-28,8.6-43.8,25.7-13.4,14.4-22.5,35.5-28.1,52.4-5.7-16.9-14.7-38-28.1-52.4-15.8-17.1-30.6-25.7-43.9-25.7s-14.6,3-19.8,8.7c-5.4,5.9-20.4,28,15.8,67,25.3,27.2,72.3,38.6,74.2,39.1.6.2,1.2.2,1.8.2s1.2,0,1.8-.2c2-.5,49-11.8,74.2-39.1,36.2-39,21.2-61.1,15.8-67"/>
  </g>
  <path class="st23" d="M89.5,118.2v61.3h321.9v-61.3H89.5"/>
  <path class="st5" d="M130.2,164.2h281.2v-46H112.5v28.3c0,9.8,7.9,17.7,17.7,17.7"/>
  <path class="st3" d="M220.3,118.2v260.6h60.3V118.2h-60.3"/>
  <path class="st22" d="M220.3,118.2v260.6h23V118.2h-23"/>
  <g class="st12">
    <path class="st2" d="M81,453.6l-7.9,6c-6.4,4.8-9.1,13.4-6.7,21.3l3,9.8c.7,2.2-1.7,4-3.4,2.6l-8-6.1c-6.4-4.8-15-4.8-21.4,0l-7.9,6c-1.8,1.3-4.1-.5-3.4-2.6l3.1-9.6c2.5-7.9-.2-16.5-6.6-21.4l-7.8-6c-1.8-1.3-.8-4.2,1.3-4.2h9.6c7.9,0,14.8-5.3,17.3-13.1l3.1-9.9c.7-2.2,3.6-2.2,4.2,0l3.1,9.9c2.5,7.8,9.5,13.1,17.3,13.1h9.8c2.2,0,3.1,2.9,1.3,4.2"/>
  </g>
  <path class="st4" d="M40,447.7c5.7,0,11-2.8,14.4-7.4-.8-1.3-1.4-2.7-1.9-4.1l-3.1-9.9c-.7-2.2-3.6-2.2-4.2,0l-3.1,9.9c-1.7,5.3-5.4,9.3-10.1,11.5h8.1"/>
  <g class="st15">
    <path class="st4" d="M53.3,484.7c1.6.6,3.2,1.4,4.7,2.5l8,6.1c1.8,1.3,4.1-.5,3.4-2.6l-2.5-8.1c-4.6-1.2-9.5-.5-13.6,2.1"/>
  </g>
  <g class="st13">
    <path class="st4" d="M43.6,479.4c2.5-7.9-.2-16.6-6.6-21.4l-7.8-6c-1.1-.8-1.1-2.2-.5-3.1-1.3.3-2.6.5-4,.5h-9.6c-2.2,0-3.1,2.9-1.3,4.2l7.8,6c6.4,4.9,9.1,13.5,6.6,21.4l-3.1,9.6c-.7,2.2,1.7,4,3.4,2.6l7.9-6c1.7-1.3,3.5-2.2,5.4-2.8l1.6-5.1"/>
  </g>
  <g class="st14">
    <path class="st2" d="M182.5,453.6l-7.9,6c-6.4,4.8-9.1,13.4-6.6,21.3l3,9.8c.7,2.2-1.7,4-3.4,2.6l-8-6.1c-6.4-4.8-15-4.8-21.4,0l-7.9,6c-1.8,1.3-4.1-.5-3.4-2.6l3-9.6c2.5-7.9-.2-16.5-6.6-21.4l-7.8-6c-1.7-1.3-.8-4.2,1.3-4.2h9.6c7.9,0,14.8-5.3,17.3-13.1l3.1-9.9c.7-2.2,3.6-2.2,4.3,0l3.1,9.9c2.4,7.8,9.5,13.1,17.3,13.1h9.8c2.2,0,3.1,2.9,1.3,4.2"/>
  </g>
  <path class="st4" d="M141.6,447.7c5.8,0,11-2.8,14.4-7.4-.8-1.3-1.5-2.7-1.9-4.1l-3.1-9.9c-.7-2.2-3.6-2.2-4.3,0l-3.1,9.9c-1.6,5.3-5.4,9.3-10.1,11.5h8.1"/>
  <g class="st20">
    <path class="st4" d="M154.8,484.7c1.6.6,3.2,1.4,4.7,2.5l8,6.1c1.8,1.3,4.1-.5,3.4-2.6l-2.5-8.1c-4.6-1.2-9.5-.5-13.6,2.1"/>
  </g>
  <g class="st17">
    <path class="st4" d="M145.1,479.4c2.5-7.9-.2-16.6-6.6-21.4l-7.9-6c-1.1-.8-1.1-2.2-.5-3.1-1.3.3-2.6.5-4,.5h-9.6c-2.2,0-3,2.9-1.3,4.2l7.8,6c6.4,4.9,9.1,13.5,6.6,21.4l-3,9.6c-.7,2.2,1.7,4,3.4,2.6l7.9-6c1.7-1.3,3.5-2.2,5.4-2.8l1.6-5.1"/>
  </g>
  <g class="st16">
    <path class="st2" d="M284.1,453.6l-7.9,6c-6.4,4.8-9.1,13.4-6.7,21.3l3,9.8c.7,2.2-1.7,4-3.4,2.6l-8-6.1c-6.4-4.8-15-4.8-21.4,0l-7.9,6c-1.8,1.3-4.1-.5-3.4-2.6l3-9.6c2.5-7.9-.2-16.5-6.6-21.4l-7.9-6c-1.7-1.3-.8-4.2,1.3-4.2h9.6c7.9,0,14.8-5.3,17.3-13.1l3.1-9.9c.7-2.2,3.6-2.2,4.2,0l3.1,9.9c2.5,7.8,9.5,13.1,17.3,13.1h9.8c2.2,0,3.1,2.9,1.3,4.2"/>
  </g>
  <path class="st4" d="M243.1,447.7c5.7,0,11-2.8,14.4-7.4-.8-1.3-1.5-2.7-1.9-4.1l-3.1-9.9c-.7-2.2-3.6-2.2-4.2,0l-3.1,9.9c-1.7,5.3-5.4,9.3-10.1,11.5h8.1"/>
  <g class="st19">
    <path class="st4" d="M256.4,484.7c1.6.6,3.2,1.4,4.7,2.5l8,6.1c1.8,1.3,4.1-.5,3.4-2.6l-2.5-8.1c-4.6-1.2-9.4-.5-13.6,2.1"/>
  </g>
  <g class="st18">
    <path class="st4" d="M246.7,479.4c2.5-7.9-.1-16.6-6.6-21.4l-7.8-6c-1.1-.8-1.1-2.2-.5-3.1-1.3.3-2.6.5-4,.5h-9.6c-2.2,0-3,2.9-1.3,4.2l7.9,6c6.4,4.9,9.1,13.5,6.6,21.4l-3,9.6c-.7,2.2,1.7,4,3.4,2.6l7.9-6c1.7-1.3,3.5-2.2,5.4-2.8l1.6-5.1"/>
  </g>
  <g class="st7">
    <path class="st2" d="M385.6,453.6l-7.9,6c-6.4,4.8-9.1,13.4-6.6,21.3l3,9.8c.7,2.2-1.7,4-3.4,2.6l-8-6.1c-6.4-4.8-15-4.8-21.4,0l-7.9,6c-1.8,1.3-4.1-.5-3.5-2.6l3.1-9.6c2.5-7.9-.2-16.5-6.6-21.4l-7.8-6c-1.8-1.3-.8-4.2,1.3-4.2h9.6c7.9,0,14.8-5.3,17.3-13.1l3.1-9.9c.7-2.2,3.6-2.2,4.2,0l3.1,9.9c2.5,7.8,9.5,13.1,17.3,13.1h9.8c2.2,0,3.1,2.9,1.3,4.2"/>
  </g>
  <path class="st4" d="M344.7,447.7c5.7,0,11-2.8,14.4-7.4-.8-1.3-1.5-2.7-1.9-4.1l-3.1-9.9c-.7-2.2-3.6-2.2-4.2,0l-3.1,9.9c-1.7,5.3-5.4,9.3-10.1,11.5h8.1"/>
  <g class="st6">
    <path class="st4" d="M357.9,484.7c1.6.6,3.2,1.4,4.7,2.5l8,6.1c1.8,1.3,4.1-.5,3.4-2.6l-2.5-8.1c-4.5-1.2-9.4-.5-13.6,2.1"/>
  </g>
  <g class="st11">
    <path class="st4" d="M348.2,479.4c2.5-7.9-.2-16.6-6.6-21.4l-7.8-6c-1.1-.8-1.1-2.2-.5-3.1-1.3.3-2.6.5-4,.5h-9.6c-2.2,0-3,2.9-1.3,4.2l7.8,6c6.4,4.9,9.1,13.5,6.6,21.4l-3.1,9.6c-.7,2.2,1.7,4,3.5,2.6l7.9-6c1.7-1.3,3.5-2.2,5.4-2.8l1.6-5.1"/>
  </g>
  <g class="st9">
    <path class="st1" d="M487.2,453.6l-7.9,6c-6.4,4.8-9.1,13.4-6.6,21.3l3,9.8c.7,2.2-1.7,4-3.4,2.6l-8-6.1c-6.4-4.8-15-4.8-21.4,0l-7.9,6c-1.8,1.3-4.1-.5-3.4-2.6l3-9.6c2.5-7.9-.2-16.5-6.6-21.4l-7.8-6c-1.8-1.3-.8-4.2,1.3-4.2h9.5c7.9,0,14.9-5.3,17.3-13.1l3.1-9.9c.7-2.2,3.6-2.2,4.3,0l3.1,9.9c2.4,7.8,9.5,13.1,17.3,13.1h9.8c2.2,0,3.1,2.9,1.3,4.2"/>
  </g>
  <path class="st21" d="M446.2,447.7c5.7,0,11-2.8,14.4-7.4-.8-1.3-1.5-2.7-1.9-4.1l-3.1-9.9c-.7-2.2-3.6-2.2-4.3,0l-3.1,9.9c-1.6,5.3-5.4,9.3-10.1,11.5h8.1"/>
  <g class="st10">
    <path class="st21" d="M459.5,484.7c1.6.6,3.2,1.4,4.7,2.5l8,6.1c1.8,1.3,4.1-.5,3.4-2.6l-2.5-8.1c-4.5-1.2-9.4-.5-13.6,2.1"/>
  </g>
  <g class="st8">
    <path class="st21" d="M449.8,479.4c2.5-7.9-.2-16.6-6.6-21.4l-7.9-6c-1.1-.8-1.1-2.2-.5-3.1-1.3.3-2.6.5-4,.5h-9.5c-2.2,0-3.1,2.9-1.3,4.2l7.8,6c6.4,4.9,9.1,13.5,6.6,21.4l-3,9.6c-.7,2.2,1.7,4,3.4,2.6l7.9-6c1.7-1.3,3.5-2.2,5.4-2.8l1.6-5.1"/>
  </g>
</svg>