<?xml version="1.0" encoding="UTF-8"?><svg id="Layer_1" xmlns="http://www.w3.org/2000/svg" viewBox="0 0 169.07 164.9"><defs><style>.cls-1{fill:#a58355;stroke-width:.5px;}.cls-1,.cls-2{stroke:#000;stroke-miterlimit:10;}.cls-3,.cls-4{isolation:isolate;}.cls-2{fill:#fff;stroke-width:.8px;}.cls-4{font-family:Galaxy1, 'Galaxy 1';font-size:12.1px;}</style></defs><g id="Layer_1-2"><path class="cls-1" d="M168.52,85.45l.3-.2v-.8h-.4v-.2c-.1,0,0-.3,0-.3v-.2c.1,0,0-.3,0-.3v-.3h.1-.7l-.2-.2v-.4l.1-.3h-.3v-.4h0v-.2l-.5-.2v-.3c-.1,0-.3-.3-.3-.3v-.2l.2-.3.3-.3h-.3l-.2-.4-.3-.3.2-.3-.4-.2-.3-.2v-.3l.3-.2v-.3c.1,0-.2,0-.2,0h-.3l-.3-.1-.2-.2-.2-.2v-.3l-.2-.3v-.2l.2-.2v-.8c.1,0,.2-.2.2-.2v-.4c-.1,0-.3-.3-.3-.3l-.2-.2.2-.3v-.3c-.1,0-.4-.3-.4-.3l-.2-.3v-.3l-.1-.2v-.3h-.3l-.1-.4h-.3v-.3h-.2c0-.1-.3-.3-.3-.3l-.2-.4v-.3c-.1,0-.4-.3-.4-.3h-.2v-.5l-.2-23.7-.2-.3h-.2l-.3.2-.2.2v-.3h-.3l-.2-.2-.3.2h-.2l.3.1v.3l-.3-.1-.2.2h-.2v-.3h-.2c0-.1-.2.2-.2.2h-.2l.1-.3h-.2l-.1.4h-.3l-.3-.2v.2h-.4l-.3-.2h0l-.2-.2-.2-.3h-.3c0-.1-.2-.3-.2-.3v-.3c.1,0,0-.2,0-.2h0l-.3.2h-.6l.2-.3h-.6v-.3h.1v-.2h-.9l-.2.1h-.3c0-.1.3-.2.3-.2v-.4h-.5c0,.1-.2,0-.2,0h0c-.2.1-.4.2-.5.2-.2,0-.4.1-.6.2h-.7c-.1,0-.2,0-.3-.1-.3-.2-.5-.5-.6-.8v-.8h0l-.2-.3v-.3l-.1-.7v.7h-.2v-.3h-.2c-.2,0-.3-.1-.4-.3h-.3l-.4-.2v-.3l-.1-.3h-.2v.3l-.2-.2v-.2h-.1l-.3-.2v-.2c.1,0-.1,0-.1,0l-.4-.2-.4-.2h-.3c0,.1-.2.4-.2.4v.4l-.2.3h-.2l-.2.2h-.3c0-.1-.3,0-.3,0h-.3c0,.1-.3,0-.3,0h-.9l-.1-.3-.2.2h-.3v-.3l-.3.3h-.2v-.8h-.7c0-.1-.2,0-.2,0l-.2.4h-.3l-.3.2h-.3c0,.1-.3,0-.3,0h-.3l-.2.2v.2c.1,0,0,.2,0,.2h-.3l-.2-.2h-.2c0,.1-.1.4-.1.4h-.2c0-.1-.2-.3-.2-.3l-.4-.3-.5-.3-.2.4h-.6l-.2.3-.3-.2-.2.3h-.3c0-.1-.4-.1-.4-.1v.2l-.3-.1h-.3l-.1.3h0v.5l-.2.4h-.2c0,.1-.4.2-.4.2l-.3-.2h-.3c0-.1-.2,0-.2,0v.3c-.1,0-.1.3-.1.3v.3l-.3.2h-.3l-.1-.2v-.2c-.1,0-.4-.3-.4-.3l-.2-.3-.2-.3h-.8l-.2-.2v-.3l-.2-.3h-.5l-.3-.2-.5-.3.4-.4v-.3h-.4l-.6-.3v.4c-.1,0-.1.3-.1.3l-.3.4h-.3l-.3.1h-.3v-.3l-.2-.3h-.5v.2h-.3l-.3-.3-.2-.4v-.7l-.3-.3-.3.2h-.3c0,.1-.3,0-.3,0v.7c.1,0,.1.3.1.3l-.2.3-.3.4h-.3c0,.1-.3-.2-.3-.2l-.3.3h.5v.4l-.6.2v1l-.3.3h-.6l-.2-.2v-.2l-.2-.2v-.2l-.2-.3v-.5c.1,0,.5-.1.5-.1v-.3l-.1-.3v-.3c-.1,0-.4-.2-.4-.2h-.3l-.2.2v.4l-.3.3-.3-.2-.3-.2h0v.3h-.3v-.2h0v.2l-.3.5-.4.2h-.6l-.3-.2v-.3c-.1,0,0-.3,0-.3v-.2l-.2-.3-.5-.2-.4.2h-.7v-.3c-.1,0,0-.3,0-.3v-.3l-.2-.2-.3-.2-.5-.2h-.3c0,.1-.1.4-.1.4l-.2.3h-.3c0,.1-.3.2-.3.2v.3h-.3v.3l-.2.1-.2.3-.3.2h-.3c0,.1-.3,0-.3,0l-.3-.2-.3-.2h-.3l-.3-.2v-.4h.3v-.4h-.2l.2-.2v-.5l-.2-.2h-.2c0,.1-.5.2-.5.2h-.4l-.3-.1v-.3l-.3-.2h.2c0-.1-.3-.4-.3-.4v-.3l.1-.3.2-.3v-.3c-.1,0-.2-.3-.2-.3h-.4c0,.1-.4.6-.4.6h-.5c0-.1-.3-.3-.3-.3h-.9l-.3-.3h-.5l-.2.2-.2.3v.4c-.1,0-.4.1-.4.1l-.3.2h-.3c0,.1-.3,0-.3,0l-.3-.2-.3-.3-.3-.4-.3-.3h-.4l-.5-.1-.4.3h-.5l-.3.2-.2-.2h-.4l-.2-.3h-.3l-.4.1-.2-.3h-.3c0-.1-.2-.4-.2-.4h-.5c0-.1-.2-.4-.2-.4h-.3c0,.1-.3.2-.3.2h-1.2v-.2l-.3.2h-.5v-1.2c-.1,0-.2-.2-.2-.2v-.6h-.3v-.2l-.3-.3-.3-.2v-.3l-.3-.2h-.3l-.3-.3-.2-.4h-.3l-.2.4v.5l-.2.3h-.3c0,.1-.3,0-.3,0l-.2-.2-.3-.2h-1.2v.3l-.2.3h-.3l-.3-.1h-.6l-.3-.3-.2-.2-.4-.2-.2-.3-.3-.2-.3-.4-.2-.3-.3-.2-.2-.2-.2-.3-.2-.2-.4-.3h-.3l-.2.2h-.4V.25h-39.2v38.3l-.3,15.8v15.4H.52l-.2.3.2.2v.5l.2.2-.3.2v.3c-.1,0,0,.3,0,.3v.3c.1,0,.4.3.4.3l.2.3.3.2.3.2v.3l.3.3.3.2.3-.2h.4l.3.1.5.3v.2l.4.2.2.5.4.6v.3l.2.3v.4c.1,0,.5.3.5.3l.3.6v.3l.3.3h.3c0,.1.2.4.2.4l.3.2h.3l.4.4h.9l.7.5v.4l.3.4h.4l.2.4h.3l.2.4.2.3.2.3.3.4.2.3.2.3h.3l.4.4.8.4.3.2.4.4.2.3v.3l.2.3v.3l.3.2.3.2h.2l.2.5.3.3.3.2.2.2.3.2v.6h.3l.3.1.3.2h.2l.1.3.3-.2.2.3.2.2h.3c0-.1.3-.2.3-.2v.3h.4v.3h.4v.2h.6v.4l.2.3h.2l.1.3h.7l.2.4v.5l.3.2h.3c0,.1.2.2.2.2l.2.3.2.3v.2c.1,0,.2.3.2.3v.3c.1,0,.2.3.2.3v.8c.1,0,.2.2.2.2v.6l.3.2h.2l-.1.3.2.3.2.2v.2h.4v.3l.1.3h.3c0,.1.2.4.2.4v.3l.1.3v.3c.1,0,.1.3.1.3v.3l-.1.2v.3l.1.3v.3l-.2.2v.3l.1.3v.7l.2.2v.3c-.1,0,0,.2,0,.2l.3.3.2.3.2.3.2.3v.2l.2.2v.3c.1,0,.3.3.3.3v.3c.1,0,.2.3.2.3v.3c.1,0,.2.3.2.3v.5l.2.2v.2c.1,0,.2.2.2.2h.3l.2.3.2.2.7.7.2.3h.2c0,.1.4.3.4.3h.5l.4.2h.3v.4h.3v.5l.4.3v.2l.3.3.2.2.3.2h.3c0,.1.3.4.3.4l.2.2.2.2h.3c0,.1.3.2.3.2h.3l.3.1.3.2h.8l.2.2h.3l.2.2h.3v.5h.3l.2.2.2.2h.3c0,.1.2.2.2.2h.3l.2.3h.2l.3-.1.3.2h.9c0,.1.2.4.2.4l.3.3.3.3v.3h.2l.2.3.2.2h.3l.3.2h.3v-.3h.3v.4h.3v.2h.3v.4l.2-.3.4.2h.6l.4.2h.3l.4-.2v-.2l.2-.4v-.3l.2-.2v-.2c.1,0,.3-.2.3-.2h.3v-.4l.3-.2v-.3l.2-.2.2-.3h.3c0,.1.2,0,.2,0l.3-.2.3-.2h.3l.1-.3-.2-.2-.2-.2v-.2l.2-.3v-.5l.2-.4.4-.2.2-.4.3-.2-.2-.2v-.9l.3-.2v-.7l.2-.2v-.3l.2-.3v-.3h.2v-.6l.2-.3.2-.2v-.3c.1,0,.2-.3.2-.3v-.3c.1,0,.4-.1.4-.1h.4l.3-.2h.3l.3-.3v.3c.1,0,.4-.1.4-.1l.3-.2v-.3h1.2l.3.2h.3v-.7l.2-.4.2-.3h.2l.3-.3.4.2h.4l.2.2h.6v.3l.3.2.3.2h.3c0,.1.3.2.3.2h.6l.3-.3h.5l.3-.2.2.3h.2v.2l.2-.2h.5l.3-.1.2.2h.2v-.2h.2v.4h.3c0-.1.3,0,.3,0h.3l.3.2h.4l.3-.1.2.3.2-.3h.7v-.4l.4-.2v.4l.1.4h.4l.3-.4h.3v.2l.2.3.5-.2-.2.2.2.2v.3l.3.3v.3l.3.1.6.2v.2l-.1.5v.3l.3.2.2-.3v-.2l.1-.4h.2v1.1l-.1.3v.3h.8l.3.3.3.4h.3l.3.1h.3l.3.3.2.3v.3l.3.3v.3l.3.2.3.2h.3l.3.4.3.2.3.2.2.4.3.2h.3c0,.1.2.3.2.3l.2.3v.3c.1,0,.2.2.2.2v.3c-.1,0,0,.2,0,.2l.3.3.4.3h.3c0,.1.2.4.2.4v1l.1.2v1.2l.2.2v.2l.3.2.3.2v.3l.3.4v.3l.3.2.2.3v.6h.2c0,.1.1.4.1.4v.6l.1.5h0l.3.2.4.2v.3l.2.3.4.3-.2.4v.3c.1,0,.3.2.3.2h.3l.3.2v.2l-.4.2.2.2.2.3v.2l-.2.4v.3c.1,0,.4.4.4.4l.2.4.2.3v.7l.2.3.3.2h.4v.6h.4l.3.3h.2l.3.2.5.2.2.4.2.3v.3c.1,0,.4.2.4.2v.2l.1.3v.3l.2.3.2.2h.4l.2.3v.6l.3.2v.9c.1,0,.4.3.4.3v.7l.3.2.2.2.3-.2v.2l.2.4h.3l.2.4.3.4v.3c.1,0,.4.2.4.2h.3l.3.1v.3h.2l.3-.2h.3l.2.3v.2l.3-.2.2.3.3.3v1.2h.3l.3.1v.4l-.2.4v.4c.1,0,0,.3,0,.3v.3l-.2.3v.3l-.3.2v.3h.4l.2.2v.5h.5v.4c.1,0,.1.3.1.3v.3c.1,0,.2.4.2.4v.3c-.1,0,0,.3,0,.3v1l-.3.4v.3l.2.3h.3l.2.3.4.3-.2.3v.3l.4.2h.3c0,.1.2.3.2.3v.6h.3l.3.3v.4l.3.4v.7l.4.3v.5l.1.6.3.6v.9c.1,0,.1.4.1.4h.3c0,.1.3.3.3.3l.2.2v.3c.1,0,0,.3,0,.3v.2l-.2.2.2.2.2.3h.4l.3-.2.4.3h.4c0-.1.2.2.2.2h.3l.1-.2.2.3.3.2h.5l.2-.2h.3l.1.3v.3l.3.1h.3l.1.2v.3h.5c0,.1-.3.2-.3.2h.2l.3.2v.2h.3l.3-.2h.6l.3.3v.2c.1,0,.3-.3.3-.3v.3h.4v.3c.1,0,.5.1.5.1v-.3l.2-.1h.3v.4h.2c0,.1.3.4.3.4l.3.2h.5v.2l.2.3.3.2v-.2h.4l-.3.2.3.2.2.3h.5l.3.3.3-.3.2.3h.2l.3-.2h.6v.3h.5v-.2h1.5l.3-.2h.3l.2.2h.7v.4l.2-.2v.3h1l.3-.2v.3h.3v.3h.2v.2l.2.2.3.3h.3c0,.1-.1.4-.1.4h.4l.2.3v.3l.1.3.3-.2v.3h.5c0-.1.1.1.1.1v.3h.5l.2.3h.3v-.3l.2-.2v-.3l-.2-.2.3-.2h.3c0-.1.2-.2.2-.2h.4v-.3h.4l.3-.1h1v-.2h.7v-1.8l-.2-.3v-.6l-.1-.8v-.8l-.5-2-.4-1.6-.4-1.6v-.3c-.1,0-.5-1-.5-1l-.4-1.6-.2-1.1-.2-1.2v-1.1l-.1-.4v-1.5l.1-.9v-.4l.2-.8v-.4c.1,0,.5-1.5.5-1.5v-.3l.7-1.7.4-1,.5-1.1,1-1.7.5-.6.3-.3.3-1.1.3-.4.4-.5.4-.6.4-.5,1.3-1.2,1.4-1.2.6-.4.8-.6,1.4-.7.4-.2.3-.2.4-.5v-.3l.3-.3h.3l.3-.4v-.3c.1,0,.4-.2.4-.2l.7-.5,1.4-.7,1-.5,1.6-.8,1.2-.7.4-.2,2.8-1.7.5-.2.9-.6h.5l.3-.2.4-.3.2-.3.2-.3.5-.3.3-.3.3-.2.3-.3.7-.8.2-.2.2-.5v-.3l1.1-.6.5-.3.7-.5.9-.6.9-.5.4-.4.4-.3h.6l.3-.3.2-.5v-.4l-.3-.4.3-.2,1.6-.8,1-.5.6-.3,3.2-1.5,1.2-.5h2l.2.3h.3c0,.1.3.1.3.1l-.2-1v-.5c-.1,0-.6-.7-.6-.7l-.3-.3v-.3l-.4-.3v-.3l.2-.3.4-.3.4-.3.3-.5.2-.4v-.3l.2-.4.2-.4.3-.2.3-.3v-.2l.5-.4-.3-.2v-.3c.1,0,.3-.3.3-.3v-.3c.1,0,0-.3,0-.3v-.3c-.1,0-.2-.3-.2-.3v-1.4l-.1-.2-.3-.2-.2-.3v-1.2l.2-.3v-.3h.3v-.2l-.1-.3v-.9l-.3-.3v-.2l.1-.3.3-.2h.2v-.8l.2-.3.2-.2h.3c0-.1.1-.4.1-.4v-.3l.1-.3v-.3l.1-.2.2-.3v-.4c.1,0,.2-.2.2-.2v-.3c.1,0,0-.3,0-.3v-.3l-.2-.3.2-.2v-.3c.1,0,.4-.3.4-.3v-.3l-.3-.2h-.2v-.7h.3l.7,1.5Z"/><polygon class="cls-2" points="51.76 103.02 45.36 103.02 43.36 96.82 41.36 103.02 34.86 103.02 40.06 106.82 38.06 112.92 43.36 109.12 48.56 112.92 46.56 106.82 51.76 103.02"/></g><g id="Layer_2"><g class="cls-3"><text class="cls-4" transform="translate(50.12 58.75)"><tspan x="0" y="0">Terlingua </tspan></text><text class="cls-4" transform="translate(50.12 73.25)"><tspan x="0" y="0">Stargazing </tspan></text><text class="cls-4" transform="translate(50.12 87.65)"><tspan x="0" y="0">Society</tspan></text></g></g></svg>